<?xml version="1.0" encoding="UTF-8"?>
<svg version="1.1" viewBox="0 0 1600 1600" width="7730" height="7730" xmlns="http://www.w3.org/2000/svg">
<path transform="translate(807,255)" d="m0 0h44l30 2 38 5 35 7 34 9 36 12 28 11 33 15 25 13 24 14 19 12 20 14 13 10 11 9 10 9 8 7 17 16 24 26 9 11 13 16 13 18 14 21 12 20 8 15 2 1 4 10 14 31 11 29 9 28 10 40 7 38 1 2 1 14 3 31 1 17v57l-2 30-4 34-6 35-7 31-5 19 2 6 5 13 6 22 1 6v21l-4 13-6 10-9 8-3 2 1 9 23 127 22 121 1 8-2 9-5 7-8 4h-76l-1 11-4 22-3 4-1 7 5 14 2 9-1 5-5 3-21 1-5-5 3-14 5-9 2-3 1-6-3-5v-34h-36l-2 11-6 21-3 4h-4l1 13 1 7v11l-4 5-3 1-25 1h-44-3l-4 2-7 1-10-3-7-8-1-3v-10l2-5h-108l2 5v10l-3 6-7 6-9 2-10-3-6-7-2-4v-10l3-6-1-4v-8l4-3 148-1 9-30h-127l-6 8-9 8-7 3-5 1-46 2-14 1-9 10-1 2-31 9-38 9-39 7-38 5-37 3-30 1h-18l-29-1-48-4-40-5-33-6-40-10-33-11-8-3-9-1-42-1 6 11 11 17 8 1 1 1v6l-1 1h-22l-6-5-9-11-6-5h-5l-3 13h8l2 2v5l-1 1h-22l-7-6-9-11-5-4h-5l-2 6-2 15-4-1-4-25v-10l4-7 5-4 2-3-1-4-8-9-7-11-6-16-2-10-1-29-9-11-10-11-13-17-12-17-15-25-12-23-11-23-10-26-10-30-10-40-6-32-4-30-3-37v-74l3-38 5-39 6-34 9-39 10-36 16-47 14-34 11-24 14-28-15-1-19-4-16-7-10-7-9-9-8-16-2-10v-12l7-8 15-15 7-8 14-14 7-8 14-14 7-8 13-13 7-8 15-15 7-8 8-8 1-5 2-23 4-13 7-13 7-8 10-7 9-4 19-3 70-7 81-7 37-3 9-2 23-11 27-11 28-10 35-10 37-8 34-5 21-2zm360 1125-12 40 5 4 4 6 1 3v13l18-8 33-15 3-8-1-6 5-26v-3zm-798 24 6 12 4 6 1-4v-8l1-4-8-2z" fill="#81CFFC"/>
<path transform="translate(982,566)" d="m0 0 7 6 14 11 21 11 2 70 8-14 8-10 9-10 12-9 15-8 13-4 13-2h9l12 2 12 5 9-2 13-3h21l14 4 12 7 10 9 9 10 9 14 10 21 10 30 6 26 4 24 3 1 27 3 23 126 12 67v3l-4-2-9-7-40-8-14-40v-3l-11 3-1-4 3-7 8-3 1-1v-6l-11 1 1-4 4-11-16-4-14-5-5-2-3 9-6 15-3 13 1 8 5 5 2 1 11 1 1 1 3 23v5l-38-1-20-3-22-6-21-8-21-11-14-10-13-12-9-12-6-13-1-3v-17l-6-8-9-10-13-13-4-1 1 5 9 10-5 11v8l6 11 4 5 7 4 5 19 6 16 8 16 9 15 9 11 9 10 11 10 18 12 15 8 20 7 16 4 13 2 3 8 17 60 13 50 2 8 4-6 1-1h39l-2 5-5 9-23 1-4 11 25 5 7 1h33l13-2 1-19 1-10 3-1v-2l16-4 15-6 6 31 23 127 18 99 1 8-2 9-5 7-8 4h-76l-1 11-4 22-3 4-1 7 5 14 2 9-1 5-5 3-21 1-5-5 3-14 5-9 2-3 1-6-3-5v-34h-36l-2 11-6 21-3 4h-4l1 13 1 7v11l-4 5-3 1-25 1h-44-3l-4 2-7 1-10-3-7-8-1-3v-10l2-5h-108l2 5v10l-3 6-7 6-9 2-10-3-6-7-2-4v-10l3-6-1-4v-8l4-3 148-1 9-30h-127l-6 8-9 8-7 3-5 1-46 2-14 1-9 10-1 2-31 9-38 9-39 7-38 5-37 3-30 1h-18l-29-1-48-4-40-5-33-6-40-10-33-11-8-3-9-1-42-1 6 11 11 17 8 1 1 1v6l-1 1h-22l-6-5-9-11-6-5h-5l-3 13h8l2 2v5l-1 1h-22l-7-6-9-11-5-4h-5l-2 6-2 15-4-1-4-25v-10l4-7 5-4 2-3-1-4-8-9-7-11-6-16-2-10-1-33-2-135v-69l-14 3-12-1-11-4-12-7-9-9-5-9-2-7v-25l-5-10-7-6-11-4-12-5-10-8-6-10-4-13v-15l3-17 7-16 10-13 9-8 14-8 14-6 21-5 10-3 7-6 4-8 3-12 4-6 9-8 3-2 1-165 1-69 1-31 15-6 13-8 5-4h2l1 11 2 103 3 103v22l5-1 2-5 7-7 10-5h15l12 6 4 5 2 5-1 9-4 6 2 5 5 11 3 13v10l-3 8-5 4-3 1h-8l-4 27 7 2 5 5 7 10 8 15 4 12 1 5v12l-5 18-1 2 17-4 11-6 8-8 8-13 10-25 7-6 10-3 4-2-1 7-4 4-2 1-1 3 15-2 13-7 4-3 3 1-1 9-6 10-10 6-4 1h-18l-1 8-6 16-7 13-9 11-10 9-12 7-13 4-5 1h-11l-2 9-3 9 1 9 5 19 1 10 1 122 1 26 1 10-3 23 49 3 28 1 52 1h55l73-1 77-2 103-4 78-4 23-1-13-31-18-41-3-7v-7l4-4h67l-2-181-3-146-5-182-2-64zm185 814-12 40 5 4 4 6 1 3v13l18-8 33-15 3-8-1-6 5-26v-3zm-798 24 6 12 4 6 1-4v-8l1-4-8-2z" fill="#E18CEF"/>
<path transform="translate(961,536)" d="m0 0 3 4 7 11 8 10 3 4 3 87 5 182 3 146 1 80v101l-67 1-3 3v7l15 34 18 42v3l-23 2-78 4-103 4-77 2-73 1h-55l-52-1-47-2-27-2-3-1 1-13 1-15-1-5-1-26-1-122-2-15-5-17 1-9 5-15 16-2 15-5 11-7 10-9 9-12 8-17 5-17 18-1 10-4 5-5 4-7 1-9-5 2-10 6-8 3h-11l1-4 4-2 3-9-7 4-9 3-5 6-10 25-8 12-8 8-14 7-9 2h-5l5-20v-12l-3-12-8-17-8-12-5-5-7-3 1-12 2-15 2-1h7l6-3 3-5 1-4v-10l-3-13-7-14 2-4 3-9-1-7-4-6-12-6h-15l-10 5-8 9-3 3h-3l-2-52-3-118-1-70 16-16 11-16 4-7h1l3 24 4 12 7 11 1 1v49l7 1 15 10 13 8 5-5 2 9 10 12 6 8 7 1 2-1h6l5 4 1 62 15 15 7 8 17 17h24l11-12 15-15 7-8 4-4 2 1v3l1 3 14 9 11 8 16 10 11 8 23 15 3 3 1-204 18-1 15-3 8-4 5-3h2v-2l6-4 8-9 5-8 7-15 3-12h2l3 20 6 16 6 10 7 7 12 6 4 1h18l11-4 8-6 7-8 6-12 4-14 2-16h2l4 18 7 14 7 9 7 7 10 6 10 4 8 2h25l13-4 10-5 9-9 6-12 3-9z" fill="#4EBDFC"/>
<path transform="translate(807,255)" d="m0 0h44l30 2 38 5 35 7 34 9 36 12 28 11 33 15 25 13 24 14 19 12 20 14 13 10 11 9 10 9 8 7 17 16 24 26 9 11 13 16 13 18 14 21 12 20 8 15 2 1 4 10 14 31 11 29 9 28 10 40 7 38 1 2 1 14 3 31 1 17v57l-2 30-4 34-6 35-7 31-5 19 2 6 5 13 6 22 1 6v21l-4 13-6 10-9 8-16 8-17 4h-2v2l-2 1-3 29-13 3h-33l-23-4-9-3 3-11 1-1h23l2-6 5-8-39 1-3 4-2 3-3-9-11-43-21-74-22-4-16-5-15-6-16-9-14-10-13-12-10-11-11-16-9-16-8-20-5-18-1-4-8-5-7-11-2-4v-8l5-11-10-11 1-5 5 2 20 20 8 11v17l5 12 7 11 11 12 13 10 15 9 19 9 24 8 17 4 15 2 36 1 2 1-4-28-11-1-6-4-3-6 1-11 5-15 7-16 5 1 14 5 16 5-1 7-4 8 6-2h5l1 1v6l-6 4-4 1-2 9 11-2 14 40v3l11 1 29 6 10 8 3 2-4-20-31-171v-5l-16-1-11-1-4-2-5-29-7-28-8-23-11-23-9-13-9-10-9-8-14-7-11-3h-21l-16 4-6 1-12-5-12-2h-9l-17 3-13 5-11 6-9 7-8 7-11 14-9 15h-1l-1-32v-39l-6-2-15-8-14-11-9-9-13-17-8-14-28-125-9-41v-2l21-1h40l10 8 22 18 4 3v-22l-1-23-4-15-6-11-9-10-10-6-10-3-30-2h-100l-81 3-90 5-87 6h-9l4-3 21-10 27-11 28-10 35-10 37-8 34-5 21-2z" fill="#F6DBF8"/>
<path transform="translate(355,577)" d="m0 0h2l1 11 2 103 3 103v22l5-1 2-5 7-7 10-5h15l12 6 4 5 2 5-1 9-4 6 2 5 5 11 3 13v10l-3 8-5 4-3 1h-8l-4 27 7 2 5 5 7 10 8 15 4 12 1 5v12l-5 18-1 2 17-4 11-6 8-8 8-13 10-25 7-6 10-3 4-2-1 7-4 4-2 1-1 3 15-2 13-7 4-3 3 1-1 9-6 10-10 6-4 1h-18l-1 8-6 16-7 13-9 11-10 9-12 7-13 4-5 1h-11l-2 9-3 9 1 9 5 19 1 10 1 122 1 26 1 10-3 23 49 3 28 1 52 1h55l73-1 77-2h42l-2 1-1 3h-2l1 141h5v1l-20 1-131 2h-177l-54-1 6 11 11 17 8 1 1 1v6l-1 1h-22l-6-5-9-11-6-5h-5l-3 13h8l2 2v5l-1 1h-22l-7-6-9-11-5-4h-5l-2 6-2 15-4-1-4-25v-10l4-7 5-4 2-3-1-4-8-9-7-11-6-16-2-10-1-33-2-135v-69l-14 3-12-1-11-4-12-7-9-9-5-9-2-7v-25l-5-10-7-6-11-4-12-5-10-8-6-10-4-13v-15l3-17 7-16 10-13 9-8 14-8 14-6 21-5 10-3 7-6 4-8 3-12 4-6 9-8 3-2 1-165 1-69 1-31 15-6 13-8zm14 827 6 12 4 6 1-4v-8l1-4-8-2z" fill="#892277"/>
<path transform="translate(982,566)" d="m0 0 7 6 14 11 21 11 2 70 8-14 8-10 9-10 12-9 15-8 13-4 13-2h9l12 2 12 5 9-2 13-3h21l14 4 12 7 10 9 9 10 9 14 10 21 10 30 6 26 4 24 3 1 27 3 23 126 12 67v3l-4-2-9-7-40-8-14-40v-3l-11 3-1-4 3-7 8-3 1-1v-6l-11 1 1-4 4-11-16-4-14-5-5-2-3 9-6 15-3 13 1 8 5 5 2 1 11 1 1 1 3 23v5l-38-1-20-3-22-6-21-8-21-11-14-10-13-12-9-12-6-13-1-3v-17l-6-8-9-10-13-13-4-1 1 5 9 10-5 11v8l6 11 4 5 7 4 5 19 6 16 8 16 9 15 9 11 9 10 11 10 18 12 15 8 20 7 16 4 13 2 3 8 17 60 13 50 2 8-1 7-12 40h-224l-2-181-3-146-5-182-2-64z" fill="#B11782"/>
<path transform="translate(849,300)" d="m0 0h100l30 2 12 4 10 7 8 9 7 14 3 12 1 23v23l-6-4-13-11-10-8-8-6h-61l4 16 25 112 9 40 1 2v17l-2 12-7 15-7 8-7 6-15 6-5 1h-25l-16-5-9-5-10-9-6-7-4-6-6-14-2-9v-6h-2v10l-4 17-5 12-7 9-9 8-9 4-4 1h-18l-11-4-8-6-8-9-6-13-4-14-1-6v-9h-2l-1 7-3 10-8 15-9 11-6 5h-2v2l-11 6-7 3-12 2h-20l-14-4-12-7-12-12-6-9-9-21-3-9 6-87 5-72 1-7-39 1-157 3-24 1-41 1-17 17-7 8-4 2v-17l3-16 8-16 8-10 10-7 9-4 19-3 70-7 81-7 66-5 90-6 74-4z" fill="#C63DAA"/>
<path transform="translate(696,898)" d="m0 0h254l4 5v255l-165 1 5 4 22 13 2 3 5 1 101 1v22l-1 1-55 1 4 4 15 9 6 5-1 2h-199l-3-4v-63h2v-256z" fill="#7EBEFC"/>
<path transform="translate(407,898)" d="m0 0h255l3 3 1 256 1 1v64l-3 3h-244l-1-26-1-122-2-15-5-17 1-9 5-15 16-2 15-5 11-7 10-9 9-12 8-17 5-17 18-1 10-4 5-5 4-7 1-9-5 2-10 6-8 3h-11l1-4 4-2 3-9-7 4-9 3-5 6-10 25-8 12-8 8-14 7-9 2h-5l5-20v-12l-3-12-8-17-8-12-5-5-5-2v-8z" fill="#7CB1FB"/>
<path transform="translate(399,376)" d="m0 0h25l-1 9-23 103-11 49-9 15-9 11-14 14-13 9-16 8-6 1v31l-1 69-1 165-11 9-4 5-3 10-3 9-7 8-8 4-23 5-15 6-13 7-11 9-8 10-8 16-3 12-1 8v15l4 13 6 10 11 8 14 5 10 5 7 8 3 7v25l4 11 6 8 8 7 16 8 11 2 11-1 8-1 3 208-5-5-10-11-11-14-10-13-12-18-12-20-12-23-11-23-10-26-10-30-10-40-6-32-4-30-3-37v-74l3-38 5-39 6-34 9-39 10-36 16-47 14-34 11-24 14-28-15-1-19-4-16-7-10-7-9-9-8-16-2-10v-12l7-8 15-15 7-8 14-14 7-8 14-14 7-8 13-13 7-8 15-15 7-8 8-8 1-5 1 2 8-7 9-10 11-11z" fill="#F6DBF8"/>
<path transform="translate(742,539)" d="m0 0h2l3 20 6 16 6 10 7 7 12 6 4 1h18l11-4 8-6 7-8 6-12 4-14 2-16h2l4 18 7 14 7 9 7 7 10 6 10 4 8 2h25l13-4 10-5 9-9 3-6h1v234l-160 1 1 2-4 1 22 14 4 4 106 1 1 1v21l-1 1-12 1-50 1 5 4 17 11-4 4h-186l-3-3v-64h2v-210l-3-1 9-2 8-4 5-3h2v-2l6-4 8-9 5-8 7-15z" fill="#81D0FC"/>
<path transform="translate(419,1258)" d="m0 0 49 3 28 1 52 1h55l73-1 77-2h42l-2 1-1 3h-2l1 141h5v1l-20 1-131 2h-177l-54-1-3-3-2-5-1-6 1-24 5-64 4-44z" fill="#1B1954"/>
<path transform="translate(1354,1095)" d="m0 0 2 4 46 253 1 8-2 9-5 7-8 4h-76l-1 11-4 22-3 4-1 7 5 14 2 9-1 5-5 3-21 1-5-5 3-14 5-9 2-3 1-6-3-5v-34h-36l-2 11-6 21-3 4h-4l1 13 1 7v11l-4 5-3 1-25 1h-44v-4l5-5 32-15 18-8 2-10-1-3 6-30h-55l2-10 22-73 32-107 10-33 7-23 25 5 7 1h33l13-2 1-19 1-10 3-1v-2l16-4z" fill="#292F79"/>
<path transform="translate(949,1251)" d="m0 0h9l15 34 6 14 4 2 47 1v51l-1 14-4 12-6 9-7 7-10 5-5 1-46 2-14 1-9 10-1 2-31 9-38 9-39 7-38 5-37 3-30 1h-18l-29-1-48-4-40-5-33-6-40-10-33-11-8-3-9-1v-1h189l131-2 15-1-1-3v-138l3-3-13-1v-1l98-4z" fill="#282F79"/>
<path transform="translate(388,537)" d="m0 0h1l3 24 4 12 7 11 1 1v49l7 1 15 10 13 8 5-5 2 9 10 12 6 8 7 1 2-1h6l5 4 1 62 15 15 7 8 17 17h24l11-12 15-15 7-8 4-4 2 1v3l1 3 14 9 11 8 16 10 11 8 23 15 4 4v4l-121 1 2 2-4 1 20 10 12 7 1 1 60 1 1 2v20l-2 2-4 1v2l6 2 19 10 3 1v3l2 1h-238l2-8v-10l-3-13-7-14 2-4 3-9-1-7-4-6-12-6h-15l-10 5-8 9-3 3h-3l-2-52-3-118-1-70 16-16 11-16z" fill="#7EBEFC"/>
<path transform="translate(849,300)" d="m0 0h100l30 2 12 4 10 7 8 9 7 14 3 12 1 23v23l-6-4-13-11-10-8-8-6-62-1h-78l-63 2-88 4-91 2-21 1-157 3-24 1-41 1-17 17-7 8-4 2v-17l3-16 8-16 8-10 10-7 9-4 19-3 70-7 81-7 66-5 90-6 74-4z" fill="#282E78"/>
<path transform="translate(1035,803)" d="m0 0 5 2 20 20 8 11v17l5 12 7 11 11 12 13 10 15 9 19 9 24 8 17 4 15 2 36 1 2 1-4-28-11-1-6-4-3-6 1-11 5-15 7-16 5 1 14 5 16 5-1 7-4 8 6-2h5l1 1v6l-6 4-4 1-2 9 11-2 14 40v3l11 1 29 6 10 8 10 9 14 14 11 15 9 19 7 26 1 6v21l-4 13-6 10-9 8-16 8-17 4h-2v2l-2 1-3 29-13 3h-33l-23-4-9-3 3-11 1-1h23l2-6 5-8-39 1-3 4-2 3-3-9-11-43-21-74-22-4-16-5-15-6-16-9-14-10-13-12-10-11-11-16-9-16-8-20-5-18-1-4-8-5-7-11-2-4v-8l5-11-10-11z" fill="#F9E843"/>
<path transform="translate(355,577)" d="m0 0h2l1 11 2 103 3 103v22l5-1 2-5 7-7 10-5h15l12 6 4 5 2 5-1 9-4 6-4-2-2-2h-10l-7 4-4 9-1 14h-3l-7-9-5 1-2 2 1 6 5 6 3 8-1 11-7 34-22 6-8 5-4 5-3 9-1 9 4 10 10 17 3 6 3 15 1 10v14l-2 17-2 8-13 12-8 10-7 14-1 4v14l1 11-9 3-11 1-14-3-13-7-10-9-6-9-3-9v-25l-5-10-7-6-11-4-12-5-10-8-6-10-4-13v-15l3-17 7-16 10-13 9-8 14-8 14-6 21-5 10-3 7-6 4-8 3-12 4-6 9-8 3-2 1-165 1-69 1-31 15-6 13-8z" fill="#B21782"/>
<path transform="translate(943,364)" d="m0 0h40l10 8 22 18 9 7 13 11 10 8 17 14 11 9 34 28 11 9 34 28 11 9 17 14 11 8-6 8-16 16-13 10-16 10-16 8-15 6-19 5-21 3h-19l-18-3-16-6-15-8-14-11-9-9-13-17-8-14-28-125-9-41v-2z" fill="#F5CC46"/>
<path transform="translate(742,539)" d="m0 0h2l3 20 6 16 6 10 5 6-11 11-11 15-9 16-7 15-6 21-3 20v17l2 14 4 13 7 14 7 9 5 6 12 9 17 9 15 5 16 3 13 1h13l19-2 16-4 11-4 15-8 9-7 10-10 7-11 7-16 3-13 1-11v-11l-2-18-5-19-6-16-10-19-12-16-2-4h-2v-2l6 1h25l13-4 10-5 9-9 3-6h1v234l-160 1 1 2-4 1 22 14 4 4 106 1 1 1v21l-1 1-12 1-50 1 5 4 17 11-4 4h-186l-3-3v-64h2v-210l-3-1 9-2 8-4 5-3h2v-2l6-4 8-9 5-8 7-15z" fill="#81CFFC"/>
<path transform="translate(399,376)" d="m0 0h25l-1 9-23 103-11 49-9 15-9 11-14 14-13 9-16 8-16 5-14 2h-17l-21-3-16-5-13-7-10-9-6-7-6-13-2-10v-12l7-8 15-15 7-8 14-14 7-8 14-14 7-8 13-13 7-8 15-15 7-8 8-8 1-5 1 2 8-7 9-10 11-11z" fill="#F9E943"/>
<path transform="translate(753,1260)" d="m0 0h42l-2 1-1 3h-2l1 141h5v1l-20 1-56 1h-51l-63-1-3-3v-136l9-3-9-1v-1l73-1z" fill="#202263"/>
<path transform="translate(716,368)" d="m0 0h28v1h-14l7 96 4 58v12h2l-1 8-4 13-8 15-9 11-6 5h-2v2l-11 6-7 3-12 2h-20l-14-4-12-7-12-12-6-9-9-21-3-9 6-87 5-72 1-7h-18v-1l91-2z" fill="#C63DAA"/>
<path transform="translate(514,373)" d="m0 0h21v1h-5l-9 84-8 73-4 20-5 13-6 11-9 10-7 6-15 7-9 2h-23l-14-3-11-6-8-7-7-11-4-12-2-14v-14l34-153v-5z" fill="#C63DAA"/>
<path transform="translate(666,977)" d="m0 0 22 14 3 3 1 35v129h-2l1 63 2 3 254 1 10 23v3l-23 2-78 4-103 4-77 2-73 1h-55l-52-1-47-2-27-2-3-1 1-13 1-15v-5l243-1 2-2z" fill="#468EFA"/>
<path transform="translate(683,599)" d="m0 0h9v210h-2l1 64 3 3 189 1 2 1 15 1 6 2 19 12 4 4-31 1-202 1-3 3-1 127h-1v-35l-3-1v-2l-5-2-12-8-4-3-1 179h-1l-1-256-2-2h-255l-2 2-1 7h-2l1-12 2-15 2-1h7l6-3 1-1 237-1v-3l-5-1-19-10-4-2v-2l-3-1 7-1 1-1v-22h-60l-9-6-16-8-9-5 3-2-35-1v-1h156v-209z" fill="#4BACFD"/>
<path transform="translate(407,898)" d="m0 0h255l3 3v200h-1l-2-7-6-5-44-29-15-10-8-6-1-5 18-4 13-7-2-4-72-72-4 4-5 11-2 7-1 13 3 17-7 1-36-24-5-5-4-2 6-18 1-4 18-1 10-4 5-5 4-7 1-9-5 2-10 6-8 3h-11l1-4 4-2 3-9-7 4-9 3-5 6-10 25-8 12-8 8-14 7-9 2h-5l5-20v-12l-3-12-8-17-8-12-5-5-5-2v-8z" fill="#7EBEFC"/>
<path transform="translate(982,566)" d="m0 0 7 6 14 11 21 11 2 97 3 210 1 86 1 118v56h-37l-2-181-3-146-5-182-2-64z" fill="#282E78"/>
<path transform="translate(793,367)" d="m0 0h26l18 165v3h2l-2 20-5 16-5 10-9 10-9 6-9 3h-18l-11-4-8-6-8-9-6-13-4-14-2-19h-2l-11-155v-11l17-1z" fill="#F4CC46"/>
<path transform="translate(580,372)" d="m0 0h39l-1 21-10 142-3 22-5 15-6 11-7 8-10 6-9 3h-17l-12-4-9-7-7-9-6-13-4-15-1-7v-14l17-155 1-2 5-1z" fill="#F4CC46"/>
<path transform="translate(483,617)" d="m0 0h7l9 3 12 2 14 1h17l21-2 13-3 1-1h6l6 4 18 14 14 11 2 3-1 7-12 16-4 5-3 2-13-1-4 4v59l-9 10-12 13-15 15-4 5h-24l-24-24-7-8-9-9-1-62-4-3h-6l-6 1-5-3-14-18-2-3v-6l4-5 26-20z" fill="#FDFDFD"/>
<path transform="translate(399,824)" d="m0 0h10l7 8 6 13 3 13v10l-3 8-5 4-3 1h-8l-4 27 7 2 5 5 7 10 8 15 4 12 1 5v12l-5 18-1 2 17-4 11-6 8-8 8-13 10-25 7-6 10-3 4-2-1 7-4 4-2 1-1 3 15-2 13-7 4-3 3 1-1 9-6 10-10 6-4 1h-18l-1 8-6 16-7 13-9 11-10 9-12 7-13 4-5 1h-11l-2 9-6 18-7 3-10 2h-13l-14-3-12-5-3-2 3-26v-14l-3-21-3-9-10-16-4-8-1-10 3-10 4-6 6-5 11-4 12-3h3l1-10 6-29v-6l-4-9-4-5-1-6 5-4 4 1 4 5 4 4 1-14 4-9 5-4z" fill="#F08E7B"/>
<path transform="translate(1354,1095)" d="m0 0 2 4 46 253 1 8-2 9-5 7-8 4h-76l2-19 5-49 3-45 1-37v-18l-1-32-3-35v-7l-2-1h2l1-19 1-10 3-1v-2l16-4z" fill="#991A9C"/>
<path transform="translate(665,1157)" d="m0 0 2 1v64l-3 3h-244v-67z" fill="#4BACFD"/>
<path transform="translate(955,508)" d="m0 0 10 2 112 5h16v-1h7l2 2 41 2h28l11 9 11 8-6 8-16 16-13 10-16 10-16 8-15 6-19 5-21 3h-19l-18-3-16-6-15-8-14-11-9-9-13-17-8-14-4-18z" fill="#F4CC46"/>
<path transform="translate(1345,972)" d="m0 0 4 2 10 13 9 17 4 13 5 18 1 6v21l-4 13-6 10-9 8-16 8-17 4h-2v2l-2 1-3 29-13 3h-33l-23-4-9-3 3-11 1-1h23l2-6 5-8-39 1-3 4-2 3-3-9-5-20 1-4 3-5 8-6 10-9 10-8 1-2h2v-2h2v-2l4-2 6-7 8-6 5-4 5-5 12-11 4-2v-2l8-7 11-9 7-7 11-9 3-1z" fill="#F1BB4A"/>
<path transform="translate(1241,1133)" d="m0 0 25 5 7 1h33l13-1 3 27 1 15 1 32v18l-1 37-2 34-1 5-27 4-6 2-2 4-1-5-2-43-3-36-1-8-4 36-6 39-3 16-2 2-4-1-24 4-5 4v-12l3-56 1-33 1-69z" fill="#1B1954"/>
<path transform="translate(903,1403)" d="m0 0h34l-6 7-4 6-31 9-38 9-39 7-38 5-37 3-30 1h-18l-29-1-48-4-40-5-33-6-40-10-33-11-8-3-9-1v-1h189l131-2z" fill="#F6DBF8"/>
<path transform="translate(954,915)" d="m0 0 5 1 17 11 10 7 2 4 1 7 1 1 1-21h1l1 55 1 80v101l-67 1-3 3v7l15 34 7 16v3h-54l-2-4-13-8-9-6v-2l4-1 51-1 1-22h-101l-6-2-4-4-14-8-9-6-2-3h166z" fill="#4BABFC"/>
<path transform="translate(591,314)" d="m0 0h20v1h-7v25h2l-1 10 1 7-2 2-1 11h15v1l-38 2-157 3-24 1-41 1-17 17-7 8-4 2v-17l3-16 8-16 8-10 10-7 9-4 19-3 70-7 81-7z" fill="#1C1955"/>
<path transform="translate(838,539)" d="m0 0h2l4 18 7 14 7 9 7 7 10 6 12 5v2h2l13 17 9 16 7 16 6 20 2 12 1 11v11l-2 16-5 16-8 15-11 12-9 8-14 8-8 4-13 4-17 3-12 1h-13l-19-2-16-4-13-5-13-7-9-7-7-6-9-12-8-16-4-16-1-9v-17l3-20 4-15 7-17 9-17 10-14 11-12 3-3 5 2 5 3v2l-8 7-11 13-8 13-8 16-6 18-3 14-1 8v21l3 16 5 12 6 10 9 10 10 7 16 8 14 4 20 3h21l21-3 15-5 14-7 9-7 5-4 9-12 5-11 4-15 1-8v-17l-3-19-6-20-9-19-10-15-12-14-14-11-4-2 11 10 6 10 2 6v18l-7 14-6 7-10 7-11 5-8 2h-24l-13-4-11-6-10-9-6-10-3-10v-11l4-11 6-9 5 1h18l11-4 8-6 7-8 6-12 4-14z" fill="#F9FCFD"/>
<path transform="translate(418,809)" d="m0 0h91l35 1 2 2-4 1 20 10 12 7 1 1 60 1 1 2v20l-2 2-4 1v2l6 2 19 10 3 1v3l2 1h-238l2-8v-10l-3-13-7-14 2-4 3-9z" fill="#54D3FD"/>
<path transform="translate(690,1158)" d="m0 0h98l6 5 22 13 2 3 5 1 101 1v22l-1 1-55 1 4 4 15 9 6 5-1 2h-199l-3-4z" fill="#52D3FD"/>
<path transform="translate(690,809)" d="m0 0h87l17 1 1 2-4 1 22 14 4 4 106 1 1 1v21l-1 1-12 1-50 1 5 4 17 11-4 4h-186l-3-3z" fill="#54D3FD"/>
<path transform="translate(768,303)" d="m0 0h32v1h-9v59l1 2-35 2-65 3-45 1h-29l-15-1v-11l2-5-1-6 2-8h-2l-1-2v-21l1-4 90-6z" fill="#202263"/>
<path transform="translate(1137,623)" d="m0 0 7 4 12 12 10 15 10 21 10 30 7 32 2 16-13 1-93 2h-19l2-18 6-29 9-27 8-16 7-12 9-11 9-9 15-10z" fill="#F6DAF8"/>
<path transform="translate(388,537)" d="m0 0h1l3 24 4 12 7 11 1 1v213l-2 1h-15l-10 5-8 9-3 3h-3l-2-52-3-118-1-70 16-16 11-16z" fill="#4BACFC"/>
<path transform="translate(983,1301)" d="m0 0h192l-1 7-21 70-1 1h-127l3-12 1-14 1-51h-47z" fill="#99199C"/>
<path transform="translate(355,577)" d="m0 0h2l1 11 2 103 3 103v23l-10 6-7 7-8 14-5 8-5 4-8 4v-165l1-69 1-31 15-6 13-8z" fill="#161047"/>
<path transform="translate(207,535)" d="m0 0h182l-2 6-8 12-8 10-14 14-13 9-16 8-16 5-14 2h-17l-21-3-16-5-13-7-10-9-6-7-6-13-2-10z" fill="#F2BB4A"/>
<path transform="translate(793,367)" d="m0 0h26l10 91v8l-2-2-1 1h-18l-19-1-12-1h-16l-16-1-7-2-1 5h-1l-6-85v-11l17-1z" fill="#EC9955"/>
<path transform="translate(387,798)" d="m0 0h15l12 6 4 5 2 5-1 9-4 6-4-2-2-2h-10l-7 4-4 9-1 14h-3l-7-9-5 1-2 2 1 6 5 6 3 8-1 11-7 34-22 6-8 5-4 5-3 9-1 9-1 4-12-5-23-11-32-16-3-2v-4l-4-1 21-5 10-3 7-6 4-8 3-12 4-6 9-8 15-9 4-5 8-15 9-10 9-6 7-2 2-5 7-7z" fill="#99199C"/>
<path transform="translate(943,364)" d="m0 0h40l10 8 22 18 9 7 13 11 10 8 17 14 11 9 1 3h-23l-109-5-5-1-1 3-16-72v-2z" fill="#EC9954"/>
<path transform="translate(399,824)" d="m0 0h10l7 8 6 13 3 13v10l-3 8-5 4-3 1h-8l-4 27 7 2 5 5 7 10 8 15 4 12 1 5v12l-5 18-1 2h-15l-10-4-9-7-8-8-7-11-7-14-4-12-6-7-5-2h-9l-10 5-3 3 1-5 7-8 9-4 16-4h3l1-10 6-29v-6l-4-9-4-5-1-6 5-4 4 1 4 5 4 4 1-14 4-9 5-4z" fill="#F9E843"/>
<path transform="translate(1161,616)" d="m0 0h17l14 4 10 6 10 9 7 8 9 14 9 19 9 27 6 25 4 23v3l-54-1-5-29-7-28-9-26-8-16-7-12-8-10-5-6-6-5v-2z" fill="#F6DAF8"/>
<path transform="translate(1234,1156)" d="m0 0h1v67l-2 56-3 46-5 46-1 7-1 1h-55l2-10 22-73 32-107z" fill="#99199B"/>
<path transform="translate(1309,943)" d="m0 0 7 1 10 8 10 9 10 10-2 5-10 8-12 11-11 9-5 5h-2v2l-16 14-5 5-11 9-5 5h-2l-1 3-4 1v2h-2v2h-2l-1 3-11 9-12 11-6 4-2 4-2-1-13-48 1-2h3l5-3 1-4 13-12 3-1v-2l11-9 12-11h4v-3l4-4 5-1v-3l7-7 4-3 3-1 6-7 3-1v-2l5-4h2l2-4 4-3h4z" fill="#F5CC46"/>
<path transform="translate(892,931)" d="m0 0h12l9 3 10 6 6 7 4 8 2 6v13l-3 11-5 10-6 7-10 7-13 5-12 2-13 4-12 7-11 10-7 1-5-3-9-9v-9l7-8 7-10 6-13 4-21 7-14 9-10 12-7z" fill="#FDFDFD"/>
<path transform="translate(1098,615)" d="m0 0h21l10 3-1 3-13 9-12 12-10 14-10 19-7 19-6 21-5 26-2 15h-37l-1-73 11-23 10-14 10-11 14-10 13-6z" fill="#F6DAF8"/>
<path transform="translate(390,534)" d="m0 0 121 1v7l-4 15-8 17-11 12-8 6-13 6-9 2h-23l-14-3-11-6-8-7-7-11-4-12-2-14v-9z" fill="#AA37CF"/>
<path transform="translate(399,376)" d="m0 0h25l-1 9-14 63-2-3-3 1h-16l-18-1-28-1-8-1-32-1-1-4 3-3 3-5 16-17 5-5 1-5 1 2 8-7 9-10 11-11z" fill="#F2BB4A"/>
<path transform="translate(809,898)" d="m0 0h141l4 5v20l-1 44-2-1v25l-2 2-12-8-2-12-1-12-4-11-7-9-11-7-8-2h-12l-10 2h-5l-5 4-7-1-14-9-42-28z" fill="#81CFFC"/>
<path transform="translate(768,1049)" d="m0 0h17l11 4 9 7 7 8 4 8 1 5v18l-4 11-7 9-7 6-11 5-4 1h-16l-11-4-9-6-6-7-6-12-1-5v-14l2-9 7-11 9-8 10-5z" fill="#7EBEFC"/>
<path transform="translate(939,436)" d="m0 0 72 3 42 2h25l9 8 22 18 10 8-1 3h-15l-46-2-35-2h-16l-7-1h-19l-11-1-9-1h-9l-4-1-2 1-6-27z" fill="#F1BB4A"/>
<path transform="translate(961,536)" d="m0 0 3 4 7 11 8 10 3 4 3 87 1 34v58l-1-2h-2l-3-5-17-11-6-4-3-1v-148l5-13z" fill="#52D2FD"/>
<path transform="translate(1104,607)" d="m0 0h9l12 2 12 5 9-2 13-3h21l14 4 12 7 10 9 9 10 9 14 10 21 10 30 6 26 3 18v7h-6l-2-4-5-28-7-27-7-20-10-21-9-13-9-10-9-7-10-5-11-3h-17l-10 2h-4l4 5 6 5 10 13 10 17 8 19 8 25 6 26 5 32 2 21v15l-5 1-2-2-4-40-5-29-6-25-9-27-11-23-10-14-11-11-6-3-14 9-10 9-7 8-9 14-8 16-7 19-6 23-5 30-2 4h-6v-8l5-29 6-22 6-17 9-19 10-15 11-12 10-9 8-5 1-2-10-2h-21l-15 4-16 8-13 10-9 10-10 16-9 19h-1v-18l11-18 13-15 11-9 14-8 13-5z" fill="#8C2379"/>
<path transform="translate(836,532)" d="m0 0 1 3h2l-2 20-5 16-5 10-9 10-9 6-9 3h-18l-11-4-8-6-8-9-6-13-4-14-2-19h93z" fill="#F5CD45"/>
<path transform="translate(512,531)" d="m0 0 1 4h94v9l-3 17-5 13-6 10-6 7-10 6-9 3h-17l-12-4-9-7-7-9-6-13-4-15-1-7z" fill="#F2BC4A"/>
<path transform="translate(304,433)" d="m0 0v3l-2 2v3l36 1 4 1 28 1 18 1h16l4-1v8l-7 32h-8l-1 1h-11l-84-4-26-1-4-2-1-3 3-5 11-12 11-11 7-8z" fill="#F5CC46"/>
<path transform="translate(1035,803)" d="m0 0 5 2 20 20 8 11v17l5 12 7 11 11 12 13 10 15 9 19 9 17 6-1 8-6 16-8 15-6 7-5-2-12-8-13-11-9-9-13-17-12-21-8-20-5-18-1-4-8-5-7-11-2-4v-8l5-11-10-11z" fill="#F6A371"/>
<path transform="translate(425,328)" d="m0 0h11l3 1 5-1 1 3 1 40 1 4-48 2-41 1-17 17-7 8-4 2v-17l3-16 8-16 8-10 10-7 9-4 19-3z" fill="#181148"/>
<path transform="translate(419,1258)" d="m0 0 30 2 2 2h-4l-1 3v142l-32 1-3-3-2-5-1-6 1-24 5-64 4-44z" fill="#181047"/>
<path transform="translate(420,1225)" d="m0 0h1l1 10-4 38-7 82-2 31v8l2 9 6 11 12 19v2l-4-2-27-18-5-4-4-8-1-5 2-3-1-19-9-108 1-11 1-3 9-2 17-4 11-4z" fill="#F6A371"/>
<path transform="translate(818,590)" d="m0 0h11l12 3 10 5 9 8 5 10 1 11-3 10-7 9-9 6-9 4-11 2h-11l-16-4-10-6-7-7-4-8-1-3v-12l4-9 7-9 15-2 12-6z" fill="#81D0FC"/>
<path transform="translate(723,1181)" d="m0 0h201v22l-74 1h-127l-2-2v-19z" fill="#BFEDFE"/>
<path transform="translate(340,1253)" d="m0 0 18 1h19l-1 17-7 82-2 30v13l1 7 2 1 6 12 11 18h-3l-31-21-6-9-1-6 2-3-1-5v-12l-9-108v-8z" fill="#F6A371"/>
<path transform="translate(434,1181)" d="m0 0h201l1 1v20l-1 1-116 1h-84l-2-1v-21z" fill="#BFE5FB"/>
<path transform="translate(955,508)" d="m0 0 10 2 112 5h16v-1h7l2 2 41 2h28l11 9 8 6v2h-230l-4-15-1-5z" fill="#F9E943"/>
<path transform="translate(722,833)" d="m0 0h202v21l-1 1h-201l-1-2v-19z" fill="#BFEEFF"/>
<path transform="translate(434,833)" d="m0 0h201l1 1v20l-1 1h-201l-1-1v-20z" fill="#BFEEFF"/>
<path transform="translate(580,372)" d="m0 0h39l-1 21-2 29-2-1-5 1-65-3-16-1-3-2 2-22 2-18 1-2 5-1z" fill="#EEA74F"/>
<path transform="translate(1241,1133)" d="m0 0 25 5 7 1h33l13-1 3 27v17l-13 1-26 4-21 4-24 4h-3v-41z" fill="#171046"/>
<path transform="translate(420,1158)" d="m0 0h7l5 4 34 13 4 3v2h9v1l-45 1-1 21h202v1l-85 1-5 1 10 5 23 9 4 4-2 1h-160z" fill="#53D3FD"/>
<path transform="translate(755,998)" d="m0 0 4 1 109 109-1 5-3 3-4-1-32-32-1 17-4 12-7 11-8 8-10 6-13 4h-17l-13-4-10-6-8-7-7-11-4-10-1-6v-15l4-13 7-12 7-7 10-6 10-4 4-1 16-1-33-33 2-5zm13 51-9 3-10 6-8 9-5 10-1 6v14l3 10 7 11 8 7 11 5 4 1h16l11-4 9-6 7-8 5-10 1-4v-18l-3-9-6-9-9-8-8-4-6-2z" fill="#F9FBFD"/>
<path transform="translate(378,1254)" d="m0 0h4l-1 14 10 120v7l-2 4 3 9 4 5 16 10 11 8 8 5 8 1 1 1v6l-1 1h-22l-6-5-9-11-6-5h-5l-3 13h8l2 2v5l-1 1h-22l-7-6-9-11-5-4h-5l-2 6-2 15-4-1-4-25v-10l4-7 3-3 3 1 3 8 4 5 27 18 5 3-6-10-1-6v-8l1-3-12-4-2-7v-13l5-67 5-55z" fill="#1D114A"/>
<path transform="translate(583,930)" d="m0 0 15 1 16 6 9 7 7 7 8 14 3 12v15l-4 14-6 11-3 2-75-75 2-4 14-7z" fill="#FDFDFD"/>
<path transform="translate(517,486)" d="m0 0h2v3l4 1 81 4h5l1-4v18l-2 27h-95v-13z" fill="#F9E843"/>
<path transform="translate(544,951)" d="m0 0 7 6 69 69-1 3-16 8-9 2h-14l-12-3-12-6-10-9-6-8-3-5-4-13-1-13 2-12 5-12z" fill="#FDFDFD"/>
<path transform="translate(321,1108)" d="m0 0 2 4 13 78 4 33v33l-1 6 1 20 8 96v12l-4-2-9-12-6-12-4-14-1-5-1-33-2-135z" fill="#191148"/>
<path transform="translate(1313,1306)" d="m0 0h7l-1 17-5 46-4 28-3 16-3 4-1 7 5 14 2 9-1 5-5 3-21 1-5-5 3-14 5-9 2-3 1-6-3-5-1-64v-34l2-5 6-2z" fill="#282F79"/>
<path transform="translate(208,550)" d="m0 0 2 2 4 10 8 1h17l10 1 44 2h15l6 1 48 1 1 3-10 9-14 9-14 6-13 4-14 2h-17l-21-3-16-5-13-7-10-9-6-7-6-13z" fill="#F4CC46"/>
<path transform="translate(683,599)" d="m0 0h9v142l-4-3v-2l-5-2-16-11-1 85h-1v-208z" fill="#4EBDFC"/>
<path transform="translate(1221,851)" d="m0 0 5 1 14 5 16 5-1 7-4 8 6-2h5l1 1v6l-6 4-4 1-2 9 11-2 14 40v5l-7 3-5 1h-13l-11-4-6-4-2-3-4-28-11-1-6-4-3-6 1-11 5-15z" fill="#F6A371"/>
<path transform="translate(666,977)" d="m0 0 22 14 3 3 1 35v129l-2-1 1-25-4-2-11-7-9-7-1-1z" fill="#489CFC"/>
<path transform="translate(509,809)" d="m0 0h123l15 1 4 4 13 7 3 11v41l-2 3-7-1v-3l-5-1-19-10-4-2v-2l-3-1 7-1 1-1v-22h-60l-9-6-16-8-9-5 3-2-35-1z" fill="#4EBEFD"/>
<path transform="translate(1357,1017)" d="m0 0h9l6 2 5 16 1 6v21l-4 13-6 10-9 8-8 1-5-5-9-11-2-5-6 9-5 6h-1v-69l5 5 3 4v2l14-9z" fill="#F18E7C"/>
<path transform="translate(399,824)" d="m0 0h10l7 8 6 13 3 13v10l-3 8-5 4-3 1h-8l-4 28-4 6-3 3-3 1h-17l-5-3v-4l-2-1h3l1-10 6-29v-6l-4-9-4-5-1-6 5-4 4 1 4 5 4 4 1-14 4-9 5-4z" fill="#F6A371"/>
<path transform="translate(933,410)" d="m0 0 28 1 6 1 31 1 42 2h6l13 11 14 11 3 3v2h-23l-109-5-5-1-1 3-5-22z" fill="#EEA74F"/>
<path transform="translate(1335,1071)" d="m0 0 1 4 10 13 5 5h6l-3 3-14 6-16 3v2l-2 1-3 29-13 3h-33l-23-4-9-3 3-11 1-1h23l2-6 5-8h-38v-1l40-1 6-9 30-1 6-4 3-1v-7l2 4 8-11z" fill="#F6A271"/>
<path transform="translate(735,427)" d="m0 0h14l60 3h16l1 1 3 27v8l-2-2-1 1h-18l-19-1-12-1h-16l-16-1-7-2-1 5h-1l-1-14z" fill="#F1BB4A"/>
<path transform="translate(525,416)" d="m0 0 3 1 56 3 30 1 1-2v18l-2 28h-1v-10h-23l-25-1-8-1h-19l-12-1-3-3v-9z" fill="#F1BB4A"/>
<path transform="translate(740,499)" d="m0 0 5 1 26 1 1-1h7v1l5 1 44 2 4-1 2 1 2 18v13h-95l-1-12z" fill="#F9E843"/>
<path transform="translate(732,1225)" d="m0 0h215l10 23v3l-23 2-36 2h-31l1-4-11-8-20-13-3-1-17-1v-2l-5 1-1 2-4-2-75-1z" fill="#489BFB"/>
<path transform="translate(527,1034)" d="m0 0 7 1 3 4v7l-11 13-8 10-11 13-8 10-14 17-11 13-4 3-5 2-9-1-5-3-5-6-1-2v-11l4-7 11-9 51-42 14-11z" fill="#FCFDFD"/>
<path transform="translate(1222,822)" d="m0 0h7l7 6 4-1 4-4 3-1h8l6 4 3 4 1 7h11l7 4 4 8v8l-2 6 5 4 1 8-4 5-10 1-10 9-11 6-5 1-1-4 3-7 8-3 1-1v-6l-11 1 1-4 4-11-16-4-14-5-8-6-3-7 1-9 3-6z" fill="#1D1954"/>
<path transform="translate(697,331)" d="m0 0h33l5 3 3 6-1 6-4 5-3 1-112 7h-7l-4-2-3-7 2-9 4-3 25-3 40-3z" fill="#E28DF0"/>
<path transform="translate(1278,1223)" d="m0 0h1l3 31 2 32 2 64v30h-36l4-18 9-42 7-39 5-37 2-20z" fill="#991B9C"/>
<path transform="translate(427,1158)" d="m0 0h116l7 4 30 12 6 5 48 1v1h-155l-9-1-4-4-36-14z" fill="#4EBEFD"/>
<path transform="translate(399,376)" d="m0 0h25l-1 9-6 27-8 1-67-3-10-1-3-2 1-4v2l8-7 9-10 11-11z" fill="#EEA74F"/>
<path transform="translate(1316,1237)" d="m0 0 6 1 1 3v26l-2 34-1 5-27 4-6 2-2 4-1-5-2-43-1-23 7-3z" fill="#202263"/>
<path transform="translate(350,977)" d="m0 0 4 5 12 13 8 8 8 6 3 1v2l7 2 7 3 18 4-2 9-6 18-7 3-10 2h-13l-14-3-12-5-3-2 3-26v-14l-3-21z" fill="#F4CB46"/>
<path transform="translate(1263,1246)" d="m0 0h11l1 1-1 13-6 39-3 16-2 2-4-1-24 4-5 4v-12l3-56 2-4 17-4z" fill="#202263"/>
<path transform="translate(421,876)" d="m0 0 114 1v1l-13 1 2 4 14 9 6 4v1l-135 1-4 3-1 7h-2l1-12 2-15 2-1h7l6-3z" fill="#489CFC"/>
<path transform="translate(827,580)" d="m0 0h8l15 5 11 7 7 7 6 10 2 6v18l-7 14-6 7-10 7-11 5-8 2h-24l-13-4-11-6-10-9-6-10-3-10v-11l4-11 6-9 12 2-2 4-6 8-2 6v12l4 9 7 8 10 6 16 4h11l14-3 11-6 6-5 5-8 2-8-1-11-5-10-8-7-10-5-12-3-10-1 6-8z" fill="#FAFCFE"/>
<path transform="translate(1035,803)" d="m0 0 5 2 20 20 8 11v17l5 12 7 11 11 12 5 5v37l-2 5-5-5-9-12-10-18-8-20-5-18-1-4-8-5-7-11-2-4v-8l5-11-10-11z" fill="#F18E7B"/>
<path transform="translate(733,400)" d="m0 0 12 2 33 1 35 2 9-1 2 8 1 18-3 1h-13l-64-3-10-1v9h-1l-1-14z" fill="#EEA74F"/>
<path transform="translate(501,922)" d="m0 0h2l-1 7-4 4-2 1-1 3 15-2 13-7 4-3 3 1-1 9-6 10-10 6-4 1h-18l-1 8-6 16-7 13-9 11-10 9-5 2-2-3h3l-13-12-4-4h-4l-2-3 16-5 10-6 7-7 8-13 10-25 7-6 10-3z" fill="#F6A371"/>
<path transform="translate(1234,1156)" d="m0 0h1v67l-2 56-1 18h-2v-2h-2l-1-9-5-5-15-9h-6l-1 6h-1l1-9 33-110z" fill="#B01882"/>
<path transform="translate(636,1183)" d="m0 0h1v16h6l19 8 5 2v13l-3 3h-84l-2-4-32-13-2-3 6-1h85z" fill="#4EBEFD"/>
<path transform="translate(1190,534)" d="m0 0 3 2-5 6h-4v-2l-4 1-25 1-7 1h-19l-25 1h-15l-3 1h-19l-7 1h-17l-22 1-6-1v2l-44 1-4-2-6-12z" fill="#F2BC49"/>
<path transform="translate(777,809)" d="m0 0h103l5 5 11 7 12 8 1 3h-92l-7-6-19-12-1-2 4-1-17-1z" fill="#4EBEFD"/>
<path transform="translate(788,1158)" d="m0 0h91l5 4 15 9 7 4 2 5h15v1h-100l-6-2-4-4-14-8-9-6z" fill="#4EBEFD"/>
<path transform="translate(434,1181)" d="m0 0h65l3 3 40 16 4 3-27 1h-84l-2-1v-21z" fill="#BFEDFE"/>
<path transform="translate(580,372)" d="m0 0h39l-1 21-1 15h-1l-1-11-83-4-4-1 1-16 1-2 5-1z" fill="#EC9954"/>
<path transform="translate(880,809)" d="m0 0h75l1 1v29l-1 13-3 5-11-6-11-7-5-1-1-9-1-1-14-1-5-5-22-14v-2l-3-1z" fill="#4BACFD"/>
<path transform="translate(836,532)" d="m0 0 1 3h2l-2 20-4-1-7 1-69 3-9-2-1 2-2-4-2-19h93z" fill="#F2BB4A"/>
<path transform="translate(772 1e3)" d="m0 0 5 1 32 19 10 7 22 22 19 32 6 10-1 4-3 1-8-7-83-83v-5z" fill="#F8FBFD"/>
<path transform="translate(1219,1413)" d="m0 0 16 3 1 13 1 7v11l-4 5-3 1-25 1h-44v-4l5-5 32-15 18-8z" fill="#2C307B"/>
<path transform="translate(1323,1030)" d="m0 0h1v29l-1 24-1 7-9 6h-30l-2 4-4 6h-23l5-6 8-7 14-12 11-10 8-7 10-9 8-7 4 1z" fill="#EEA74F"/>
<path transform="translate(838,833)" d="m0 0h86v21l-1 1h-57l-22-14-5-4z" fill="#BFE5FB"/>
<path transform="translate(1098,581)" d="m0 0h38l-3 3-19 8-17 5-17 3-9 1h-19l-18-3-16-6-10-5 1-3h16z" fill="#F9E843"/>
<path transform="translate(838,1181)" d="m0 0h86v22h-54l-3-3-10-5-16-10z" fill="#BEE4FB"/>
<path transform="translate(692,1111)" d="m0 0 7 6 16 10 42 28v2h-65z" fill="#7CB1FC"/>
<path transform="translate(924,1182)" d="m0 0h1l1 7 4-2 6 12 10 23v3h-54l-2-4-13-8-9-6v-2l4-1 51-1z" fill="#4FBEFC"/>
<path transform="translate(1247,822)" d="m0 0h8l6 4 3 4 1 7h11l7 4 4 8v8l-2 6 5 4 1 8-4 5-8 1-6-9-9-11-11-14-8-10-5-7 1-4 3-3z" fill="#202263"/>
<path transform="translate(523,575)" d="m0 0 36 1h21l11 1h3v2l2 1-8 10-9 6-11 4h-17l-12-4-9-7-7-9-1-4z" fill="#F5CD46"/>
<path transform="translate(379,866)" d="m0 0 7 6 11 6 9 2-4 29-4 6-3 3-3 1h-17l-5-3v-4l-2-1h3l1-10z" fill="#F08E7C"/>
<path transform="translate(1317,1109)" d="m0 0h4v9l-2 19-13 3h-33l-23-4-9-3 3-11h24l1 4 3 1 16-1 2-4 20-1 4-5 1-6z" fill="#EC9954"/>
<path transform="translate(356,1027)" d="m0 0 12 1 31 3 14 3-3 11-2 4-16 4h-13l-14-3-12-5-3-2 2-15z" fill="#F1BA4B"/>
<path transform="translate(1123,1202)" d="m0 0h40l-2 14-3 15-1 1h-34z" fill="#B21984"/>
<path transform="translate(428,937)" d="m0 0 5 2 7 6 20 13 5 3 4 2-2 5-9 10-9 6-11 4-10 1 5-20v-12l-3-12-2-5z" fill="#7CB1FC"/>
<path transform="translate(1042,1202)" d="m0 0h36v30h-36z" fill="#9D1C9D"/>
<path transform="translate(939,436)" d="m0 0 72 3 42 2h25l6 5 1 4h-18l-39-2-51-2-38-2z" fill="#F1B353"/>
<path transform="translate(1278,1223)" d="m0 0h1l3 31 2 32 1 25v22l-2 2-2-5-2-13-6-4h-5l-4 15h-1v-8l7-39 5-37 2-20z" fill="#AC1880"/>
<path transform="translate(998,1202)" d="m0 0h36l1 1v29h-32l-5-25z" fill="#282E79"/>
<path transform="translate(953,1202)" d="m0 0h37l3 13 3 16-1 1h-30l-7-15-5-12z" fill="#499CFB"/>
<path transform="translate(785,704)" d="m0 0h7l10 4 7 7 3 5 5-5h9l5 6v7l-4 5-2 1h-7l-6-5-2-4-4 4-5 2h-10l-10-4-4-5-1-2v-8l5-6z" fill="#FBFDFD"/>
<path transform="translate(209,535)" d="m0 0h180l-2 6-4 3-43-1-98-4-33-2z" fill="#F1B352"/>
<path transform="translate(1170,1202)" d="m0 0h35l-4 16-4 13-1 1h-31l1-11z" fill="#B31A85"/>
<path transform="translate(344,1399)" d="m0 0 3 1 3 8 4 5 27 18 5 3 2-2v5h8l2 2v5l-1 1h-22l-7-6-9-11-5-4h-5l-2 6-2 15-4-1-4-25v-10l4-7z" fill="#1F1650"/>
<path transform="translate(1035,803)" d="m0 0 5 2 20 20 8 11v9l-1 10-4 4-7-1-8-5-7-11-2-4v-8l5-11-10-11z" fill="#F6A271"/>
<path transform="translate(1042,1239)" d="m0 0h36v26h-36z" fill="#9A1A9C"/>
<path transform="translate(1085,1202)" d="m0 0h31v29l-1 1h-30z" fill="#9B1A9C"/>
<path transform="translate(1318,1037)" d="m0 0h4l1 5v10l-1-3-5 1-13 12-8 7-10 9-8 7-14 12-6 5-4 4-10-1 3-5 9-9 11-9 13-12 8-7 10-9 11-9 7-7z" fill="#F2B453"/>
<path transform="translate(1124,1175)" d="m0 0h44l-2 14-2 6h-41v-14z" fill="#B31A85"/>
<path transform="translate(410,1042)" d="m0 0 2 3 5 17 2 15v41h-1l-1-33-5-2-28-21-5-4-1-5-3-1h17l16-4z" fill="#B21883"/>
<path transform="translate(941,1175)" d="m0 0h44l4 20h-40l-7-15z" fill="#4CACFC"/>
<path transform="translate(512,531)" d="m0 0 1 4h94v9l-2 2-83-3-9-1-1-3z" fill="#EEA74F"/>
<path transform="translate(1122,1239)" d="m0 0h34l-1 9-3 16-1 1h-29z" fill="#9B1A9B"/>
<path transform="translate(994,1175)" d="m0 0h40l1 1v19h-39l-3-13v-6z" fill="#282E79"/>
<path transform="translate(1085,1239)" d="m0 0h30v26h-30z" fill="#99199C"/>
<path transform="translate(1163,1239)" d="m0 0h31l-4 16-4 10h-28z" fill="#B21884"/>
<path transform="translate(1175,1175)" d="m0 0h38l-2 10-4 10h-35l1-11z" fill="#B31A85"/>
<path transform="translate(1042,1175)" d="m0 0h36v20h-36l-1-19z" fill="#9E1D9D"/>
<path transform="translate(1e3 1239)" d="m0 0h30v26h-25l-2-6-3-16z" fill="#282E79"/>
<path transform="translate(850,702)" d="m0 0h8l6 4 3 4v8l-4 6-7 4-5 1h-9l-8-4-2-3v-6l4-6 9-6z" fill="#FBFDFD"/>
<path transform="translate(1302,1425)" d="m0 0 2 1 5 17 1 8-3 3-3 1-21 1-5-5 3-14 5-9 3-2v3l11-1z" fill="#252467"/>
<path transform="translate(807,734)" d="m0 0h9l4 4 1 2v8l-4 10-7 7-2 1h-9l-6-4-2-4v-7l5-9 7-6z" fill="#FBFCFD"/>
<path transform="translate(831,732)" d="m0 0 9 1 9 7 5 8v10l-4 5-3 2h-8l-6-4-5-6-3-7v-11z" fill="#FCFDFD"/>
<path transform="translate(817,678)" d="m0 0h9l6 5 2 5v12l-5 10-4 3h-7l-5-4-4-8v-13l3-6z" fill="#FCFDFD"/>
<path transform="translate(399,376)" d="m0 0h25l-1 9-2 4v-2l-5 1-28-1-35-2-12 12v-3l17-17zm-60 21m-1 1m-1 1m-1 1m-1 1m-1 1m-5 1 1 2 2 1-3 1z" fill="#EB9954"/>
<path transform="translate(1323,1019)" d="m0 0 5 5 6 10 4 14v14l-4 12-7 11-4 3z" fill="#9D1B9C"/>
<path transform="translate(329,407)" d="m0 0 13 2 69 3 5-1-1 10-5-1-33-1-42-2-11-2 1-4z" fill="#F1B353"/>
<path transform="translate(525,416)" d="m0 0 3 1 56 3 30 1 1-2v18h-1v-9l-3 1h-12l-39-2-26-1-7-1h-3z" fill="#F1B353"/>
<path transform="translate(735,427)" d="m0 0h14l60 3h16l1 1v8l-2-1h-21l-49-2-15-1-4-3z" fill="#F1B353"/>
<path transform="translate(512,539)" d="m0 0 1 3 41 1 51 2 1 1v5h-2v2l-47-2-34-1-9-1-1 2z" fill="#F2B353"/>
<path transform="translate(978,1239)" d="m0 0h19l3 12 2 10v4h-23l-8-18 2-4z" fill="#282E79"/>
<path transform="translate(1085,1175)" d="m0 0h32v10l-1 10h-31z" fill="#B31984"/>
<path transform="translate(623,572)" d="m0 0 8 1 31 14 17 7 5 4-1 2h-20l-14-4-12-7-12-12z" fill="#AB39CF"/>
<path transform="translate(392,1409)" d="m0 0 6 5 15 10 14 10 4 2 8 1 1 1v6l-1 1h-22l-6-5-9-11-6-5-5-1-1-8z" fill="#262366"/>
<path transform="translate(1e3 1424)" d="m0 0 9 1 6 5 2 6-1 7-4 6-4 2h-10l-6-4-3-7 1-8 5-6z" fill="#202264"/>
<path transform="translate(1145,1424)" d="m0 0 9 1 5 4 3 9-2 7-7 6h-10l-6-4-3-7 1-8 5-6z" fill="#202264"/>
<path transform="translate(1244,899)" d="m0 0h2v41l-6-1-6-4-2-3-4-29z" fill="#F08E7B"/>
<path transform="translate(1042,1272)" d="m0 0h36v15h-36z" fill="#9E1D9D"/>
<path transform="translate(1143,1419)" d="m0 0h9l8 4 5 7 1 3v10l-4 7-6 5-9 2-10-3-7-8-1-3v-10l4-8 7-5zm2 5-6 3-4 5-1 8 4 8 5 3h10l7-6 2-7-3-9-5-4z" fill="#488FFB"/>
<path transform="translate(1e3 1419)" d="m0 0h9l8 4 4 5 2 5v10l-3 6-7 6-9 2-10-3-6-7-2-4v-10l4-8 7-5zm2 5-6 3-4 5-1 8 4 8 5 3h10l6-4 3-7-1-8-5-6-5-2z" fill="#488FFB"/>
<path transform="translate(364,779)" d="m0 0 6 2 17 11-1 5 1 2-10 5-8 9-3 3h-3v-12l1-7v-4z" fill="#479BFB"/>
<path transform="translate(599,833)" d="m0 0h36l1 1v20l-2 1-2-1v-2l-9-3-16-8-8-6z" fill="#BFE5FB"/>
<path transform="translate(363,1420)" d="m0 0 5 2 17 12 3-2v5h8l2 2v5l-1 1h-22l-7-6-8-10 2-8z" fill="#262466"/>
<path transform="translate(1085,1272)" d="m0 0h30v13l-1 2h-29z" fill="#9D1C9D"/>
<path transform="translate(1362,999)" d="m0 0 4 1 5 13 1 6-6-1h-9l-14 5-10 7-2-1 4-7 13-12 8-7z" fill="#F1B352"/>
<path transform="translate(958,1176)" d="m0 0h8l17 11 5 4 1 4h-33v-5-3z" fill="#489CFC"/>
<path transform="translate(1122,1272)" d="m0 0h28l-2 13-1 2h-26z" fill="#9D1C9D"/>
<path transform="translate(1157,1272)" d="m0 0h27l-2 9-2 7-26-1z" fill="#9F1D9C"/>
<path transform="translate(1244,1122)" d="m0 0h24l1 4 3 2h-2l-2 4-3 4 1 2-11-1-12-3-2-1z" fill="#EEA750"/>
<path transform="translate(1164,1247)" d="m0 0 7 1 12 8 3 6v3h-28l3-17z" fill="#9A199B"/>
<path transform="translate(1012,1272)" d="m0 0h23v15h-21l-3-13z" fill="#282E79"/>
<path transform="translate(983,1272)" d="m0 0h20l2 5 1 10h-17l-6-13z" fill="#282E79"/>
<path transform="translate(535,1018)" d="m0 0 4 2 14 14-1 4-4 4-4-1-14-14 1-5z" fill="#F7FBFD"/>
<path transform="translate(1e3 1425)" d="m0 0h5l-1 25h-5l-5-5-2-5 1-8 5-6z" fill="#1B1A56"/>
<path transform="translate(838,539)" d="m0 0h2l4 18 7 14v3l-7-3-11-3 4-19z" fill="#81CDFC"/>
<path transform="translate(1142,1425)" d="m0 0h5l-2 1 1 24-7-1-4-6-1-7 3-7z" fill="#1B1A56"/>
<path transform="translate(1311,1110)" d="m0 0h3l1 6-4 5h-20l5-10z" fill="#E28DF0"/>
<path transform="translate(380,1431)" d="m0 0 6 3 2-2v5h8l2 2v5l-1 1h-22l3-1v-12z" fill="#2C3079"/>
<path transform="translate(422,1431)" d="m0 0 9 5 8 1 1 1v6l-1 1h-22l3-1v-12z" fill="#2E317C"/>
<path transform="translate(1219,1413)" d="m0 0 16 3v8l-5 3h-10l-4-2 2-10z" fill="#F6A273"/>
<path transform="translate(794,593)" d="m0 0h15l3 2-8 4-4 1h-18l-9-3v-2l4-1z" fill="#F9E743"/>
<path transform="translate(1048,1176)" d="m0 0h29v19l-3-1-2-7-10-6-14-4z" fill="#B21782"/>
<path transform="translate(941,1175)" d="m0 0h44l3 16-22-14-25-1z" fill="#57ADFC"/>
<path transform="translate(998,1202)" d="m0 0h36l1 1v29h-32v-1h28v-28h-33z" fill="#A525A8"/>
<path transform="translate(1154,1426)" d="m0 0 5 3 3 9-2 7-5 5h-2l-1-2v-19z" fill="#282F79"/>
<path transform="translate(350,977)" d="m0 0 4 5 12 13 2 4-10 1-3-1-1 3-4-20z" fill="#F8E045"/>
<path transform="translate(1289,1416)" d="m0 0h15l-1 9-3 4h-11l-1-4z" fill="#F19081"/>
<path transform="translate(1013,1426)" d="m0 0 4 2 3 4 1 8-4 8-5 2v-23z" fill="#282F79"/>
<path transform="translate(1216,833)" d="m0 0 7 6v2h2l8 11v2l2 1-9-2-8-6-3-7z" fill="#181047"/>
<path transform="translate(1087,1203)" d="m0 0h29l-1 24h-1l-2-12-3-5-11-4-9-1z" fill="#B11782"/>
<path transform="translate(350,1409)" d="m0 0 7 6 6 4-2 9-5-2-2-2-5-1-1-8z" fill="#221C5A"/>
<path transform="translate(392,1409)" d="m0 0 6 5 6 4-1 8-3 1-4-3-5-1-1-8z" fill="#241C5A"/>
<path transform="translate(1320,1317)" d="m0 0h1l3 21v5h-3l-1 4h-2l-1 3-1-1 1-15 2-15z" fill="#AC1881"/>
<path transform="translate(953,923)" d="m0 0h1v67l-2 2-1-1-1-25 2-1z" fill="#7EC1FD"/>
<path transform="translate(1031,1239)" d="m0 0h4v26h-4z" fill="#9C1B9D"/>
<path transform="translate(1366,1007)" d="m0 0 3 4v2h2l1 6-6-1h-11l2-4 7-6z" fill="#EEA84F"/>
<path transform="translate(1288,1426)" d="m0 0 1 3h9v1h-7l-2 5-6 8-3 10-2-3 3-13 5-9z" fill="#37327E"/>
<path transform="translate(1124,1220)" d="m0 0 9 4 2 3-4 2-4-1-3-1 2 3 31 1v1h-34v-11z" fill="#A825A0"/>
<path transform="translate(991,1214)" d="m0 0 2 1 3 16-1 1h-10l1-4z" fill="#372B7D"/>
<path transform="translate(1257,885)" d="m0 0 4 1 2 6-7 4-5 1-1-4 3-7z" fill="#20124B"/>
<path transform="translate(1219,1413)" d="m0 0 5 1v12l-4 1-4-2 2-10z" fill="#EF8C7E"/>
<path transform="translate(1302,1416)" d="m0 0 2 1-2 10-2 2h-5l1-12z" fill="#F6A273"/>
<path transform="translate(1031,1175)" d="m0 0 4 1v19h-4z" fill="#A523A0"/>
<path transform="translate(1115,1208)" d="m0 0h1v23l-1 1h-30v-1l26-1 1-3h3z" fill="#BD31A0"/>
<path transform="translate(1138,1430)" d="m0 0 2 3v14h-3l-3-7 1-8z" fill="#18144C"/>
<path transform="translate(997,1430)" d="m0 0 2 3v10l-1 3-3-1-2-5 1-8z" fill="#18134C"/>
<path transform="translate(1030,1272)" d="m0 0h5v15h-4z" fill="#9C1B9C"/>
<path transform="translate(1249,860)" d="m0 0 7 2-1 7-5-1-2-2v-5z" fill="#F18E7C"/>
<path transform="translate(953,1202)" d="m0 0h37v1h-34v7l-2-2z" fill="#72B0FC"/>
<path transform="translate(1320,1087)" d="m0 0 2 1v2l-9 6h-9v-1h7l2-4 4-3z" fill="#EC9A54"/>
<path transform="translate(586,720)" d="m0 0 2 4 3 4-3 6-1 8-2 1z" fill="#7EBEFD"/>
<path transform="translate(1233,1012)" d="m0 0 2 2-7 7-2-2zm-8 8m-1 1 2 2-6 4v-3z" fill="#F6D744"/>
<path transform="translate(968,1239)" d="m0 0h10l-5 5h-3z" fill="#4A9BFB"/>
<path transform="translate(1258,990)" d="m0 0h2l-2 4-9 8-1-3z" fill="#F6D844"/>
<path transform="translate(607,538)" d="m0 0 2 3 2 8h-5z" fill="#5EBBFC"/>
<path transform="translate(1265,1313)" d="m0 0h2l-2 13-2 2v-8z" fill="#A41985"/>
<path transform="translate(890,927)" d="m0 0 5 1 4 3-13 1 4-4z" fill="#7EBFFD"/>
<path transform="translate(692,794)" d="m0 0 5 3-4 2v10h-1z" fill="#7EBEFD"/>
<path transform="translate(289,1538)" d="m0 0" fill="#FEFEFE"/>
</svg>
