<?xml version="1.0" encoding="UTF-8"?>
<svg version="1.1" viewBox="0 0 1600 1279" width="4500" height="3600" xmlns="http://www.w3.org/2000/svg">
<path transform="translate(1525,147)" d="m0 0 5 2 25 5 9 2v12l-35 423-16 191-11 130h-2v26l-8 100-6 74-6 69-2 4-25 6-13 3-103 2-1 2h17l65 4 52 5 37 5 31 6 17 5 12 6 4 4v6l-8 6-16 6-26 6-38 6-41 5-58 5-67 4-55 2h-262l-67-2-84-4-60-4-53-5-27-4-12-3-2-2-113 6-75 3-85 2h-106l-60-2-39-3-31-4-21-5-12-5-6-5-1-7 4-6 11-8 16-8 19-7 26-8 29-7 13-11 10-7 12-6 11-2 4-7h-2l-2-8-5-2-10-7 1-9 4-15 10-37 16-69-3 9-16 51-8 20-3 5h-2l-2-4-1-12-4-28-3-36v-27l7-11 10-13 12-14 19-19 11-14 1-9-4-31-3-21-4-29v-8l-27 3 19 1v13l-2 8-9 2-4 8-5 3-9 3-5 3-10 2h-12l-5 4-3 1h-7l-13-11-5-5-39 1-3-7-3-12v-6l6-1-1-6 6-2 5-1 19-1 1 6 11-1 18-18-1-6-5-1-4 1h-8l-6-3-4-6-1-3v-11l5-3h6l7 6 5 5 7 3h12l9-2 8 2 15 1h9l8-4 11-10 10-8 2-5h2l1-6 3-8 3-6h9l2-5 3-9h7l-4-1-6-2-2 5-1 7h-3l-5 1-4 6-6 19-4 2-8 1-1-1-4-42-2-30v-48l4-6 7-6 16-8 21-8 29-8 34-7 27-4 44-4h12l1-14-4 2-12-2-10-5-4-5-2-6-1-7v-10l3-8 3-3 3-1h7l8 3-3-9-8-18-1-4v-7l4-8 7-5 14-5 8-14 8-10 7-6 11-4h14l15 4 23 9 8 4 4 5 2 4 1 12 5 2 4 5v9l-3 9 1 7 2 1-3 9-3 13-2 14-1 30-5 12-13 20-10 13-6 5 5-2 8-7 9-10 13-14 9 1 28 7 26 9 18 8 23 12 3 3v21l-1 19-2 12-7 55-12 82-9 67v15l6 11 9 10 7 8 11 11 7 8 12 14 6 8v25l-3 32-5 33-7 33-8 30-7 21-9 1-7 10-6 4h-5v2l13 1 36 7 30 8 21 8 14 7 8 7 2 4v6l19-3-15-180-10-127-13-170-17-228-18-245-5-68v-11l45-12 79 6 61 5 79 6 150 12 11 1v20l45-13 8-1 2-2 37-10v-12l4-7 6-4 8-2 11 1 7 3 7 5 4 1h11l28-7 63-14 51-10 49-8 7-1zm-713 59v12l6 70 2 27 1 11 7 78 7 82 5 61 3 28h1v-53l9-3 20-8 28-9 28-4 65-6 49-4 3 23 4 36 2 29 10-1 28-7 23-8 2-1v-4l1 3 9-3 31-15v-2l-5 1-12 4-25 6v-27l-2-231v-35l1-4v-11l-4-8-4-3-32-5-54-6-60-5-74-5-54-3zm330 416m-3 1-26 13-16 7-16 5-19 4-10 2-2 18-1 13-5 1-28 12-26 7-38 8-51 9-26 4h-4l-12-29-6-15-1 4 10 112 21 240 15 166 1 7h7l10-2h9l57-5 63-4 1-1h15v-2l24 1-5 3-1 5 1 2 7-1 17-7v-2l6-1 5-3v-2h5l22-13 11-8-1-2-6 1-16 8-17 7-10 3-3 1h-6l4-66v-15l1-3 5-110 4-122 2-81 2-130 1-3 6-4 2-4v-10l14-11 7-5v-2zm295 2-6 3-3 5v9l5 6 5 2 7-1 5-4 2-4v-7l-3-5-3-3zm-1120 377 1 4zm1006 193-3 2h11l-1-2zm-22 1v1h17v-1z" fill="#D5E6F3"/>
<path transform="translate(1300,293)" d="m0 0h14l8 3 10 6 11 8 9 1 1 2 1 13 6 18 24 8 4 1 17-8 13-4 5-1h16l8 3 12 7 10 9 8 14 3 12v18l-3 12-6 11-8 9-8 5h-2l-2 4 10 5 4 6-1 9-6 8-8 6-8 3h-10l-6-3-2-2-4 1-4 5-4 18 5 2v24l-3 39-4 44-2 24 16 1 2 8 4 5 5 2 7-1 5-5 1-2v-7l-3-5-5-3h-9l5-5 6-2h16l6 3 6 7 1 3v19l-2 10-6 15-7 13-8 10-6 4h-12l-5-6-5-17h-3l-4 3h-2l5 29 10 40 9 30-9 3-11 6-8 8-8 15-5 17-3 20-1 15v32l2 34 8 89 1 16v41l-2 14-3 10-5 8-2 2-1 4v8l2 8 8 14 10 25 5 18v5l-26 1-67 1h-30v10l-13 2h-40l-8-4-5-1 2 14v11h-52l-4-5h-9l-18 6-17 3h-31l-24-2-16-3-6-3 1-4 5-3 29-10 18-7h2v-2l7-3 4-1v-2l9-3 21-13 7-5-4-1-16 8-16 7-13 4-3 1-6-1v-14l3-57v-10l1-3 5-110 4-122 2-81 2-130 2-4 5-3 2-4v-10l11-9 9-7h2v-2l-12 5-4 3-26 12-15 5-23 5-10 1-1 18-1 11-1 2-33 14-26 7-38 8-51 9-26 4-5-1-12-29-6-17-5-58-3-35v-65l16-7 28-10 18-5 33-4 69-6 26-2h9l3 16 4 31 2 26v15l31-7 30-10h2v-4l2 1-1 2 22-10 38-19 15-7 18-6 4-5 2-5v-14l-4-16 1-1h7l9 1 3-5 8-1 3-14h-26l-8-4-5-6-1-6 4 5 3 3 9 2 22 1 26-2 22-5 4-1-1 7-4 16 6 1-1 6-7 19v13l5 21 3 20 1 17-1 4 17-9 29-11 3-3 1-27 3-6 7-3 14-2 3-16-2 1h-15l-9-2-10-6-6-10-1-4v-17l2-9 9-9 6-12-1-8-6-5-8-2-11 1-11 7-5 3-4-1 1-6 2-5 1-7 9-8 3-6v-13l-4-10-2-3-18-3 1 2v13l-2 4-11-16-5-4-16-4-13-4-4-2-1 7-4 9 4-1-1 15-2 6-5-1-5-3-6-2 1-2-7-1v-5l8-10 4-8 2-6-12-1-25-6-14-7-5-4 2-6 7-11 9-8 9-4h12l36 8 12 4 6-2 21-9z" fill="#F3BB45"/>
<path transform="translate(541,449)" d="m0 0h14l15 4 23 9 8 4 4 5 2 4 1 12 5 2 4 5v9l-3 9 1 7 2 1-3 9-3 13-2 14-1 30-5 12-13 20-10 13-6 5 5-2 8-7 9-10 13-14 9 1 28 7 26 9 18 8 23 12 3 3v21l-1 19-2 12-7 55-12 82-9 67v15l6 11 9 10 7 8 11 11 7 8 12 14 6 8v25l-3 32-5 33-7 33-8 30-7 21-9 1-7 10-6 4h-6v11l15 13 14 14 7 10 1 5v8l-9 2-17 2h-29l-12-1-24-5-27-5-17-3-13-5-4-3-1-9 2-3 14-4h5l3 1 6-8 12-11 14-9 12-5 8-2-6-7v-2h-11l-8 3-4 3-2-1 3-3h2v-2l6-4 9-1 1-2-11 1-10 4-10 9-7 9h-2v4l-13 4-3-1-1-8h-41l-72-1-93-2v7h-10l-8-2-1 11-3-3-2-14-8-9-13-7-6-3-12-1v8l-5-1-20-12-2-2 1-9 4-15 10-37 16-69-3 9-16 51-8 20-3 5h-2l-2-4-1-12-4-28-3-36v-27l7-11 10-13 12-14 19-19 11-14 1-9-4-31-3-21-4-29v-8l-27 3 19 1v13l-2 8-9 2-4 8-5 3-9 3-5 3-10 2h-12l-5 4-3 1h-7l-13-11-5-5-39 1-3-7-3-12v-6l6-1-1-6 6-2 5-1 19-1 1 6 11-1 18-18-1-6-5-1-4 1h-8l-6-3-4-6-1-3v-11l5-3h6l7 6 5 5 7 3h12l9-2 8 2 15 1h9l8-4 11-10 10-8 2-5h2l1-6 3-8 3-6h9l2-5 3-9h7l-4-1-6-2-2 5-1 7h-3l-5 1-4 6-6 19-4 2-8 1-1-1-4-42-2-30v-48l4-6 7-6 16-8 21-8 29-8 34-7 27-4 44-4h12l1-14-4 2-12-2-10-5-4-5-2-6-1-7v-10l3-8 3-3 3-1h7l8 3-3-9-8-18-1-4v-7l4-8 7-5 14-5 8-14 8-10 7-6zm-227 553 1 4z" fill="#F3BB45"/>
<path transform="translate(1525,147)" d="m0 0 5 2 25 5 9 2v12l-35 423-16 191-11 130h-2v26l-8 100-6 74-6 69-2 4-25 6-13 3h-27l-4-17-7-19-9-20-5-8-1-6v-8l2-5 4-5 4-10 2-9 1-9v-41l-4-50-5-55-2-34v-32l2-23 4-20 5-13 6-11 9-9 11-6 8-2-12-41-7-29-4-22v-7l9-5 7 21 3 3h12l7-5 9-13 8-17 3-9 1-7v-19l-4-7-5-4-3-1h-16l-7 3-7 6-2 4-1 7h-1v-6h-10l-6-1 1-24 6-68 1-15v-24l-5-2 4-18 6-7 4 1 4 3 3 1h10l10-4 8-7 4-8v-6l-3-5-9-4-2-2 5-5 10-7 7-9 5-11 2-9v-18l-3-12-6-11-8-9-10-6-9-5-4-1h-16l-15 4-16 7-6 2-16-6-10-3-3-8-4-11-1-15h-9l-14-10-11-6-4-1h-14l-17 5-20 9-4 1-16-5-22-5-10-2h-12l-9 4-9 8-8 14v2l11 7 10 4 28 6 6 1-2 9-7 10-4 5-1 5h10l-2 3 14 6 3-21-4 1 3-9 2-7 4 1 13 4 16 4 7 6 9 14 1-3v-15l18 2 4 6 3 8v13l-4 7-8 7-2 9-2 5v4l5-1 14-9 11-1 9 3 6 5 1 8-6 12-9 9-2 9v17l4 10 5 5 10 5 6 1h17l-1 10-2 6-18 4-4 4-1 3-1 27-6 5-27 10-15 8h-2v-10l-3-25-5-23-1-4v-13l7-19 2-6-6-1 1-8 3-11v-3l-19 5-14 2-23 1-17-1-9-2-6-7 3 7 5 4 5 2 26 1-1 9-2 6-8 1-3 5-16-1 4 16v14l-4 8-5 4-18 6-13 6-10 5h-4l3-194 2-109 16-5 38-11 8-1 2-2 37-10v-12l4-7 6-4 8-2 11 1 7 3 7 5 4 1h11l28-7 63-14 51-10 49-8 7-1z" fill="#D5E6F3"/>
<path transform="translate(1300,293)" d="m0 0h14l8 3 10 6 11 8 9 1 1 2 1 13 6 18 24 8 4 1 17-8 13-4 5-1h16l8 3 12 7 10 9 8 14 3 12v18l-3 12-6 11-8 9-8 5h-2l-2 4 10 5 4 6-1 9-6 8-8 6-8 3h-10l-6-3-2-2-4 1-4 5-4 18 5 2v24l-3 39-4 44-2 24 16 1 2 8 4 5 5 2 7-1 5-5 1-2v-7l-3-5-5-3h-9l5-5 6-2h16l6 3 6 7 1 3v19l-2 10-6 15-7 13-8 10-6 4h-12l-5-6-5-17h-3l-4 3h-2l5 29 10 40 9 30-9 3-11 6-8 8-8 15-5 17-3 20-1 15v32l2 34 8 89 1 16v41l-2 14-3 10-5 8-2 2-1 4v8l2 8 8 14 10 25 5 18v5l-26 1-67 1h-30l-4-15-6-16-7-15-9-20v-4l-8 7-13 13h-9l-8-6-2-3 1-8 12-2 17-9 5-4 3-5 9-3h3l-1-107-2-20-5-24-5-23-1-7v-37l4-31 3-17 5-27 8-32 8-4 17-6 7-3-1-5-10-25-11-33-5-19-4-24v-36l4-25 8-34 17-9 29-11 3-3 1-27 3-6 7-3 14-2 3-16-2 1h-15l-9-2-10-6-6-10-1-4v-17l2-9 9-9 6-12-1-8-6-5-8-2-11 1-11 7-5 3-4-1 1-6 2-5 1-7 9-8 3-6v-13l-4-10-2-3-18-3 1 2v13l-2 4-11-16-5-4-16-4-13-4-4-2-1 7-4 9 4-1-1 15-2 6-5-1-5-3-6-2 1-2-7-1v-5l8-10 4-8 2-6-12-1-25-6-14-7-5-4 2-6 7-11 9-8 9-4h12l36 8 12 4 6-2 21-9z" fill="#9FA3B6"/>
<path transform="translate(488,636)" d="m0 0h2l-2 5-1 2v12l4 10 8 7 4 1h10l10-4 9-6 5-6 1-9v-2h2l3 6 1 5v7l7 8 13 11 14 10 18 13 9 9 7 15 6 17 8 14 12 16 11 13 8 9 7 4 3 8 8 7 3 5-1 5-2-4-7-3h-18l-10 2-15 4-9 4-7 2h-2l-7 6-5-1 1-9-8-12-9-10-12-12-4-2-2 13v25l3 18 4 11 8 2v8l-2 7 2 1-1 5-7 4-11 4-8 4h-2v2l-11 8-14 14-14 10-16 8-6 1h-16l-8-4-10-9-7-8-25-25-8-7-5-5-4 2-12 9-14 12-7 7-8 7-7 7-14 11-10 7-4 7-3 11-4 27-4 19h-2l-15 49-9 27-7 14h-2l-2-4-1-12-4-28-3-36v-27l7-11 10-13 12-14 19-19 11-14 1-9-4-31-3-21-4-29v-8l-27 3 19 1v13l-2 8-9 2-4 8-5 3-9 3-5 3-10 2h-12l-5 4-3 1h-7l-13-11-5-5-39 1-3-7-3-12v-6l6-1-1-6 6-2 5-1 19-1 1 6 11-1 18-18-1-6-5-1-4 1h-8l-6-3-4-6-1-3v-11l5-3h6l7 6 5 5 7 3h12l9-2 8 2 15 1h9l8-4 11-10 10-8 2-5h2l1-6 3-8 3-6h9l2-5 3-9h14l8-7 12-12 9-11 16-17 13-8 25-10 16-7 9-7 3-1 2-5 5-6z" fill="#ADC2DE"/>
<path transform="translate(405,879)" d="m0 0 4 2 9 9 8 7 26 26 7 8 8 5 3 1h16l8-2 16-8 14-11 13-13 8-6h2v-2l12-6 13-5 4-1 4 4-7 7-15 11-10 6-5 8-9 25-5 12-9-3-16-5-13-2h-23l-16 4-12 5-35 16-14 7-5 4-3 9-3 27-1 25-1 45-2 46-2 24 200-1-3-21-1-11v-41l2-52 1-53v-12l3-13 4-26 2-10 6-5 13-7 4 1 6 7 7 11 12 16 6 10 1 3 1 30 2 26 4 28 8 43 12 55-1 4-7 8-12 9 58 1 1 2-4 6-5 5-3 2h-6v11l15 13 14 14 7 10 1 5v8l-9 2-17 2h-29l-12-1-24-5-27-5-17-3-13-5-4-3-1-9 2-3 14-4h5l3 1 6-8 12-11 14-9 12-5 8-2-6-7v-2h-11l-8 3-4 3-2-1 3-3h2v-2l6-4 9-1 1-2-11 1-10 4-10 9-7 9h-2v4l-13 4-3-1-1-8h-41l-72-1-93-2v7h-10l-8-2-1 11-3-3-2-14-8-9-13-7-6-3-12-1v8l-5-1-20-12-2-2 1-9 4-15 10-37 17-74h2l1-9 5-28 2-14 4-10 5-6 11-7 15-13 9-9 8-7 12-11z" fill="#27252D"/>
<path transform="translate(563,793)" d="m0 0 5 2 19 19 10 15-2 9 7-1 6-6 3 1 14-6 17-5 8-1h18l7 3 2 6-5 6-12 9-11 22-8 12-9 10-10 7-27 15-10 6-2 2-5 27-2 12-2 10v25l-2 69-1 23v41l3 27 1 6h-201v-11l2-33 1-26 1-45 1-25 3-27 3-9 9-7 26-12 29-13 13-4 6-1h23l17 3 17 6 4 2 3-10 7-19 5-12 5-6 12-7 14-11 4-5-4-4 1-4-3-1 2-7 1-8-8-1-4-8-3-14-1-8v-25z" fill="#F09F44"/>
<path transform="translate(1525,147)" d="m0 0 5 2 25 5 9 2v12l-35 423-16 191-11 130h-2v26l-8 100-6 74-6 69-2 4-25 6-7 2h-9v-18l29-358 6-68 4-44 25-304 20-244 1-8z" fill="#AAB6CE"/>
<path transform="translate(797,180)" d="m0 0h14l204 16 150 12 11 1v10l-1 11-5 2h-3v46l-4 248-1 9 2 1-6 3h-6l-6 3-25 6-7 1-1-2v-25l-2-231v-35l1-4v-11l-4-8-3-2-32-5-54-6-60-5-74-5-73-4 5 61 3 32 1 16 1 11 7 78 7 82 5 61 4 40 3 35 5 60 3 39 4 43 24 274 15 166 1 16-16 12-3 1-4-44-20-237-16-195-7-92-20-249-11-141-6-78z" fill="#AAB6CE"/>
<path transform="translate(1277,780)" d="m0 0 4 1-10 41-5 32-2 11-3 23v37l4 22 5 22 3 16 1 14v107l-12 4-4 6-11 7-13 6h-9v8l4 5 5 3h9l19-19h2l4 11 6 13 10 22 6 19v15l-13 2h-40l-8-4-5-1 2 14v11h-52l-4-5h-9l-18 6-17 3h-31l-24-2-16-3-6-3 1-4 5-3 29-10 18-7h2v-2l7-3 4-1v-2l9-3 21-13 12-9 10-9 5-4 3 1 5 8 1 1h6l22-11h2l1-5 3-3 2-5 3-3-6-1-1 4-8 3h-9l-11-4-5-5-2-5-18-5-2-1 4-16 6-21 7-30 6-31 4-26v-18l-1-7v-15l4-23 1-9 3-67 5-49 9-7 21-9 24-8z" fill="#36343B"/>
<path transform="translate(1151,620)" d="m0 0h1v25l3 20 8 30 14 44 6 24 4 25 2 29 7-5h1l-1 16-3 32-3 67-3 21-2 11v15l1 7v18l-6 37-5 24-6 26-6 21-5 16 16 4 5 2 3 7 10 5 4 1h9l8-3 1-3h7l-4 5-2 5-3 3-1 4-23 11-1 1h-6l-5-6-2-4-4 2-8 7-7 6h-7l-16 8-16 7-13 4-3 1-6-1v-14l3-57v-10l1-3 5-110 4-122 2-81 2-130 2-4 5-3 2-4v-10l11-9 9-7h2v-2z" fill="#D5E6F3"/>
<path transform="translate(1034,488)" d="m0 0h9l3 16 4 31 2 26 1 25-14 2h-13l-10-2-4-2-5 1-9 12-2 2-4-1-5-12-7-6-18-11-11-9-5 1-3 4v12l4 6 4 3 4 1 13 1 3 5-5 5-10 6-14 6-16 2-14 3-12 5-5 4-3 7 2 5 3 2-5 6 2 6 1 1 8 1 6 4h13l11-1 10-4 2 1-8 6-16 4-2 3v7l2 2 21-2 7-3 10-9 16-14 9-4h2l4 16 4 6h12l15-7 24-3h6v18l-1 11-1 2-33 14-26 7-38 8-51 9-26 4-5-1-12-29-6-17-5-58-3-35v-65l16-7 28-10 18-5 33-4 69-6z" fill="#314554"/>
<path transform="translate(488,636)" d="m0 0h2l-2 5-1 2v12l4 10 8 7 4 1h10l10-4 9-6 5-6 1-9v-2h2l3 6 1 5v7l7 8 13 11 14 10 18 13 9 9 7 15 6 17 8 14 12 16 11 13 8 9 7 4 3 8 8 7 3 5-1 5-2-4-7-3h-18l-10 2-15 4-9 4-7 2h-2l-7 6-5-1 1-9-8-12-9-10-12-12-5-2v2l-11 7-2 1h-8l-11-3-3-7-5-19 1 10 5 22-3 1-4-4-6-8-5-5-9-6-10-3-14-1-31 4h-11l1-17-3 1-4 14-5-2-5-6-1-3v-36l-2-15-3-10-6-9-1-5 2-12 8-6 16-8 26-10 12-7 4-4h2l2-5 5-6z" fill="#D5E6F3"/>
<path transform="translate(601,906)" d="m0 0 4 1 6 7 7 11 12 16 6 10 1 3 1 30 2 26 4 28 8 43 12 55-1 4-7 8-12 9 58 1 1 2-4 6-5 5-3 2h-6v11l15 13 14 14 7 10 1 5v8l-9 2-17 2h-29l-12-1-24-5-27-5-17-3-13-5-4-3-1-9 2-3 14-4h5l3 1 6-8 12-11 14-9 12-5 8-2-6-7v-2h-11l-8 3-4 3-2-1 3-3h2v-2l6-4 9-1 1-2-11 1-10 4-10 9-7 9h-2v4l-13 4-3-1-1-8h-41v-1l21-1 1-11h16l-2-7-3-27v-41l2-52 1-53v-12l3-13 4-26 2-10 6-5z" fill="#27252D"/>
<path transform="translate(345,753)" d="m0 0 8 1 10 6 7 8 1 4h2l3 8v18l-3 7-14 6 5 5 7 4 6-2 8-8 5-2 10-17 10-10 5-2-2 31v12l2 25 2 15-7 2 1 5-8 3 1 5v4l-13 10-14 12-7 7-8 7-7 7-14 11-10 7-4 7-3 11-4 27-4 19h-2l-15 49-9 27-7 14h-2l-2-4-1-12-4-28-3-36v-27l7-11 10-13 12-14 19-19 11-14 1-9-4-31-3-21-4-29v-8l-27 3 19 1v13l-2 8-9 2-4 8-5 3-9 3-5 3-10 2h-12l-5 4-3 1h-7l-13-11-5-5-39 1-3-7-3-12v-6l6-1-1-6 6-2 5-1 19-1 1 6 11-1 18-18-1-6-5-1-4 1h-8l-6-3-4-6-1-3v-11l5-3h6l7 6 5 5 7 3h12l9-2 8 2 15 1h9l8-4 11-10 10-8 2-5 5-1z" fill="#F3BA45"/>
<path transform="translate(541,449)" d="m0 0h14l15 4 23 9 8 4 4 5 2 4 1 12 5 2 4 5v9l-3 9 1 7 2 1-3 9-3 13-2 14-1 30-5 12-13 20-10 13-5 4-15-1-15-5-11-6-11-9-10-12-6-13-3-7h-3l-5 1-12-3-9-6-3-5-2-11v-10l3-8 3-3 3-1h7l8 3-3-9-8-18-1-4v-7l4-8 7-5 14-5 8-14 8-10 7-6z" fill="#FEBB9F"/>
<path transform="translate(1482,721)" d="m0 0 7 1 6 8 5 11 5 18 1 8v41l-4 82-2 28v20l-8 100-6 74-6 69-2 4-25 6-7 2h-9v-18l29-358 6-68 2-13 5-12z" fill="#8E96AC"/>
<path transform="translate(1269,607)" d="m0 0h1v35l5 26 9 29 10 26 7 16v2h2l10 24-1 4-15 6-14 5-21 5-27 8-25 10-11 7-8 7h-2l-1-3-2-26-4-25-6-24-17-54-6-26-2-14v-18l2-5 14-3 10-3 5 1 5 6 15 28 10 14 5 4 6 1 7-4 7-11 6-16 5-3 6-4 6-7 6-10z" fill="#F3BA45"/>
<path transform="translate(503,585)" d="m0 0h1l5 36 5 20 5 8 4 2 7-1 6-3 3 1-1 9-7 8-10 6-8 3h-10l-7-3-7-8-3-8v-12l4-7-8 4-6 9-12 9-16 7-20 8-14 7-10 9-10 11-9 11-18 18-2 1h-6l-2-2-4-1-5-1-2 5-1 7h-3l-5 1-4 6-6 19-4 2-8 1-1-1-4-42-2-30v-48l4-6 7-6 16-8 21-8 29-8 34-7 27-4 44-4h12z" fill="#F3BB45"/>
<path transform="translate(1305,771)" d="m0 0 2 1 9 31 6 16 3 6 2 1-1 17-3 38-4 75-3 39-4 32-6 33-8 32-7 22 9 2 11 3v9l-4 13-7 8-14 10-5 3-3-1-5-11-9-20v-4l-8 7-13 13h-9l-8-6-2-3 1-8 12-2 17-9 5-4 3-5 9-3h3l-1-107-2-20-5-24-5-23-1-7v-37l4-31 3-17 5-27 8-32 8-4z" fill="#D5E6F3"/>
<path transform="translate(1240,345)" d="m0 0 4 1 13 4 16 4 7 6 9 14 1-3v-15l18 2 4 6 3 8v13l-4 7-8 7-2 9-2 5v4l5-1 14-9 11-1 9 3 6 5 1 8-6 12-9 9-2 9v17l4 10 5 5 10 5 6 1h17l-1 10-2 6-18 4-4 4-1 3-1 27-6 5-27 10-15 8h-2v-10l-3-25-5-23-1-4v-13l7-19 2-6-6-1 1-8 3-11v-3l-19 5-14 2-23 1-17-1-9-2-7-8-2-3-3-15-1-8v-16l2-10 6-11 9-10 1 4h10l-2 3 14 6 3-21-4 1 3-9z" fill="#FEBB9F"/>
<path transform="translate(637,957)" d="m0 0h1v17l19 1 61 6 25 3v25l-3 32-5 33-7 33-8 30-7 21-11 1-60-1 5-4 12-10 4-5-2-12-13-61-8-47-2-19-1-16z" fill="#EA8641"/>
<path transform="translate(609,603)" d="m0 0 9 1 28 7 26 9 18 8 23 12 3 3v11h-2l-3 9-7 19-7 24-6 26-6 34-4 30-2 2-14-15-8-8-7-8-10-11-9-16-13-28-7-12-14-17-12-13-9-10-1-4 6 1 7 3 5-1 2-6-2-17-2-10-2-2 11-11 7-8z" fill="#F3BB45"/>
<path transform="translate(1107,231)" d="m0 0 4 1 13 15 11 10 4 2h7l4-5 4-10 2-9h1v189l-1 77-1 37-9 4-25 6-7 1-1-2v-25l-2-231v-35l1-4v-11l-4-8z" fill="#D6E7F4"/>
<path transform="translate(1168,714)" d="m0 0 2 3 9 29 6 28 3 25 1 18 7-5h1l-1 16-3 32-3 67-3 21-2 11v15l1 7v18l-6 37-5 24-6 26-6 21-5 16 16 4 5 2 3 7 10 5 4 1h9l8-3 1-3h7l-4 5-2 5-3 3-1 4-23 11-1 1h-6l-5-6-2-4-4 2-8 7-7 6-5-1 2-1v-18l2-120 4-261 1-51z" fill="#D5E6F3"/>
<path transform="translate(630,956)" d="m0 0 4 2 2 5 1 97 4 20 7 21 11 26 3 5 2 4-1 4-7 8-12 9 58 1 1 2-4 6-5 5-3 2h-6v11l15 13 14 14 7 10 1 5v8l-9 2-17 2h-29l-12-1-24-5-27-5-17-3-13-5-4-3-1-9 2-3 14-4h5l3 1 6-8 12-11 14-9 12-5 8-2-6-7v-2h-11l-8 3-4 3-2-1 3-3h2v-2l6-4 9-1 1-2-11 1-10 4-10 9-7 9h-1l1-9 10-9 14-9 2-2-16 10-14 12-2 1 2-4 8-10 1-3 1-12 9-23 4-15 4-50 1-16 2-13 5-52z" fill="#314554"/>
<path transform="translate(1300,293)" d="m0 0h14l8 3 10 6 11 8 9 1 1 2 1 13 6 18 2 9v9l-4 11-6 10-13 15-3 4-5 1-2 3-13 3-14 9-4-1 1-6 2-5 1-7 9-8 3-6v-13l-4-10-2-3-18-3 1 2v13l-2 4-11-16-5-4-16-4-13-4-4-2-1 7-4 9 4-1-1 15-2 6-5-1-5-3-6-2 1-2-7-1v-5l8-10 4-8 2-6-12-1-25-6-14-7-5-4 2-6 7-11 9-8 9-4h12l36 8 12 4 6-2 21-9z" fill="#F3BB45"/>
<path transform="translate(563,793)" d="m0 0 5 2 19 19 10 15-2 9 7-1 6-6 3 1 14-6 17-5 8-1h18l7 3 2 6-5 6-12 9-11 22-8 12-9 10-10 7-27 15-10 6-2 2-5 27-2 12-2 10v25l-4 4-4 1-4-2-1-9v-14l-2 9 2 13v5l5-1-2 4-7 1-7-22v-11l-2 9 8 23v2l-3 1h-9l-3-4-2-5-3 3h-6l-3-5-2-16-1-4v-7l13-34 6-16 6-8 12-7 14-11 4-5-4-4 1-4-3-1 2-7 1-8-8-1-4-8-3-14-1-8v-25z" fill="#FEBB9F"/>
<path transform="translate(345,753)" d="m0 0 8 1 10 6 7 8 1 4h2l3 8-2 12-6 10-9 6-13 5-26 6h-6v2l-21 2 19 1v13l-2 8-9 2-4 8-5 3-9 3-5 3-10 2h-12l-5 4-3 1h-7l-13-11-5-5-39 1-3-7-3-12v-6l6-1-1-6 6-2 5-1 19-1 1 6 11-1 18-18-1-6-5-1-4 1h-8l-6-3-4-6-1-3v-11l5-3h6l7 6 5 5 7 3h12l9-2 8 2 15 1h9l8-4 11-10 10-8 2-5 5-1z" fill="#FEBCA0"/>
<path transform="translate(1277,780)" d="m0 0 4 1-10 41-5 32-2 11-3 23v37l4 22 5 22 3 16 1 14v107l-14 5-12 2h-16l2-9 10-33 4-13 3-19 3-28v-34l-4-11-9-10-7-6-2-4v-12l7-33 6-29 2-18v-12l-3-14-1-5-42 1-3 1-1 9h-1v-16l1-7 9-7 21-9 24-8z" fill="#27252D"/>
<path transform="translate(504,582)" d="m0 0 2 1 5 13 6 10 9 10 13 9 11 5 10 3 15 1-1 2 5-2 8-7 4-2 2 4 3 20-1 9-4 3-6-1-10-4 4 6 14 15 12 14 11 15 12 25 8 17 7 10 11 12 12 13 9 9 10 14 4 11v13l-7 19-8 16-10 18-9 12-9 10-8 7-9 4h-16l-1 2-6-9-4-4 22-12 10-8 7-8 9-15 10-19 13-10 4-6-1-6-11-11-2-7-7-4-12-13-11-14-11-16-7-14-6-17-6-11-8-8-17-12-16-12-11-9-7-7-1-2v-8l-3-10-2 1-2 3-1-2-7 4-7-1-5-5-3-5-6-25-3-25z" fill="#D16B33"/>
<path transform="translate(1211,1149)" d="m0 0 2 3 2 11 7 28 1 11 2 1 1 14v11h-52l-4-5h-9l-18 6-17 3h-31l-24-2-16-3-6-3 1-4 5-3 29-10 18-7h2v-2l7-3 4-1v-2l9-3 21-13 12-9 10-9 5-4 3 1 5 8 1 1h6l22-11h2z" fill="#324554"/>
<path transform="translate(286,1167)" d="m0 0h17l10 3 15 8 11 9 15 15v-2l9 1 10 3 2 1v11l-4 3-21 7-27 4-24 6-21 2h-31l-21-3-4-2 1-12 9-11 22-22 14-11 13-8z" fill="#324655"/>
<path transform="translate(948,559)" d="m0 0 4 1 13 10 19 12 5 5 4 11 9 5 2 4 1 6v23l-19 6-14 7-11 11-11 9-4 3-4 1-15 1-6 1-3-3v-7l3-4 18-5 4-4-10 4-11 1h-13l-6-4-8-1-3-3-1-5 5-6-4-4-1-4 4-7 9-6 15-5 19-2 14-5 11-6 7-5-2-5-13-1-7-3-5-6-1-2v-12l4-5z" fill="#FEBB9F"/>
<path transform="translate(416,853)" d="m0 0 3 4 4 6 10 7 19 7 19 5 7 1h32l18-3 11-3 14-7 6-4 9-4h8v8l-2 7 2 1-1 5-7 4-11 4-8 4h-2v2l-11 8-14 14-14 10-16 8-6 1h-16l-8-4-10-9-7-8-25-25-8-7-9-8-1-5 8-4v-4l4-2h3z" fill="#D4E5F3"/>
<path transform="translate(1297,439)" d="m0 0 4 1 10 4 5 1h8l5-1-1 8v17l4 10 5 5 10 5 6 1h17l-1 10-2 6-18 4-4 4-1 3-1 27-6 5-27 10-15 8h-2v-10l-3-25-5-23-1-4v-13l7-19 2-6-6-1 1-8 5-16z" fill="#D6E7F4"/>
<path transform="translate(1199,296)" d="m0 0h12l9 4 7 7 4 7 10 19 4 5 12 6 25 6 25 5 1-2 3 4 5-2h3v-2l14-7 5 1 1 1 20 1 2 6 1 7-4 11-6 10-13 15-3 4-5 1-2 3-13 3-14 9-4-1 1-6 2-5 1-7 9-8 3-6v-13l-4-10-2-3-18-3 1 2v13l-2 4-11-16-5-4-16-4-13-4-4-2-1 7-4 9 4-1-1 15-2 6-5-1-5-3-6-2 1-2-7-1v-5l8-10 4-8 2-6-12-1-25-6-14-7-5-4 2-6 7-11 9-8z" fill="#EA8841"/>
<path transform="translate(630,956)" d="m0 0 4 2 2 5 1 97 4 20 7 21 11 26 3 5 2 4-1 4-7 8-12 9 58 1 1 2-4 6-5 5-3 2h-6l-2 9-4-2-16-10-6-2-10-1-8-8v-2h-11l-8 3-4 3-2-1 3-3h2v-2l6-4 9-1 1-2-11 1-10 4-10 9-7 9h-1l1-9 10-9 14-9 2-2-16 10-14 12-2 1 2-4 8-10 1-3 1-12 9-23 4-15 4-50 1-16 2-13 5-52z" fill="#2F3238"/>
<path transform="translate(541,449)" d="m0 0h14l15 4 23 9 8 4 4 5 2 4 1 12 5 2 4 5v9l-3 9-2 1-2-9-5-10-4 6h-3l-3-16-3 15-3 3-4-1v-2l-4-2-10-7-10-5-3-1h-14l9 3-1 3-8 2-18 2-6 2-2 2-1 4v10l2 8-1 6-4 6v22l-2 5-4-2-9-13-4-4-5-12-7-16-1-4v-7l4-8 7-5 14-5 8-14 8-10 7-6z" fill="#2D3843"/>
<path transform="translate(1201,823)" d="m0 0h42l4 12 1 7v12l-3 24-9 41-2 9-2-2-31-1-4-1-4 8-2 3-1-2v-33l2-40 3-32 3-4z" fill="#303339"/>
<path transform="translate(490,595)" d="m0 0h11v2l-19 7-7 4h-2l-1 10 3 14-11 2-132 17h-21l-3-3 2-6 9-8 16-8 21-8 29-8 34-7 27-4z" fill="#F1DA8D"/>
<path transform="translate(1153,659)" d="m0 0h1l6 26 9 29-8 4h-2v51l-5 330-1 51-1 18-12 6 1-63 7-271 4-179z" fill="#9098AF"/>
<path transform="translate(1202,440)" d="m0 0 4 5 3 3 9 2 22 1 26-2 22-5 4-1-1 7-4 16 6 1-1 6-7 19-1 5h-2l-1 5-5-2-9-2-8-4h-7l-13 5-18 12-10 8-3 3 8-2-1 3-20 11-2-1 4-5-10 11-28 14-7 3-19 9-21 8-19 5h-9v-3l15-8 24-11 3-1 3-3 33-16 15-8 14-6 18-6 4-5 2-5v-14l-4-16 1-1h7l9 1 3-5 8-1 3-14h-26l-8-4-5-6z" fill="#EB8943"/>
<path transform="translate(984,642)" d="m0 0h2l4 16 4 6h12l15-7 24-3h6v18l-1 11-1 2-30 13h-4l-2-21-1-4-12 10-15 9-15 7-11 3h-16l-8-4-11-9-12-11-9-10-7-11-2-5h9l6 4h13l11-1 10-4 2 1-8 6-16 4-2 3v7l2 2 21-2 7-3 10-9 16-14z" fill="#2F2A34"/>
<path transform="translate(209,820)" d="m0 0h4l1 6 42-3 56 1v13l-2 8-9 2-4 8-5 3-9 3-5 3-10 2h-12l-5 4-3 1h-7l-13-11-5-5-39 1-3-7-3-12v-6l6-1-1-6 6-2 5-1z" fill="#3A4350"/>
<path transform="translate(840,724)" d="m0 0h1l10 75 14 117 13 118 5 54 2 33v76l-2 28-1 5h-1l-2-18-19-225-16-193-4-50z" fill="#9FA4B7"/>
<path transform="translate(1040,489)" d="m0 0h3l2 8 5 38 2 26 1 25-14 2h-13l-10-2-4-2-5 1-3 3-2-10-8-49-3-15v-4z" fill="#27252E"/>
<path transform="translate(1262,1126)" d="m0 0h2l4 11 6 13 10 22 6 19v15l-13 2h-40l-8-4-6-2-6-28-4-14-1-12 3-3 2-5 5-4 3 1 4 5 5 3h9z" fill="#2B3742"/>
<path transform="translate(714,654)" d="m0 0h2l-1 29-2 12-7 55-12 82-9 67v15l3 6-1 4-11-7-25-2-16-1 4-4 8-7 9-10 10-15 7-13 8-16 7-19v-13l-4-11-5-8 2-10 5-35 7-35 8-30 8-23z" fill="#F1A246"/>
<path transform="translate(1442,619)" d="m0 0h16l6 3 6 7 1 3v19l-2 10-6 15-7 13-8 10-6 4h-12l-5-6-6-20v-29l-16 5-10 2h-12l-15-5-12-7-5-5v-4l9-2h43l23 2 2 8 4 5 5 2 7-1 5-5 1-2v-7l-3-5-5-3h-9l5-5z" fill="#435461"/>
<path transform="translate(413,779)" d="m0 0h2l-2 31v12l1 25h-7l-10 8-9 3h-22l-26-5-15-5-3-4-2-16v-8h-6v-1l25-5 18-6 10-6 6-10 2-9h1v15l-3 7-14 6 5 5 7 4 6-2 8-8 5-2 10-17 10-10z" fill="#D16A33"/>
<path transform="translate(1261,868)" d="m0 0h1v11l-1 9v37l4 22 5 22 3 16 1 14v107l-14 5-12 2h-16l2-9 10-33 4-13 3-14 4-22 1-13v-24l-2-41v-31l3-26 3-18z" fill="#21161F"/>
<path transform="translate(1152,645)" d="m0 0h6l9 14 12 22 13 24 11 18 8 10 7 6 1 3v12l-4 11-1 4h-2l-2 5-11 17 1 4 16-8 11-4h4v2l-15 5-13 7-6 5-2 4 11-2-4 4-11 9h-2l-1-3-2-26-4-25-6-24-17-54-6-26-1-5z" fill="#F0A045"/>
<path transform="translate(625,960)" d="m0 0h1v13l-2 32-1 26-1 3-4 56-2 15-7 21-7 16-14 21-7 9h-1v-11l3-37 5-36 8-36 13-44 14-43z" fill="#20141D"/>
<path transform="translate(573,883)" d="m0 0 5 1 2 3-7 7-15 11-10 6-5 8-9 25-5 12-9-3-16-5-13-2h-23l-16 4-12 5-35 16-14 7-7 5-1-4-2-26 1-1 25 1 15-2 6-3 4-4 2-6v-14l-5-19-2-5 4 2 21 21 7 8 8 5 3 1h16l8-2 16-8 14-11 13-13 8-6h2v-2l12-6 13-5z" fill="#21151E"/>
<path transform="translate(343,955)" d="m0 0h2l11 41 8 37 4 28 2 37v54l-1 11-3-3-8-19-6-19-6-27-4-26-2-26v-43l1-13 1-26z" fill="#20141D"/>
<path transform="translate(855,200)" d="m0 0h45l55 2 43 3 48 5 2 1 38 5 45 8 23 5v1l-26 2h-16l-39-6-54-6-60-5-74-5-67-4-7-1v-3l12-1z" fill="#8696B8"/>
<path transform="translate(1021,489)" d="m0 0h9l-3 3-17 8-28 10-24 6-39 7-54 8-16 2h-5v-11l16-7 28-10 18-5 33-4 69-6z" fill="#5F7387"/>
<path transform="translate(1197,608)" d="m0 0h21l13 3 10 6 4 7v8l-2 2 4 1v-2l6-3 5-6h2l1-3 1 2-6 8-6 5-6 3-6 16-7 11-5 4-7 1-6-4-6-7-8-13-14-26-4-4-8 1-13 4h-7v-2l15-5 24-6z" fill="#D16A33"/>
<path transform="translate(311,984)" d="m0 0h9l-2 13-2 9h-2l-15 49-9 27-4 9-4 1v-12l-3-4v-10l-2-4-1-14-1-8-1-7v-16l2-21 2-4 5-1 1-3z" fill="#F0A045"/>
<path transform="translate(571,865)" d="m0 0h5l-1 8-1 4 2 1-1 5-7 4-11 4-8 4h-2v2l-11 8-14 14-14 10-16 8-6 1h-16l-8-4-10-9-7-8-25-25-8-7-9-8-1-5 7-3 5 1 13 13 8 10v2l4 2 2 4h2l5 5 8 6 7 4 4 1h19l12-3 16-8 18-11 10-7 5-3 10-11 11-8z" fill="#D0E2F0"/>
<path transform="translate(351,729)" d="m0 0 24 1 8 5 6 7 5 13 2 8 1 17-2 16-3 11-3 3-5 2-8 8-5 1-9-5-5-5 14-6h2l2-7v-18l-2-6v-2h-2l-6-9-8-6-7-3h-5l-14 10h-1l1-7 3-8 3-6h9l2-5z" fill="#D2E3F1"/>
<path transform="translate(503,585)" d="m0 0h1l5 36 5 20 5 8 4 2 7-1 6-3 3 1-1 9-7 8-10 6-8 3h-10l-7-3-7-8-3-8v-12l4-7-8 4-5 5-2-13-3-9-1-11 2-4 16-8 12-3z" fill="#EB8842"/>
<path transform="translate(407,685)" d="m0 0h1v8l-1 7 6 8 3 7 2 10 1 10v26l-2 10-2 8-8 6-8 9-5 9-1-3 2-10 1-17-2-15-5-14-6-8-8-5-10-1 20-20 9-11z" fill="#AAB6CE"/>
<path transform="translate(468,945)" d="m0 0h23l17 3 17 6 4 3-4 10-3 1-14-9-16-6-9-2h-18l-16 4-18 8-16 10-12 11-8 9-5 10-4 18-1 10v58l3 36 3 26v7h-17v-11l2-33 1-26 1-45 1-25 3-27 3-9 9-7 26-12 29-13 13-4z" fill="#D75737"/>
<path transform="translate(1493,610)" d="m0 0h29v9l-7 77-1 3h-27v-15l5-68z" fill="#D3E4F2"/>
<path transform="translate(608,1185)" d="m0 0 2 1-3 5 1 5 4 3 4-1 11-9 5-2-5 5-10 8v4l5 2 1 1v11l10 2 31 6 9 1h23l16-3 9-3 1 5v8l-9 2-17 2h-29l-12-1-24-5-27-5-17-3-13-5-4-3-1-9 2-3 14-4h5l3 1 6-8z" fill="#282830"/>
<path transform="translate(563,793)" d="m0 0 5 2 19 19 10 15-2 9 5 2-1 5-1 3 4 2-1 7-8 16-11 12-2 2-5-5 1-4-3-1 2-7 1-8-8-1-4-8-3-14-1-8v-25z" fill="#D16B33"/>
<path transform="translate(1252,493)" d="m0 0h7l8 4 9 2 5 3 1-5h2l3 16 5 25 2 19-1 13-5 22h-9l-5 1-1 2-1-7 2-14v-29l-2-21-2-7h-2l-6-9-4-2-9 1-25 12-7 4-2-1h-2l-6 1 6-7 15-11 13-8z" fill="#F3B845"/>
<path transform="translate(348,922)" d="m0 0h7v2l-14 11-10 7-4 7-3 11-3 21-1 3-36 5-3 3-3 1-2 9-1 23v8l1 7 1 14 2 10 2 14 2 2v11l2-1-1 5-3 1-2-4-1-12-4-28-3-36v-27l7-11 10-13 12-14 17-17 5-2 10-6 8-3z" fill="#F3BB46"/>
<path transform="translate(1296,294)" d="m0 0 4 1-8 5-4 4-6 3-12 2-3 1 10 4 10 11 8 10v2h2l2 5h2l1 4-6 1h-11l-5 1-1 2-15-3-12-4-9-6-8-13-7-14-8-9-3-3 9 1 28 7 7 2 17-8z" fill="#F09F44"/>
<path transform="translate(314,567)" d="m0 0 10 2 7 6 4 8 2 9v9l-2 8-5 5-6 3h-19l-12-4-6-4-6-7-1-2v-8l5-8 10-9 8-5z" fill="#F3BC46"/>
<path transform="translate(1212,475)" d="m0 0h7l10 2-2 11-8 16-1 4 11-13 7-8 9-8 6-1 1 5-3 6-9 8-4 4-15 10-10 8-3 3 8-2-1 3-20 11-2-1 4-5-10 11-28 14-7 3-19 9-21 8-19 5h-9v-3l15-8 24-11 3-1 3-3 33-16 15-8 14-6 18-6 4-5 2-5v-14l-4-16z" fill="#F3B849"/>
<path transform="translate(1199,303)" d="m0 0h11l7 4 6 7 8 15 1 9 5 3 2 3 3 1h-2l-1 7-4 9 4-1-1 15-2 6-5-1-5-3-6-2 1-2-7-1v-5l8-10 4-8 2-6-12-1-25-6-14-7v-3l4-8 7-8z" fill="#D75637"/>
<path transform="translate(676,829)" d="m0 0h1l-1 19v14l-5 8-6 11-10 14-9 10-8 7-9 4h-16l-1 2-6-9-4-4 22-12 10-8 7-8 9-15 10-19 13-10z" fill="#D16B33"/>
<path transform="translate(607,605)" d="m0 0 15 3 29 9 24 9 23 11 15 10-3 1-44-8-38-5-35-3-2-6-2-2 11-11z" fill="#F1DA8D"/>
<path transform="translate(541,449)" d="m0 0h14l15 4 23 9 8 4 4 5 2 4 1 12 5 2 4 5v9l-3 9-2 1-2-9-5-10-4 6h-3l-3-16-3 15-3 3-4-2-1-8-7-18-4-4h-15l-17 6-11 5 2-6 3-6v-6l-9 1-6 4-7 6 2-5 8-10 7-6z" fill="#364958"/>
<path transform="translate(1273,1018)" d="m0 0h1v88l-14 5-12 2h-16l2-9 10-33 2-4 5-1 5-5 8-16 6-18z" fill="#27252D"/>
<path transform="translate(1201,823)" d="m0 0h42l4 12 1 7v12l-1 11-3-4h-47l-2 1-2 22h-1v-24l3-32 3-4z" fill="#2E2934"/>
<path transform="translate(323,846)" d="m0 0 17 6 5 1-1 27-1 9 6 2 19 7 10 3-6 7-12 11-5 4-15 1-14 6-7 5v-3l11-14 1-9-4-31-3-21z" fill="#F09E44"/>
<path transform="translate(550,967)" d="m0 0 1 4v10l6 20v2l7-2 1-2h-4l-3-19 3-11h1v17l1 9 4 1 6-2v38l-2 52v41l3 27 1 6h-15v-16l1-20 1-49-1-27-2-19-3-14-3-9h3l-9-25z" fill="#D75737"/>
<path transform="translate(521,772)" d="m0 0 2 2 7 25 11 3h8l10-6 3-1 1-2-2 13v25l3 18 4 11 3 2-14 6-13 8-5 2h-6l2-4 8-8 2-4v-7l-13-35-4-14-3-8-4-20z" fill="#ADC2DE"/>
<path transform="translate(611,519)" d="m0 0 6 1-3 9-3 13-3 18-3 12-4 3h-2l1 7-7 9-10 5-8-1-6-4-7-8 1-5 4-6 3-2h22v-3h-12l-1-1v-7l7-14 3 3 2-7h2l1-5 5-12 4-1 4-3z" fill="#FAAA92"/>
<path transform="translate(882,555)" d="m0 0h9l6 18 2 9v5l-25 5-15 2h-14l-1-7v-27z" fill="#5F7388"/>
<path transform="translate(465,950)" d="m0 0h18l15 4 12 5 12 8 1 5-68 2-43 2 5-5 14-9 18-8z" fill="#F3BA44"/>
<path transform="translate(1256,350)" d="m0 0 14 3 7 4 7 9 5 8 1-3v-15l18 2v1l-14 3v12l-3 10-6 7-10 5-5 1h-9l-11-3-7-5-1-2 1-9z" fill="#F7A68D"/>
<path transform="translate(288,1170)" d="m0 0h8l13 4 12 6-4 2-2 5 5 2 10 8 10 12-1 2-12-12-8-6-3-1 1 14 4 3-26 5-11 1-8-2v-33l-5-1 3-3h6l1-3z" fill="#2D4754"/>
<path transform="translate(1153,659)" d="m0 0h1l6 26 9 29-8 4h-2v51l-2-3-3 28-2 30-1 24-2 88-6 172h-1v-36l6-232 4-179z" fill="#AAB6CE"/>
<path transform="translate(1215,1150)" d="m0 0 6 4 10 9 25 25 5 6h12l16-1v13l-12 2h-40l-8-4-6-2v-4h2l-5-25-5-20z" fill="#27252D"/>
<path transform="translate(308,653)" d="m0 0 3 1 5 12 7 24 8 38 3 15-7 21-4 2-8 1-1-1-4-42-2-30z" fill="#F1A145"/>
<path transform="translate(326,953)" d="m0 0 3 1 1 3v26l-3 26-3 16h-2l-1 8-7 24-15 42-11 29-2 6-2 1v-8l10-35 14-59 6-27h2l1-9 5-28 2-14z" fill="#261A22"/>
<path transform="translate(1287,405)" d="m0 0h9l1 1-1 13-4 15-6 8-5 3-14 3h-21l-7-3-1-1v-5l5-6 11-9 13-9 10-6z" fill="#FBAB94"/>
<path transform="translate(302,1126)" d="m0 0h17l12 5 11 7 11 10 11 14 1 4-6-5-4-6-6-4v-2h-2l1 18-5-5-6-5-16-8-12-1v8l-5-1-20-12-2-2 1-9 2 2 6-5z" fill="#32323A"/>
<path transform="translate(252,823)" d="m0 0 60 1v13l-2 8-24 3-19 2h-14l-1-11z" fill="#28262F"/>
<path transform="translate(1008,583)" d="m0 0 5 1 3 2h-2l3 13 1 11v19l-2 16-4 13v4l-6 3h-12l-4-5-3-9-1-10 15-5h4l-1-23-2-10-6-2v-3l9-11z" fill="#EA8541"/>
<path transform="translate(1323,406)" d="m0 0 11 1 7 4 3 3 1 8-6 12-10 10-5 2h-8l-13-4-3-2v-2h-2v-9l4-6 8-8 4-6z" fill="#FAAA93"/>
<path transform="translate(515,569)" d="m0 0 8 1 11 9 9 12 4 8 1 4v14l-3 5-6-1-13-8-3-3-4-1-7-9-4-8v-11l3-9z" fill="#FBAB94"/>
<path transform="translate(479,536)" d="m0 0h7l10 4 8 9 3 24-4 8-4 2-12-2-10-5-4-5-2-6-1-7v-10l3-8 3-3z" fill="#FAAB94"/>
<path transform="translate(1277,780)" d="m0 0 4 1-9 36h-2l-4-4-10-4h-23l-8-4-8 1-12 6-6 5-2 2v-8l9-7 21-9 24-8z" fill="#20151E"/>
<path transform="translate(1286,178)" d="m0 0 11 1 7 3 5 4 2 5v9l-3 7-6 7-6 3h-9l-12-6-6-8-1-4v-8l4-7 6-4z" fill="#F3BD48"/>
<path transform="translate(604,719)" d="m0 0h3l5 11 6 17 8 14 9 12v2l-9-3-11-3-24-3-6-3-1-3 3-12 10-21z" fill="#ADC2DE"/>
<path transform="translate(1045,654)" d="m0 0h6v18l-1 11-1 2-30 13h-4l-2-28-1-9 9-4z" fill="#28262E"/>
<path transform="translate(519,515)" d="m0 0 8 1 11 6v3l-3 5-1 2 12 1v4l-4 5 6-5 2-1h6l-2 7h2l-1 7 2 3h6l2-5 1-15h5l1-4-1 13-5 16-4 6h-24l-6-7-2-5v-16l-5 7h-6l-4-4-2-7 5-8v-7z" fill="#FAAA92"/>
<path transform="translate(1202,440)" d="m0 0 4 5 3 3 9 2 22 1 26-2 22-5 4-1-1 7-3 12-1 1-1 7-9 2-4 1h-18l-14-1-1-1 1-10 1-5h-26l-8-4-5-6z" fill="#D85838"/>
<path transform="translate(991,210)" d="m0 0h45l36 4 49 8 33 7v1l-26 2h-16l-7-1-9-3-37-6-44-5-45-4v-1z" fill="#5F7388"/>
<path transform="translate(1272,589)" d="m0 0 2 4 5-2h6l2 1-1 9-4 25v36l4 24 5 19 11 33-1 3-11-25-10-28-7-25-4-21v-34l-3 9-4 4 1-5 4-9z" fill="#F0A044"/>
<path transform="translate(1162,1163)" d="m0 0v3l-2-1zm-4 3 2 1-2 6v13l2 1 1-2-1 5-8 11-9 7-12 5-7 2h-11l-2-1v-16-3l4-1v-2l9-3 21-13 12-9z" fill="#304A57"/>
<path transform="translate(1199,296)" d="m0 0h12l9 4 7 7 4 7 10 19 4 5 12 6 25 6 26 5v3l-14-1-4-1 1 2v13l-2 4-11-16-5-4-16-4-13-4-5-3-1 2-3-6-4-2-1-9-8-15-6-7-6-3h-11l-11 7-8 10-3 6-5-2 2-6 7-11 9-8z" fill="#2A2830"/>
<path transform="translate(646,1136)" d="m0 0h13l4 1-1 4-6 7-12 9 58 1 1 2-4 6-5 5-3 2h-6l-2 9-4-2-16-10-6-2-10-1-8-8v-2l-3-1-1-7-3-1-1-7 6-3z" fill="#292830"/>
<path transform="translate(1247,692)" d="m0 0h1l7 34 8 27 8 22h9v1l-29 5h-8v2h-11l4-2 22-4 10-2-2-7-5-1-11-7-10-10v-2l-4-1-4-10v-7l4-11 8-11 2-2z" fill="#D75637"/>
<path transform="translate(351,729)" d="m0 0 24 1 8 5 6 7 5 13 2 8 1 17-2 16-3 11-2 2-4-1v-19l-4-19-4-9-2-3-7-14-6-5-14-1 1-8z" fill="#D5E6F3"/>
<path transform="translate(601,920)" d="m0 0h9l12 10 8 11 3 7 1 4-18 2-15 2h-7l-7-3-2-7 3-10 7-11z" fill="#2F3238"/>
<path transform="translate(331,949)" d="m0 0 6 4 4 6 1 3v25l-3 29-4 34-1 5-3-3-6-13-2-8 1-10 4-27 1-11 1-33z" fill="#35333A"/>
<path transform="translate(348,1211)" d="m0 0 3 1-10 4 9 8v2l-27 4-20 5h-6l5-11-9 2-9 1h-42l-18-2v-2l9-6 3-1h11l6 1 15 1 7 1 2 2h19l23-3 19-4z" fill="#27262F"/>
<path transform="translate(490,636)" d="m0 0 2 1-2 8v10l3 8 6 4 8 2h6l-9-3-5-5-5-8-2-13 1-1 16-1 3-1 6 11 5 3 7-1 6-3 3 1-1 9-7 8-10 6-8 3h-10l-7-3-7-8-3-8v-12z" fill="#FAA990"/>
<path transform="translate(638,974)" d="m0 0 19 1 61 6 25 3v25l-3 32-5 33-3 15h-1l1-13 3-28 1-15v-29l-2-7-9-4-27-6-33-5-27-3z" fill="#F1A045"/>
<path transform="translate(608,1185)" d="m0 0 2 1-3 5 1 5 4 3 4-1 11-9 5-2-5 5-10 8v4l5 2 1 1v11l-11-2-22-7 1 1 15 6-8 8-6 1-14-4-8-5-1-9 2-3 14-4h5l3 1 6-8z" fill="#2B3642"/>
<path transform="translate(630,956)" d="m0 0 4 2 2 5v96l-2 1-6-4-5-6-1-2v-17l5-49 2-20z" fill="#38404D"/>
<path transform="translate(1176,529)" d="m0 0h4l-1 4-7 8-15 12-19 10-23 9-17 5-5 1h-9v-3l15-8 24-11 3-1 3-3 33-16z" fill="#D75838"/>
<path transform="translate(296,846)" d="m0 0h5l-3 8-6 4-9 3-5 3-10 2h-12l-5 4-3 1h-7l-13-11-5-6 4-1 32-3z" fill="#E98342"/>
<path transform="translate(636,989)" d="m0 0 2 2 4 35 8 45 12 56v6l-3-4-10-23-7-19-5-20-1-7z" fill="#21151E"/>
<path transform="translate(656,1178)" d="m0 0h7l1 34 3 1-11-1-24-6-7-4-2-2v-6l11-8 8-4z" fill="#2E4754"/>
<path transform="translate(665,875)" d="m0 0h2l-1 4-7 11-9 11-9 9-9 5-3 1h-16l-1 2-6-9-4-4 15-8 12-3 18-8 14-8z" fill="#D85737"/>
<path transform="translate(541,449)" d="m0 0h14l7 2 1 3 5 2 8 7 4 8-3 1-4-2h-15l-17 6-11 5 2-6 3-6v-6l-9 1-6 4-7 6 2-5 8-10 7-6z" fill="#334656"/>
<path transform="translate(1197,608)" d="m0 0h21l13 3 10 6 3 5v6l-4 2-6-1-15-12h-2l1 6-5-1-13-4h-3l15 8 3 3-2 4-23-10-5-2-4-4-8 1-13 4h-7v-2l15-5 24-6z" fill="#D75637"/>
<path transform="translate(1045,829)" d="m0 0 10 1 5 4 2 4v10l-6 10-4 2h-11l-9-4-7-6-2-4 1-7 5-5 11-4z" fill="#354958"/>
<path transform="translate(859,694)" d="m0 0h2l7 11 5 6 4 2h31l38-4 37-5-2 4-45 9-49 8-16 2-7-15-5-12z" fill="#32303B"/>
<path transform="translate(235,1207)" d="m0 0 1 2-1 3 8 3v1l-10 2-7 5h-2v2l18 1h42l12-2h6l-3 9v3l-21 2h-31l-21-3-4-2 1-12 9-11z" fill="#2C3944"/>
<path transform="translate(646,1166)" d="m0 0 11 1 9 4 10 6-3 1h-10l-14 3-8 3-12 5-11 8-3 3-4-1-5-5 1-5 3-6 13-9 11-5z" fill="#2D4350"/>
<path transform="translate(554,513)" d="m0 0h9l8 3 1 2 2-1-1 6-2 4v6h-5l1 7-2 11-2 3h-6l-3-4 1-4 1-3h-2l1-6-7 1-8 6 2-4 4-4v-2l-13-1 3-7 8-9 6-3z" fill="#E88441"/>
<path transform="translate(635,1126)" d="m0 0h13l10 5 6 5-1 3v-2h-17l-9 2-3 2h-3l1 7 4 1v7l-12 2-8 5-2-1 3-3h2v-2l6-4 9-1 1-2-11 1-10 4-10 9-7 9h-1l1-9 10-9 14-9 2-2-16 10-14 12-2 1 2-4 8-10 12-13 10-8z" fill="#38404D"/>
<path transform="translate(1498,636)" d="m0 0h17v16l-3 28-1 2h-14l-3-2v-25l2-17z" fill="#38424F"/>
<path transform="translate(468,945)" d="m0 0h23l17 3 17 6 4 3-4 10-3 1-14-9-16-6-9-2h-18l-16 4-18 8-16 10-8 7-4-2-10-1 3-3 35-16 18-8 13-4z" fill="#D16933"/>
<path transform="translate(650,820)" d="m0 0h18l7 3 2 6-5 6-11 8-1-2v-7l-5-2h-15l-15 4-13 5-5 1-2 4-2 5-5-2-1-2 2-4 1-5 8-7 3 1 14-6 17-5z" fill="#8595B7"/>
<path transform="translate(1059,1216)" d="m0 0 3 1v2l4 1h36l2 1h5l1 4 22-1 24-3h7l-2 2-18 6-17 3h-31l-24-2-16-3-6-3 1-4 5-3z" fill="#2C2D36"/>
<path transform="translate(690,843)" d="m0 0h1v11l-6 45v15l3 6-1 4-12-8-3-1v-27l1-19 11-14 4-8h2z" fill="#EA8742"/>
<path transform="translate(581,959)" d="m0 0 4 1 2 3 1 6v10l-3 21-8 39-2 6h-2v-78l1-5h4z" fill="#22161F"/>
<path transform="translate(383,1087)" d="m0 0 2 2 3 36 3 26v7h-17v-11l3-47 2-6z" fill="#D16A33"/>
<path transform="translate(515,500)" d="m0 0h1l1 12 2 8-1 6-4 6v22l-2 5-4-2-9-13-4-4-5-12-4-9v-3l4 2 3 4h2l1-8 2 4 3 3 5-1 4-6 4-12z" fill="#2A282F"/>
<path transform="translate(671,868)" d="m0 0 3 3-2 44 3 1-24-1-16-1 4-4 8-7 9-10 10-15z" fill="#F09F44"/>
<path transform="translate(1184,963)" d="m0 0 6 1 6 5 8 15v8l-4 10-7 11-7 10h-1l-1-6v-10l1-8v-18l-1-7z" fill="#28262F"/>
<path transform="translate(558,469)" d="m0 0h15l5 5 8 21v5l-7-4-8-6-10-5-3-1h-14l-16 3-4 1 5-6h2v-2l15-7z" fill="#2E2934"/>
<path transform="translate(1288,1193)" d="m0 0h1v13l-12 2h-40l-8-4-6-2v-4l50-4z" fill="#21161F"/>
<path transform="translate(1214,378)" d="m0 0h6l14 8 7 5 1 10-2 4-9 3h-10l-6-4-4-5-3-10 1-6z" fill="#FBAB94"/>
<path transform="translate(721,1126)" d="m0 0 1 4-8 26-1 2-11 1-60-1 5-4 7-6 5 2 4 2 11 1 14-3 16-8 10-8 4-2 2-4z" fill="#F09F45"/>
<path transform="translate(338,816)" d="m0 0h4l1 3 1 34-7-1-12-4-3-4-2-16v-8l13-3z" fill="#D85838"/>
<path transform="translate(1125,554)" d="m0 0 2 1-15 7-25 12-3 1v3h6l-4 2-13 3 37 2 15 2-2 4-4 1-27-2-16-3-6-2-17 1-1-10 31-7 30-10h2v-4l2 1-1 2z" fill="#EB8944"/>
<path transform="translate(504,582)" d="m0 0 2 1 5 13 6 10 9 10 7 8 7 6v4h-26l-2 1-3-9-3-18-2-17z" fill="#D95938"/>
<path transform="translate(1200,1022)" d="m0 0 2 3 10 29 4 18 1 7 3 19-1 7-3 2h-9l-3-3v-10l1-12v-32l-4-21z" fill="#2F3238"/>
<path transform="translate(1313,367)" d="m0 0 4 5 15 29-3 5-13 3-14 9-4-1 1-6 2-5 1-7 9-8 3-6v-13z" fill="#384753"/>
<path transform="translate(604,719)" d="m0 0h3l5 11 6 17 1 3-1 2-31 1 1-7 9-19z" fill="#AAB6CE"/>
<path transform="translate(1161,1110)" d="m0 0 1 4 8 1 23 12 16 6v1l9 1-4 1-1 4-8 3h-9l-11-4-5-5-2-5-18-5-2-1z" fill="#435462"/>
<path transform="translate(545,878)" d="m0 0 3 1-15 10-16 8-11 4-8 1h-17l-11-4-9-5-1-3 2-2 9 2 11 2h11l15-2 18-4 8-4z" fill="#A0A7BD"/>
<path transform="translate(1232,339)" d="m0 0 4 1 3 4 3 1h-2l-1 7-4 9 4-1-1 15-2 6-5-1-5-3-6-2 1-2-7-1v-5l8-10 4-8 4-9z" fill="#FAAA93"/>
<path transform="translate(573,883)" d="m0 0 5 1 2 3-7 7-15 11-10 6-5 8-4 11h-2l1-4h-2l-1-2-1-15 6-7 5-5h2v-2l12-6 13-5z" fill="#29272F"/>
<path transform="translate(1045,654)" d="m0 0h6v18l-1 11-1 2-7 1 5-5 1-3-6-2-13-6-4-1h-12l-1-8 9-4z" fill="#221720"/>
<path transform="translate(323,846)" d="m0 0 17 6 5 1-1 27-1 9-10-6-3-2-2 3-3-18z" fill="#F1A046"/>
<path transform="translate(539,961)" d="m0 0 1 4-3 9v4l8 1h3l8 23v2l-3 1h-9l-3-4-2-5-3 3h-6l-3-5-2-16-1-6 2 1 9 1 3-10z" fill="#FBAB94"/>
<path transform="translate(1259,1114)" d="m0 0 3 1-1 8 1 4-19 19h-9l-8-6-2-3 1-8 12-2 17-9z" fill="#ACC1DD"/>
<path transform="translate(583,769)" d="m0 0h2l-2 5-8 12 9 2 16 8 7 6-2 2-12 2h-9l-7-2-7-6-5-4-2-2 10-14 7-7z" fill="#A0A6BA"/>
<path transform="translate(529,806)" d="m0 0h2l10 23 10 17 12 15-2 4-10 7-12 6h-6l2-4 8-8 2-4v-7l-13-35-3-10z" fill="#8494B7"/>
<path transform="translate(1157,582)" d="m0 0h56l-2 2-13 5-8 2-7 1h-62l2-1 1-3 1-1 27 1v-3z" fill="#F09F44"/>
<path transform="translate(407,685)" d="m0 0h1v8l-1 7 6 8 3 7v4l-6-1-1 1-2 1 1 4-3 5h-26l-1-3 11-7 10-10 6-11-8-1 6-8z" fill="#ADC2DD"/>
<path transform="translate(718,1225)" d="m0 0 4 1v8l-9 2-17 2h-29l-12-1 4-2-2-6 42-1z" fill="#334756"/>
<path transform="translate(898,621)" d="m0 0m-2 1 2 1-1 1v11l24-2 9-2 7-3 3 1-13 6h-2l2 8 3 4 5-1 6-3 2 1-11 7-13 2-13-1 4-3 2-1v-3l-2-1h-14v4l4 4h-5l-3-3-1-5 5-6-4-4-1-4 4-7z" fill="#F9A88F"/>
<path transform="translate(621,1034)" d="m0 0h1l1 14 4 6 5 4 5 2 4 20 3 10-1 3-9-17-6-1-8 21-3 4v-10z" fill="#27252D"/>
<path transform="translate(1197,1216)" d="m0 0h18l10 2v9h-51l-6-5-3-2 20-3z" fill="#27262E"/>
<path transform="translate(329,880)" d="m0 0 7 4 7 5-1 21-1 11-1 3-14 6-7 5v-3l11-14 1-9-2-18z" fill="#EB8842"/>
<path transform="translate(585,1200)" d="m0 0h5l3 3-3 4-1 3 9 3 8 3-8 8-6 1-14-4-8-5-1-9 2-3z" fill="#2C3843"/>
<path transform="translate(1286,463)" d="m0 0 1 3 6 1-1 4-15 3-1 1-17 2h-11v2l-7 4-10 10-11 14-3 3-1-2 9-19 3-9 1-6 2-3 9-1 1 1 14 1h18l13-2z" fill="#F3B446"/>
<path transform="translate(1247,692)" d="m0 0h1l7 34 8 27 8 22h9v1l-29 5h-8v2h-11l4-2 22-4 10-2-2-7-5-1-11-7-9-9 2-1 3 1h7l6-2-6-21-5-21-5 6-7 16-2 12-2-4v-7l4-11 8-11 2-2z" fill="#D16A33"/>
<path transform="translate(1197,923)" d="m0 0 3 3 2 11 1 13v13l-1 3-5-2-9-5-3-2 1-9 3-21h1l1 6 5-9z" fill="#39414E"/>
<path transform="translate(1e3 602)" d="m0 0 5 1 1 5v18l-3 18-4 11-4 4-4-1-4-5-2-8v-5l11-4h4l-1-23-2-10z" fill="#D75737"/>
<path transform="translate(244,798)" d="m0 0h8l2 1-1 6-1 8 5 5 8 2 17 2 3 2h-33l-27 2 6-7 12-12-1-4-1-3z" fill="#F7A58B"/>
<path transform="translate(1252,493)" d="m0 0h7l8 4 2 3v7l-11-4-9 1-27 14-12 5-3-1 7-7 17-12 12-7z" fill="#F1DB8E"/>
<path transform="translate(1148,840)" d="m0 0h1l1 14v41l-2 71-5 142h-1v-36z" fill="#AAB8D1"/>
<path transform="translate(1278,645)" d="m0 0h2l3 25 5 25 11 35 3 8-1 3-11-25-10-28-7-25-2-10 1-5h4v-2z" fill="#EA8641"/>
<path transform="translate(288,1170)" d="m0 0h8l13 4 12 6-4 2-2 5 5 2 10 8 10 12-1 2-12-12-13-9v-2l-15-5-16-3-12-1 3-3h6l1-3z" fill="#2D4653"/>
<path transform="translate(912,614)" d="m0 0h3l2 4 10 7 1 1-1 7-14 2h-8l-6 1-3-3v-9l4-5z" fill="#FAA991"/>
<path transform="translate(1178,325)" d="m0 0 12 3 16 2h19l2-4 3 1 1 2 1 11-3 3-13-1-25-6-14-7v-3z" fill="#EA8843"/>
<path transform="translate(1168,1109)" d="m0 0h30l3 3v14l2 5-10-3-23-12-8-2 2-4z" fill="#39424F"/>
<path transform="translate(409,881)" d="m0 0 4 2 10 8 13 13 7 8 11 10 14 8 11 3h10l11-4 11-6 10-8 10-9 5-4 1-2h3v-2l5-1-5 5-10 9-8 8-14 10-16 8-6 1h-16l-8-4-10-9-7-8-25-25-8-7z" fill="#8192B3"/>
<path transform="translate(638,971)" d="m0 0h41l26 3 22 5 13 4v1l-13-1-58-6-25-2-6-1z" fill="#F1DB8E"/>
<path transform="translate(1346,311)" d="m0 0h6l1 2 1 13 6 18 2 9v7h-1l-2-10-20-1-5-4 8-7 3-7 2-12v-3l-2-4z" fill="#F1A446"/>
<path transform="translate(680,801)" d="m0 0h2l6 12 1 4v13l-7 19-6 12h-1v-13l4-41z" fill="#D75737"/>
<path transform="translate(296,846)" d="m0 0h5l-3 8-6 4-9 3-5 3-10 2h-9v-2l5-3 1-2 1-9 1-1z" fill="#E88342"/>
<path transform="translate(1242,665)" d="m0 0h1l3 27 1 6v8l-7 8-6 12-1 4v7l4 10 8 9h-3l-8-6-6-7-2-5v-8l5-13 10-19 2-3-2-10v-12z" fill="#F1DB8E"/>
<path transform="translate(646,1136)" d="m0 0h13l4 1-1 4-6 7-12 9-5 1-3-2-1-7-3-1-1-7 6-3z" fill="#21161F"/>
<path transform="translate(529,462)" d="m0 0h6l1 1v6l-5 10-8 7-1 1h-15l-1-2 6-11 8-7 6-4z" fill="#27262E"/>
<path transform="translate(428,799)" d="m0 0h4v13l-5 46-2-1-4-18v-21l3-16 1-2z" fill="#9FA3B6"/>
<path transform="translate(315,1137)" d="m0 0 9 1 13 5 9 5 2 13v6l-5-5-6-5-16-8-9-1z" fill="#62768B"/>
<path transform="translate(397,754)" d="m0 0 7 1 1 2 2 13 4 7-1 5-9 9-7 12-1-3 2-10 1-17-2-18z" fill="#ADC1DD"/>
<path transform="translate(1243,782)" d="m0 0h17l-4 2-27 9-15 7h-2v2l-11 4h-6l2-5 11-8 13-6 15-4z" fill="#F0DA8C"/>
<path transform="translate(518,905)" d="m0 0 7 2-1 3-10 7-17 6-7 1h-11l-10-2-11-6 3-1 6 2h19l12-3 16-8z" fill="#8595B7"/>
<path transform="translate(1309,762)" d="m0 0 3 1 1 5-10 5-20 7-21 5-27 8-20 8-3-1 17-8 27-9-13-1v-1l32-5h5v-2l24-6 1-3z" fill="#EFAC45"/>
<path transform="translate(296,1135)" d="m0 0h16l3 1-1 10-2 2h-3v8l-5-1-15-9-2-5-1-3z" fill="#221720"/>
<path transform="translate(601,906)" d="m0 0 4 1 5 6v3l-13 5-9 7-5 10-2 6-3 1 1-10 3-17 6-5z" fill="#22161E"/>
<path transform="translate(1266,365)" d="m0 0 7 1 4 3 1 10-5 10-4 2h-9l1-8-1-9-4-5z" fill="#F8BBA3"/>
<path transform="translate(396,697)" d="m0 0h7l2 1-2 6-6 8-8 8-11 7-5 2h-6l6-7 12-12 9-11z" fill="#9FA4B7"/>
<path transform="translate(347,1149)" d="m0 0h2l2 3 5 3 4 6 5 5 6 10h-9l-8-2-1 11-3-3-3-21z" fill="#211620"/>
<path transform="translate(564,577)" d="m0 0 4 3 3 1 27 2-2 5-6 5-7 3-8-1-6-4-7-8 1-5z" fill="#E98241"/>
<path transform="translate(1184,963)" d="m0 0 6 1 6 5 6 11-1 7-6 5h-6l-2-1-3-17z" fill="#20151E"/>
<path transform="translate(550,913)" d="m0 0 7 1 9 8 1 4-3 3-13 4h-6l-2-2-1-7-1-2 2-5z" fill="#FAAA93"/>
<path transform="translate(1200,519)" d="m0 0h6l-6 7-9 8-4 5-28 14-2-1 16-13 6-7 1-3-3-1 14-6z" fill="#EB8843"/>
<path transform="translate(941,568)" d="m0 0h1l1 9 4 6 4 3 4 1 13 1 2 2v3l-19 7h-6l-3-4-3-16v-8z" fill="#342D35"/>
<path transform="translate(1209,387)" d="m0 0 7 2 14 8 6 2h6l-2 6-9 3h-10l-6-4-4-5-2-7z" fill="#E98241"/>
<path transform="translate(547,451)" d="m0 0h10l10 4 9 8 4 8-3 1-6-3-11-2-8-5-5-5-1-5z" fill="#41525F"/>
<path transform="translate(687,863)" d="m0 0h1v13l-3 23v15l3 6-1 4-14-9 2-9 8-28 3-14z" fill="#D57337"/>
<path transform="translate(496,487)" d="m0 0 11 2 7 3 1 5-5 6-2 1h-7l-10-3-5-5v-3l7-5z" fill="#41525F"/>
<path transform="translate(1248,478)" d="m0 0 4 1-1 7-4 5-7 6-4 4-15 10-5 1 6-9 12-14 8-8z" fill="#EB8842"/>
<path transform="translate(411,736)" d="m0 0 4 2 3 6v19l-2 14-2 2-6-8-1-3v-11z" fill="#5F7388"/>
<path transform="translate(1454,655)" d="m0 0 1 4-3 9-4 5-4 2h-6l-2-1h-7l-9 4-1-1v-15l7-1h11l2 7h8l4-4z" fill="#38414E"/>
<path transform="translate(1059,1216)" d="m0 0 3 1v2l4 1h36l2 1h5l1 4 5 1v1h-42l-15-3-4-3 1-4z" fill="#2A3641"/>
<path transform="translate(740,724)" d="m0 0 8 2 4 5-2 6-5 5-8 1-6-3-3-4 1-6 6-5z" fill="#2F2F38"/>
<path transform="translate(554,513)" d="m0 0h9l8 3 1 2 2-1-1 6-1 2h-23l-14 3 6-8 6-5z" fill="#4C565F"/>
<path transform="translate(1260,1110)" d="m0 0 1 2-4 5-10 6-13 6h-8l3-10 2-5 24-3z" fill="#61748A"/>
<path transform="translate(302,1126)" d="m0 0h17l12 5 11 7 2 3-9-2-7-1-3-1v-2l-11-1-26-1 1-3z" fill="#38414E"/>
<path transform="translate(631,1170)" d="m0 0h3l-1 3h-2v2l-7 6v11l-9 8-4-1-5-5 1-5 3-6 13-9z" fill="#324655"/>
<path transform="translate(1291,445)" d="m0 0 1 2-4 15-1 1-1 7-9 2-4 1h-18l-4-2 17-5 8-5 10-10z" fill="#EB8945"/>
<path transform="translate(1209,409)" d="m0 0 9 3 16 2 2 2-3 6-3 3-5 1h-12l-4-2-1-2z" fill="#FCFAFA"/>
<path transform="translate(1288,1193)" d="m0 0h1v13l-12 2h-12l1-5-4-6-1-2z" fill="#27262E"/>
<path transform="translate(1192,768)" d="m0 0h15l1 4-12 18-6 10h-1v-15l1-16z" fill="#EB8742"/>
<path transform="translate(937,657)" d="m0 0 2 1 3 10 1 2 3 2-4 1-15 1-6 1-3-3v-7l3-4z" fill="#F6A386"/>
<path transform="translate(589,466)" d="m0 0 7 1 8 5 2 5-1 10-3 12-4 1-3-16-7-15z" fill="#2E3842"/>
<path transform="translate(560,800)" d="m0 0h1v31l3 18 3 11-5-4-7-12-2-7v-11l3-15z" fill="#8796B7"/>
<path transform="translate(214,778)" d="m0 0h6l5 4 9 12-1 7h-8l-6-3-4-6-1-3z" fill="#FBAB94"/>
<path transform="translate(490,636)" d="m0 0 2 1-2 8v10l3 8 6 4 8 2 10-1 10-5 6-7 4-9 2 1-1 9-7 8-10 6-8 3h-10l-7-3-7-8-3-8v-12z" fill="#9199B0"/>
<path transform="translate(550,536)" d="m0 0h6l-2 7h2l-1 7 3 4 4 2-6 4h-6l-6-4-4-7v-5l8-7z" fill="#F9FAFB"/>
<path transform="translate(481,545)" d="m0 0 8 2 8 6 5 5-1 2-3-1 2 9-2 2h-6l-5-3-1-2 1-14h-7l-3 4-2 4-1-3 2-8z" fill="#DA5D39"/>
<path transform="translate(1259,476)" d="m0 0h7v10l-2 9-5-1h-7l-11 4-2-1 10-9 2-5v-4l-3-2z" fill="#F1A145"/>
<path transform="translate(1116,633)" d="m0 0 3 1-19 9-15 5-23 5-10 1v6h-1v-6l-17 2h-7l4-2 23-5 31-6 22-6z" fill="#D3703A"/>
<path transform="translate(1457,620)" d="m0 0 6 1 7 8 1 3v19l-2 10-6 15-7 13-8 10-6 4h-5l3-2 8-7 7-11 7-15 4-14 1-6v-12l-4-11-6-4z" fill="#374A5A"/>
<path transform="translate(1317,416)" d="m0 0h13l6 3 2 3-1 6-3 5-1-3v-6l-4-4h-3l-3 9-4 4h-6l-5-3 1-5 4-4-3-3z" fill="#D95B38"/>
<path transform="translate(533,674)" d="m0 0h3l-1 5-5 6-10 7-11 5h-12l-8-7-5-8 1-2 7 8 8 3 9-1 12-6z" fill="#ADC2DE"/>
<path transform="translate(571,865)" d="m0 0h5l-1 8-2 4-10 4-14 8-7 5-2-1 7-8 10-11 11-8z" fill="#8595B7"/>
<path transform="translate(1205,402)" d="m0 0 3 2v2l4 2 11 3 7 1h10l-1-2 5 1 3 5-1 4-1-4h-3l-6 7-12 6-7 2h-6l-4-3-1-6zm4 7-1 13 3 3 2 1h12l6-2 4-5 1-4-2-1-16-2z" fill="#D96B39"/>
<path transform="translate(1179,1129)" d="m0 0 24 5 15 1-4 1-1 4-8 3h-9l-11-4-5-5z" fill="#8D96AD"/>
<path transform="translate(629,1142)" d="m0 0h2l1 6 4 1v7l-12 2-8 5-2-1 3-3h2v-2l6-4 9-1 1-2-11 1-10 4-10 9-7 9h-1l1-9 10-9 14-9z" fill="#64768C"/>
<path transform="translate(554,532)" d="m0 0h9l4 3-1 13-3 6h-6l-3-4 1-4 1-3h-2l1-6-7 1-8 6 2-4 7-6z" fill="#2F2D38"/>
<path transform="translate(505,859)" d="m0 0 7 2-3 9-4 6-5 3h-18l-2-2 10-4 8-7h2l2-4z" fill="#9FA3B6"/>
<path transform="translate(653,854)" d="m0 0 1 2-8 15-9 12-10 9-16 9-18 10-1-2 19-11 10-8 10-9 12-13z" fill="#FAA992"/>
<path transform="translate(896,643)" d="m0 0h14l3 2-1 4-4 2 11 1 13-1 1 5-11 1h-13l-9-5-6-5z" fill="#FDB89D"/>
<path transform="translate(1349,385)" d="m0 0 7 1-2 5-9 14-3 6-5-2-8-2 2-5h5l2-4 10-11z" fill="#D7E7F1"/>
<path transform="translate(296,1224)" d="m0 0h6l-3 9v3l-17 1-5-1-1-2v-7l17-2z" fill="#314554"/>
<path transform="translate(572,969)" d="m0 0h1l1 10v13l-4 4-4 1-4-2-1-16 6-3z" fill="#F9A88F"/>
<path transform="translate(385,911)" d="m0 0h6l2 2-1 12-3 10-3 6-4-1v-25z" fill="#303339"/>
<path transform="translate(213,837)" d="m0 0h8l4 4-1 5-6 5h-11l-5-4 1-4 7-5z" fill="#29272F"/>
<path transform="translate(1034,488)" d="m0 0h9l-3 2-46 20-35 7h-6v-1l25-6 27-9 18-8 7-4z" fill="#435360"/>
<path transform="translate(378,760)" d="m0 0 3 4 5 19 1 6v19l2 2-5 2-8 8-5 1 6-9 4-9 1-4v-18l-5-17z" fill="#AEC3DF"/>
<path transform="translate(381,189)" d="m0 0h7l4 4v6l-4 5-6 1-6-3-4-5 2-5z" fill="#394C5B"/>
<path transform="translate(416,730)" d="m0 0 2 2 1 3v26h-1l-1-17-4-7-2-1-1 9-2 12v11l4 8 2 3-3 2-3-7-3-8v-27l1-7 1-1z" fill="#9DA4B9"/>
<path transform="translate(1076,584)" d="m0 0h20l24 2 5 1-2 4-4 1-27-2-16-3z" fill="#EB8742"/>
<path transform="translate(1202,440)" d="m0 0 4 5 3 3 9 2 22 1 24-1-4 2-17 3-1 2-26-1-8-4-5-6z" fill="#EB8946"/>
<path transform="translate(1217,298)" d="m0 0 9 1 28 7 3 2-7 2-17 1-3 1-10-11z" fill="#F0D689"/>
<path transform="translate(553,590)" d="m0 0 5 5 8 5 7 2 9 1v2l-13 7h-6l-5-5-4-11z" fill="#E17240"/>
<path transform="translate(1254,370)" d="m0 0 4 1 3 3 1 9-1 6-1 2-10-3-4-5 2-7z" fill="#313D49"/>
<path transform="translate(209,820)" d="m0 0h4l1 6 4 1-26 3h-8l-1-6 6-2 5-1z" fill="#EC9F4A"/>
<path transform="translate(1225,1109)" d="m0 0h7v4h10v1h-11l-3 10-4 13-16-2 1-2 9-1 2-3 2-17z" fill="#39424E"/>
<path transform="translate(254,857)" d="m0 0h6l1 4-5 5-5 4-3 1h-7l-13-11-1-2 4 2 1 1h19z" fill="#FBAC94"/>
<path transform="translate(636,829)" d="m0 0 25 1-1 4-5-2h-15l-15 4-13 5-5 1-2 4-3 1v-6l4-4 13-5z" fill="#6F6D74"/>
<path transform="translate(1e3 602)" d="m0 0 5 1 1 5v18l-2 12h-5l-1-2h2l-1-23-2-10z" fill="#36353D"/>
<path transform="translate(526,617)" d="m0 0 4 2 11 7 12 5 7 2 15 1v3l-3 2h-14l-13-5-8-6-11-10z" fill="#EB8A48"/>
<path transform="translate(339,747)" d="m0 0h10l9 6 9 9-1 2-9-7-7-3h-5l-14 10-1-3 6-11z" fill="#8797B8"/>
<path transform="translate(490,595)" d="m0 0h11v2l-36 3-38 5-23 4-4-1 3-2 35-6 40-4z" fill="#F3C157"/>
<path transform="translate(1498,636)" d="m0 0h17v16l-3 28-1 2-4-1 2-7 1-10v-21l-3-3-7-1-4 1z" fill="#455664"/>
<path transform="translate(559,1159)" d="m0 0h16l2 12h-19z" fill="#20141D"/>
<path transform="translate(421,824)" d="m0 0 8 1 1 6-3 27-2-1-4-18z" fill="#8595B7"/>
<path transform="translate(633,801)" d="m0 0h8l7 4h17l1 6-10-2h-23l-13 3 5-6z" fill="#8797B8"/>
<path transform="translate(604,719)" d="m0 0h3l5 11 3 9-1 4-2-5h-2v-3l-14-1-1-3 6-9z" fill="#AEC2DD"/>
<path transform="translate(375,783)" d="m0 0h1v15l-3 7-14 6-26 7-11 2h-8v-1l25-5 18-6 10-6 6-10z" fill="#E88440"/>
<path transform="translate(273,1176)" d="m0 0 15 1 15 4 16 7 11 9 10 12-1 2-12-12-13-9v-2l-15-5-16-3-12-1z" fill="#272831"/>
<path transform="translate(545,878)" d="m0 0 3 1-15 10-16 8-8 3h-5l3-3 14-8h2v-2l11-5z" fill="#6E8097"/>
<path transform="translate(605,486)" d="m0 0 6 2 5 4 1 2v9l-3 9-2 1-2-9-5-10h-2l1-7z" fill="#312E38"/>
<path transform="translate(491,637)" d="m0 0h1l3 16 6 10 8 4 8 1-4 2-11-1-8-4-4-6-1-4v-10z" fill="#D36E34"/>
<path transform="translate(583,769)" d="m0 0h2l-2 5-8 11v13l-7-2-5-4 10-14 7-7z" fill="#63778D"/>
<path transform="translate(1231,471)" d="m0 0h8l-4 2 8 4-6 7-8 8-3 1 1-11 2-8z" fill="#F1D98B"/>
<path transform="translate(374,1159)" d="m0 0h18l1 10-20-1v-8z" fill="#20141D"/>
<path transform="translate(1296,294)" d="m0 0 4 1-8 5-4 4-6 3-12 2h-8l3-3 21-9z" fill="#EC9347"/>
<path transform="translate(623,1143)" d="m0 0 2 1-9 6-14 10-4 4-3 13-13 4h-2v-2l5-5 12-13 13-10z" fill="#231922"/>
<path transform="translate(1197,1216)" d="m0 0h18l10 2-1 8h-18l-1-5 1-3-9-1z" fill="#2D2A35"/>
<path transform="translate(1220,478)" d="m0 0 7 1 1 3-2 7-7 14h-1l-1-6v-17z" fill="#D75937"/>
<path transform="translate(574,785)" d="m0 0 15 5 10 5-3 2h-20l-2-3z" fill="#ADC2DE"/>
<path transform="translate(571,529)" d="m0 0h1l-1 13-5 16-4 6h-7l-4-3 7-3 3-2-3-2 5-1 2-5 1-15h5z" fill="#F5A58A"/>
<path transform="translate(611,519)" d="m0 0 6 1-3 9-1 2h-8l-9 3 1-6 3-5h3l4-3z" fill="#4B5661"/>
<path transform="translate(349,738)" d="m0 0h14l8 7 6 13-1 3-5-8-6-5-9-4-7-2z" fill="#8B9BBB"/>
<path transform="translate(602,539)" d="m0 0 5 1 1 5-2 12-2 3-4-1-2-6 2-4h-2l1-5-5 2 2-4z" fill="#2B2832"/>
<path transform="translate(544,474)" d="m0 0h4l1 7 5-1 2 2-28 5-4 1 5-6h2v-2z" fill="#27262E"/>
<path transform="translate(1273,354)" d="m0 0h7l10 2 1 2v13l-2 4-11-16z" fill="#394350"/>
<path transform="translate(1300,345)" d="m0 0 4 1 3 5v4l-14-2-14-3-2-3 8-1h13z" fill="#F0B043"/>
<path transform="translate(550,979)" d="m0 0h9l2 15v5l5-1-2 4-7 1-7-22z" fill="#FBAB94"/>
<path transform="translate(332,901)" d="m0 0h1l5 19 1 4-16 8-5 3 2-5 8-9 3-6z" fill="#D57437"/>
<path transform="translate(394,608)" d="m0 0h5v2l-26 6-26 8-21 9-11 7-2-1 8-6 16-8 19-7 29-8z" fill="#F3C155"/>
<path transform="translate(898,624)" d="m0 0h12l4 3-2 4-4 3-9 2-3-3v-8z" fill="#FFBCA0"/>
<path transform="translate(1160,688)" d="m0 0 2 4 7 22-8 4h-2v-29z" fill="#9FA3B6"/>
<path transform="translate(605,530)" d="m0 0h6l1 1-1 7-4 3-5-1-7 2-3-1 3-8z" fill="#E78443"/>
<path transform="translate(949,560)" d="m0 0 4 1 9 7-1 5-7 1-7-3-1-5z" fill="#FBFBFA"/>
<path transform="translate(283,1132)" d="m0 0 2 2 3-2 26 1 11 2v2l-5 1-8-2h-16l-10 2 3 5v2l-5-2-2-2z" fill="#35343B"/>
<path transform="translate(375,798)" d="m0 0h1v8l-2 9-2 2-10-1-5-5 14-6h2z" fill="#A2AABE"/>
<path transform="translate(641,814)" d="m0 0h15v2l-12 2-21 7-11 6-2-1 9-7 14-7z" fill="#8E9CBC"/>
<path transform="translate(423,867)" d="m0 0 6 2 19 11 15 7-2 5-5-2-15-9-17-12z" fill="#AEC3DF"/>
<path transform="translate(1479,1166)" d="m0 0h2l-1 15-2 4-13 3h-5l5-4 8-7z" fill="#AFBCD3"/>
<path transform="translate(542,888)" d="m0 0 2 1-3 5-2 1v2l-11 9-3 2-9-2 3-3 16-10z" fill="#ACC0DC"/>
<path transform="translate(1300,293)" d="m0 0h14l4 2 1 2-16 2-12 5-14 7-3-1 15-8h2l2-4 5-3h2z" fill="#F2C665"/>
<path transform="translate(274,1040)" d="m0 0h1l2 8 1 14 2 4v10l3 4v11l2-1-1 5-3 1-2-4-1-12-4-28-1-11z" fill="#F3B84B"/>
<path transform="translate(599,470)" d="m0 0 4 1 3 6-1 10-3 9-2 1-2-5z" fill="#2D2934"/>
<path transform="translate(485,896)" d="m0 0 19 1 2 4-8 1h-17l-8-4v-1z" fill="#8495B8"/>
<path transform="translate(539,484)" d="m0 0 10 1 4 2-1 3-8 2h-10l-3-1-1-5z" fill="#394855"/>
<path transform="translate(1419,647)" d="m0 0 1 3-2 12h-10v-11z" fill="#D2E3F1"/>
<path transform="translate(518,905)" d="m0 0 7 2-1 3-10 7-4-2-9-2 2-2 11-5z" fill="#A1A8BC"/>
<path transform="translate(549,534)" d="m0 0 13 1 2 3-4 1-1 2v6l2 3 4 1-2 3h-6l-3-4 1-4 1-3h-2l1-6-7 1-8 6 2-4z" fill="#334756"/>
<path transform="translate(1232,339)" d="m0 0 4 1 3 4 3 1h-2l-1 7-6 12-1-2 1-7v-9l-4 1-2 2 1-6z" fill="#E6823F"/>
<path transform="translate(529,806)" d="m0 0h2l10 23 3 5v2l-6 1-9-27z" fill="#9FA3B6"/>
<path transform="translate(309,1148)" d="m0 0h2l1 2 10 1 7 4 5 6-1 3-2-1v-2l-5-1-9-4-8-1z" fill="#8F9EBC"/>
<path transform="translate(1212,475)" d="m0 0h7l10 2v3l-9-1-2 1v17l1 7-3 5-1-3v-14l-4-16z" fill="#EC8E46"/>
<path transform="translate(1263,759)" d="m0 0h2l6 16h9v1l-29 5h-8v2h-11l4-2 22-4 10-2-6-13z" fill="#D16B33"/>
<path transform="translate(1253,502)" d="m0 0h5l7 6-1 2-6-4-9 1-25 12-7 4-2-1 4-4 17-8 13-7z" fill="#E38B3C"/>
<path transform="translate(480,631)" d="m0 0h13l-1 5-9 3-5 6h-1l-1-13z" fill="#D26D33"/>
<path transform="translate(1344,1125)" d="m0 0 7 1 1 9-6 8-3 1-2-6 3-4z" fill="#D6E7F4"/>
<path transform="translate(1228,610)" d="m0 0 9 1 13 4 1 6-5 6-2-3-4-7-12-6z" fill="#F09D44"/>
<path transform="translate(1225,352)" d="m0 0 3 1 2 4-1 4 1 5-3 5-6-5 1-9z" fill="#302E39"/>
<path transform="translate(354,1200)" d="m0 0 9 1 10 3v2l-12 3h-5l-4-7h2z" fill="#455664"/>
<path transform="translate(544,991)" d="m0 0 4 1 5 9v2l-4 2h-5l-3-4 1-9z" fill="#FEBB9F"/>
<path transform="translate(1148,840)" d="m0 0h1l1 14v41l-3 3v-17z" fill="#ABB9D2"/>
<path transform="translate(1205,402)" d="m0 0 3 2v2l4 2 11 3 7 1h10l-1-2 5 1 3 5-1 4-1-4-8-1-15-1-11-4h-2l-2 5h-1z" fill="#DF6F3F"/>
<path transform="translate(585,1200)" d="m0 0h5l3 3-4 6-9-1-9-3 4-2z" fill="#455664"/>
<path transform="translate(1261,621)" d="m0 0 1 2-6 8-6 5-9 3-9-2-8-5-4-4 1-2 8 7 2 1h13l3 1v-2l6-3 5-6h2z" fill="#D65937"/>
<path transform="translate(608,909)" d="m0 0 9 2h15l3 3-6 2h-16l-1 2-4-7z" fill="#D16B33"/>
<path transform="translate(484,680)" d="m0 0 5 5 5 4 11 3 4 2v3h-12l-8-7-5-8z" fill="#A0A7BB"/>
<path transform="translate(1200,1022)" d="m0 0 2 3 9 26v5l-5 1-3-19-3-12z" fill="#2E2934"/>
<path transform="translate(194,821)" d="m0 0h3l1 7-6 2h-8l-1-6 6-2z" fill="#F2BB4A"/>
<path transform="translate(1251,755)" d="m0 0h9l5 13-6-2-10-7-1-2z" fill="#EB8742"/>
<path transform="translate(1250,376)" d="m0 0h5l3 4-1 6-2 2h-5l-2-2v-7z" fill="#27252D"/>
<path transform="translate(329,979)" d="m0 0 1 4-3 26-3 16h-1l1-16 2-24z" fill="#27252D"/>
<path transform="translate(211,841)" d="m0 0h8l2 1-1 4-6 3-7-1-2-4z" fill="#DB694D"/>
<path transform="translate(1227,783)" d="m0 0h4v2l-15 5-13 7-4 3-5 3-3 2 2-4 7-6 16-8z" fill="#E5893E"/>
<path transform="translate(1231,345)" d="m0 0 3 1v9l-2 11-4-5 2-1-4-8v-3h2l1-3z" fill="#F5A286"/>
<path transform="translate(382,804)" d="m0 0h4v5l3 1-5 2-8 8-5 1 6-9z" fill="#9FA6BC"/>
<path transform="translate(1247,699)" d="m0 0h1l1 7-6 7-7 16-2 12-2-4v-7l4-11 8-11 2-2z" fill="#F2B044"/>
<path transform="translate(556,599)" d="m0 0 4 2 4 5 2 1 12-1-5 4-4 2h-6l-5-5-2-4z" fill="#D75E37"/>
<path transform="translate(316,1187)" d="m0 0 7 4 10 9 7 9-1 2-12-12-13-9 2-1z" fill="#2B2E38"/>
<path transform="translate(235,1207)" d="m0 0 1 2-1 3 8 3v1l-10 2-7 5h-2l-1 3v-5l9-11z" fill="#303D4A"/>
<path transform="translate(1221,358)" d="m0 0 1 4 1 5 3 4-5 2-7-1v-5z" fill="#E37C44"/>
<path transform="translate(1317,416)" d="m0 0h13l6 3 2 3-1 6-3 5-1-3v-6l-4-4h-3l-1 2-1-4-7-1z" fill="#EB8742"/>
<path transform="translate(529,987)" d="m0 0 4 1 4 5v5l-1 1h-6l-2-2v-9z" fill="#FEBA9E"/>
<path transform="translate(544,483)" d="m0 0h14l10 4 14 10 1 2-5-2-9-6-9-4-17-2z" fill="#E37C3D"/>
<path transform="translate(1272,362)" d="m0 0 5 2 3 4v8l-3 9-3 3 3-9-1-10-5-3h-9l4-3z" fill="#352B30"/>
<path transform="translate(481,545)" d="m0 0 8 2 3 3-4 4-1-3h-7l-3 4-2 4-1-3 2-8z" fill="#EB8742"/>
<path transform="translate(625,1149)" d="m0 0h11v7l-12 2-8 5-2-1 3-3h2v-2l6-4 9-1 1-2h-10z" fill="#8B9BB9"/>
<path transform="translate(608,831)" d="m0 0 5 1v3l-9 4-2 8 2 1-2 3-5-3 2-5 1-5z" fill="#8796B7"/>
<path transform="translate(1241,659)" d="m0 0h3l3 27v12h-1l-3-23-2-2z" fill="#E89240"/>
<path transform="translate(273,852)" d="m0 0h11l-6 7-4 3h-3v-8z" fill="#FEB79D"/>
<path transform="translate(259,850)" d="m0 0h7v9l-5 5-3 1 2-4 2-6-11-3v-1z" fill="#D95B38"/>
<path transform="translate(921,667)" d="m0 0h9l4 2-1 4-11 1-2-2z" fill="#FEBB9F"/>
<path transform="translate(583,769)" d="m0 0h2l-2 5-8 11-5-2 4-6z" fill="#8898BA"/>
<path transform="translate(563,985)" d="m0 0 4 1 4 6-1 4-4 1-4-2v-8z" fill="#FEBA9E"/>
<path transform="translate(409,869)" d="m0 0 5 1 13 13 8 10-1 2-10-10-7-8-8-6z" fill="#8393B4"/>
<path transform="translate(296,848)" d="m0 0h4l-2 6-6 4-9 3-5 3h-5l5-4 7-3 8-1 1-6z" fill="#FBAE96"/>
<path transform="translate(719,1221)" d="m0 0h2v4l-14 3-8 1h-23v-1l20-1 16-3z" fill="#2A343F"/>
<path transform="translate(345,753)" d="m0 0 8 1 10 6 7 8 1 4-5-4-4-5-7-5-12-2z" fill="#D16B33"/>
<path transform="translate(597,550)" d="m0 0h2l1 8 2 4-3 2h-5l-3-6v-2h6z" fill="#FBFCFC"/>
<path transform="translate(1286,463)" d="m0 0 1 3 6 1-1 4-15 3h-21v-1l17-1 13-2z" fill="#F1D88E"/>
<path transform="translate(550,967)" d="m0 0 1 4v10l6 20v2l4 1h-5l-9-25z" fill="#E7823F"/>
<path transform="translate(543,897)" d="m0 0 2 1-11 9-12 12-5 3 2-4 18-18h3v-2z" fill="#8494B5"/>
<path transform="translate(248,1217)" d="m0 0h11l16 2 2 3h-9l-17-3z" fill="#2A3641"/>
<path transform="translate(671,1173)" d="m0 0h13v7l-1 2-4-2-8-5z" fill="#211720"/>
<path transform="translate(254,857)" d="m0 0h6l1 4-5 5-3 2-3-2 3-8z" fill="#FEBA9E"/>
<path transform="translate(941,643)" d="m0 0 2 1-11 7-13 2-13-1v-1l23-3 10-4z" fill="#E2793D"/>
<path transform="translate(609,487)" d="m0 0 6 4 2 3v9l-2 7h-1l-1-12-4-8z" fill="#455565"/>
<path transform="translate(527,457)" d="m0 0 4 2v2l3 1-10 3-8 7-3 2 2-5 4-5z" fill="#2E3945"/>
<path transform="translate(1267,311)" d="m0 0 8 2 7 6 9 11-1 2-13-13-10-7z" fill="#D16B33"/>
<path transform="translate(595,763)" d="m0 0h15l4 2 1 3h-9l-6-1v-1l-7-1z" fill="#ABB9D2"/>
<path transform="translate(558,598)" d="m0 0 11 5 8 2-2 2-9 1-6-5z" fill="#FBF5F2"/>
<path transform="translate(278,1074)" d="m0 0 4 5 1 1v11l2-1-1 5-3 1-2-4z" fill="#F3BE56"/>
<path transform="translate(929,651)" d="m0 0h3l1 5-11 1h-13v-1l10-1v-3z" fill="#F09A7A"/>
<path transform="translate(1344,331)" d="m0 0 1 3-4 6-8 7-14 7-2-1 18-11 7-7z" fill="#F1DB8E"/>
<path transform="translate(610,1217)" d="m0 0 9 1 23 6 3 2-10-1-23-6z" fill="#20141D"/>
<path transform="translate(1e3 602)" d="m0 0 5 1v9l-4-1-1 4-3-9v-3z" fill="#302B32"/>
<path transform="translate(561,969)" d="m0 0h1v17l1 9 4 2-1 2h-5l-3-19z" fill="#E98441"/>
<path transform="translate(556,992)" d="m0 0 5 2v5l5-1-2 4-7 1-2-9z" fill="#FDB59B"/>
<path transform="translate(937,628)" d="m0 0 3 1-15 7-9 1-10-1v-1l21-3z" fill="#E47F3E"/>
<path transform="translate(599,542)" d="m0 0h6l1 2-3 1-1 2v8l4 2-2 3-4-1-2-6 2-4h-2z" fill="#2D3A45"/>
<path transform="translate(1290,356)" d="m0 0 18 2v1l-14 3-2 6h-1z" fill="#EF9877"/>
<path transform="translate(373,1169)" d="m0 0h13l18 1v1l-31 2z" fill="#FCFDFD"/>
<path transform="translate(646,1166)" d="m0 0 11 1 3 2-18 2-7 1-1-3z" fill="#314554"/>
<path transform="translate(1188,802)" d="m0 0 2 4 1 3h6v3l-6 5h-2l-1-3z" fill="#F0A94F"/>
<path transform="translate(1245,382)" d="m0 0 7 6 15 4v1h-13l-6-3-3-3z" fill="#E78340"/>
<path transform="translate(662,805)" d="m0 0h3l1 6-10-2-17-1v-1z" fill="#9BACC9"/>
<path transform="translate(1253,502)" d="m0 0h5l7 6-1 2-6-4-9 1-2 1h-6l4-3z" fill="#E7983F"/>
<path transform="translate(602,472)" d="m0 0h2l2 5-1 10-2 4h-1l-1-13z" fill="#27272F"/>
<path transform="translate(1258,777)" d="m0 0h6v2l-13 2h-8v2h-11l4-2z" fill="#D47134"/>
<path transform="translate(1346,311)" d="m0 0h6l1 2v8l-2 3-6-12z" fill="#EB8843"/>
<path transform="translate(610,914)" d="m0 0 4 5 5 7-1 2-8-7-8-1 2-3 6-1z" fill="#28262E"/>
<path transform="translate(407,752)" d="m0 0h1v16l4 8 2 3-3 2-3-7-3-8v-13z" fill="#8897B7"/>
<path transform="translate(1239,410)" d="m0 0 5 1 3 5-1 4-1-4-8-1-15-1 3-2h15z" fill="#F19665"/>
<path transform="translate(1237,789)" d="m0 0 5 1-4 2-21 8-5 1 4-3 18-8z" fill="#EC9E41"/>
<path transform="translate(1261,621)" d="m0 0 1 2-6 8-6 5-6 2v-3h3v-2l6-3 5-6h2z" fill="#D57335"/>
<path transform="translate(623,1143)" d="m0 0 2 1-9 6-14 10-5 4v-3l13-10z" fill="#29252E"/>
<path transform="translate(604,492)" d="m0 0 4 5 4 10-1 4-6-9-2-8z" fill="#E57F3F"/>
<path transform="translate(597,545)" d="m0 0 1 4h2l-1 3v-2h-2v6h-6v-5z" fill="#F6B9A1"/>
<path transform="translate(554,532)" d="m0 0h9l4 3v5h-2l-3-4-11-1v-2z" fill="#2C2B32"/>
<path transform="translate(435,895)" d="m0 0 4 2 2 4h2l5 5 12 9-3 1-10-8-10-9z" fill="#A9BCD9"/>
<path transform="translate(1165,616)" d="m0 0 8 1-3 2-10 3h-7v-2z" fill="#D16B33"/>
<path transform="translate(539,961)" d="m0 0 1 4-3 9v7l2 8-1 4-5-15 2-6z" fill="#E78240"/>
<path transform="translate(484,680)" d="m0 0 5 5 5 4 6 2-2 3-4 1-7-8-3-5z" fill="#AEC3DF"/>
<path transform="translate(557,545)" d="m0 0 4 5 4 1-2 3h-6l-3-4 2-4z" fill="#364A5A"/>
<path transform="translate(1454,655)" d="m0 0 1 4-3 9-4 5-4-1-2-3 7-2 3-5z" fill="#344352"/>
<path transform="translate(498,563)" d="m0 0 2 3-2 4h-6l-5-3 1-2h9z" fill="#D97337"/>
<path transform="translate(1207,791)" d="m0 0 2 1-4 4-6 4-5 3-3 2 2-4 7-6z" fill="#DB7239"/>
<path transform="translate(582,624)" d="m0 0h2l-2 5-7 6-15-1v-1l17-1 1-4z" fill="#FBAD95"/>
<path transform="translate(1311,423)" d="m0 0 2 1v3l3 3v2l3 1h-6l-5-3 1-5z" fill="#D97237"/>
<path transform="translate(426,794)" d="m0 0h7v9l-3-3h-5z" fill="#AAB6CE"/>
<path transform="translate(589,625)" d="m0 0 3 1 1 6h-10z" fill="#EB8C42"/>
<path transform="translate(1194,804)" d="m0 0 1 2 11-2-4 4-5 2-6-1 2-4z" fill="#F1AF43"/>
<path transform="translate(375,798)" d="m0 0h1v8l-2 9-2-3-4-2 4-3z" fill="#ABBED8"/>
<path transform="translate(1237,414)" d="m0 0h5l-2 5-4 4-3-1 3-7z" fill="#D86637"/>
<path transform="translate(1222,357)" d="m0 0h3l1 2v7l-1 2-4-2z" fill="#21171F"/>
<path transform="translate(1230,340)" d="m0 0 4 2 1 2v12h-1l-1-10-4 1-2 2 1-6z" fill="#2C2730"/>
<path transform="translate(1185,957)" d="m0 0 4 2 6 8-1 2-6-5-4-1z" fill="#2B2B33"/>
<path transform="translate(591,541)" d="m0 0h5l-1 4 2 1-4 4h-2l-1-5zm7 2 2 1-2 3-1-3z" fill="#DF9A81"/>
<path transform="translate(297,1151)" d="m0 0 5 2 5 3-2 3-6-1z" fill="#EFAD4E"/>
<path transform="translate(653,1116)" d="m0 0 3 4 6 12 1 4-6-5-4-12z" fill="#27252D"/>
<path transform="translate(1163,1163)" d="m0 0h2v11l-3 11-2-1 3-16-1-3z" fill="#2E4754"/>
<path transform="translate(310,1133)" d="m0 0 11 1 4 1v2l-5 1-10-3z" fill="#36353D"/>
<path transform="translate(265,860)" d="m0 0 5 3v2l-2 1h-9v-2z" fill="#FBAC95"/>
<path transform="translate(905,653)" d="m0 0h15l-1 3h-11z" fill="#FFBCA0"/>
<path transform="translate(594,482)" d="m0 0 2 2 2 13-1 2-2-2-2-5z" fill="#E17D3C"/>
<path transform="translate(1151,1156)" d="m0 0h1v12l-6 2 2-6z" fill="#AAB6CE"/>
<path transform="translate(1203,522)" d="m0 0m-1 1m-1 1m-1 1m-1 1m-2 1 2 1-4 5 4-1-3 3-6 3-2-1z" fill="#F1A944"/>
<path transform="translate(582,774)" d="m0 0h7v2l-10 6-2-1z" fill="#AEC3DF"/>
<path transform="translate(588,911)" d="m0 0 4 1-8 5-2 5-1 6h-1v-11z" fill="#ED9470"/>
<path transform="translate(547,896)" d="m0 0 4 1-1 4-3 2-5-1 3-5z" fill="#21161F"/>
<path transform="translate(287,848)" d="m0 0h5l-1 4-4 4h-2l1-7z" fill="#FDB69C"/>
<path transform="translate(207,840)" d="m0 0 4 2-5 2 1 3 2 2-2 2-5-4 1-4z" fill="#2C2B32"/>
<path transform="translate(1006,611)" d="m0 0 4 1v8l-5-1z" fill="#303339"/>
<path transform="translate(556,601)" d="m0 0h2l6 8 5 2v1h-6l-5-5z" fill="#D97437"/>
<path transform="translate(549,534)" d="m0 0 10 1-4 4v-2l-7 1-8 6 2-4z" fill="#5A565D"/>
<path transform="translate(350,1173)" d="m0 0 4 1-1 11-3-3z" fill="#393C47"/>
<path transform="translate(311,1148)" d="m0 0h10l5 2-4 1h-10z" fill="#C6D6E7"/>
<path transform="translate(1253,784)" d="m0 0m-4 1 6 1-4 2-6 2h-6l1-2z" fill="#EFA943"/>
<path transform="translate(1231,330)" d="m0 0 2 3 6 8v2l2 1h-2l-1 2-3-6-4-2z" fill="#35333A"/>
<path transform="translate(283,1132)" d="m0 0 2 3 1 3 3 5v2l-5-2-2-2z" fill="#3B3D49"/>
<path transform="translate(520,916)" d="m0 0m-1 1m-1 1m-2 1 2 1-1 3-9 6v-3l4-4z" fill="#7F8FAF"/>
<path transform="translate(1177,613)" d="m0 0 7 1-4 2-3 1h-10l1-2z" fill="#D46035"/>
<path transform="translate(455,598)" d="m0 0h12l-2 2-16 1v-2z" fill="#F3BB4B"/>
<path transform="translate(602,539)" d="m0 0 5 1-1 4-1-1h-6l-5 3 2-4z" fill="#2F272E"/>
<path transform="translate(1279,368)" d="m0 0h1v8l-3 9-3 3 3-9v-9h2z" fill="#513D39"/>
<path transform="translate(1232,339)" d="m0 0 4 1 3 7h-3v7h-1l-1-10z" fill="#DF723B"/>
<path transform="translate(1235,729)" d="m0 0h1l1 13 1 6-3-3-1-2v-10z" fill="#D87837"/>
<path transform="translate(1e3 599)" d="m0 0h6l3 3-9 1-3-3z" fill="#D65F36"/>
<path transform="translate(1008,583)" d="m0 0 5 1 3 2h-2v2l-8-1z" fill="#EC9342"/>
<path transform="translate(1052,221)" d="m0 0 14 1 3 2h-12l-5-1z" fill="#8797B9"/>
<path transform="translate(625,1153)" d="m0 0 2 1-1 1 2 2-8 3-4 3-2-1 3-3h2v-2z" fill="#99A6C2"/>
<path transform="translate(413,604)" d="m0 0 3 1h-2v2l-10 2-4-1 3-2z" fill="#F3C154"/>
<path transform="translate(561,969)" d="m0 0h1l-1 18-2-1-1-6z" fill="#E5813F"/>
<path transform="translate(296,848)" d="m0 0h4l-2 6-3 2-1-1v-5z" fill="#FEB99E"/>
<path transform="translate(296,846)" d="m0 0h5l-1 2-5 2-3 1v-3l-7 2 1-3z" fill="#E0733E"/>
<path transform="translate(1116,633)" d="m0 0 3 1-17 8v-3z" fill="#DB773B"/>
<path transform="translate(1269,601)" d="m0 0 1 4-4 12-4 4 1-5 4-9z" fill="#D67236"/>
<path transform="translate(446,599)" d="m0 0h3l-1 3-13 1 3-3z" fill="#F3C053"/>
<path transform="translate(1227,362)" d="m0 0h3l-1 7-3 2-2-3z" fill="#312F3A"/>
<path transform="translate(642,1167)" d="m0 0 4 1-7 4-4-1-1-2z" fill="#3A4D5D"/>
<path transform="translate(641,830)" d="m0 0h20l-1 4-5-2-14-1z" fill="#D16B33"/>
<path transform="translate(371,805)" d="m0 0h2l-2 4-5 2h-7l3-2z" fill="#828DA4"/>
<path transform="translate(1247,699)" d="m0 0h1l1 7-6 7-3 4v-4l6-7z" fill="#EC9A42"/>
<path transform="translate(1419,662)" d="m0 0h3l-1 10-1 5h-1z" fill="#344452"/>
<path transform="translate(719,1221)" d="m0 0h2v4l-3 1h-8l2-2z" fill="#292B34"/>
<path transform="translate(1258,622)" d="m0 0 1 2-6 7-6 3-2-1 8-6z" fill="#F1D683"/>
<path transform="translate(1e3 607)" d="m0 0h5v5l-4-1-1 4-1-6z" fill="#2F2B36"/>
<path transform="translate(1309,187)" d="m0 0 12 2-2 2-8 1z" fill="#FDFEFE"/>
<path transform="translate(411,707)" d="m0 0 3 3 1 4-6 1 1-6z" fill="#AAB7CF"/>
<path transform="translate(277,1064)" d="m0 0h2l1 7-1 3h-2l-1-8z" fill="#F3BB4D"/>
<path transform="translate(1191,925)" d="m0 0h4l-3 10-2-2z" fill="#35333A"/>
<path transform="translate(570,602)" d="m0 0 12 1v2l-5 1-8-2z" fill="#EF9158"/>
<path transform="translate(690,843)" d="m0 0h1v11l-3 4 1-11z" fill="#D77739"/>
<path transform="translate(598,553)" d="m0 0h2l2 2 4 2-2 3-4-1z" fill="#445362"/>
<path transform="translate(294,788)" d="m0 0 2 1z" fill="#FDFEFE"/>
<path transform="translate(296,787)" d="m0 0 2 1z" fill="#FDFEFE"/>
<path transform="translate(298,786)" d="m0 0 2 1z" fill="#FDFEFE"/>
<path transform="translate(300,785)" d="m0 0 2 1z" fill="#FDFEFE"/>
<path transform="translate(291,789)" d="m0 0" fill="#FDFEFE"/>
<path transform="translate(302,784)" d="m0 0" fill="#FDFEFE"/>
<path transform="translate(1137,546)" d="m0 0" fill="#FDFEFE"/>
<path transform="translate(1551,57)" d="m0 0" fill="#FDFEFE"/>
</svg>
