<?xml version="1.0" encoding="UTF-8"?>
<svg version="1.1" viewBox="0 0 2000 2000" width="2000" height="2000" xmlns="http://www.w3.org/2000/svg">
<path transform="translate(1686,128)" d="m0 0h4l1 184-1 50 9 2v1h-9l1 3v97l30 1v9l-5 51 2 6 11 7 10 7 17 12 13 9 18 12 18 13 5 3-1 5-8 17h-48l-7 1h-105l-2 2 9 30 18 61 13 43 14 48 20 67 16 54 5 18v11l-4 11-4 7 5 2 11 14 6 9 8 15 6 18 3 15 1 9v14l-10-2h-12l-11 4-8 6-6 9-3 12 1 11 4 10 7 8 9 5 6 2-3 5-11 11-6 5-7 4-6 2v5l13-2h16l11 2 14 7 7 6 7 10 5 12 3 13 1 9v20l-3 24-5 21-6 16-7 13-8 11-9 9-1 2-7 4-10 6-11 5-29 9-56 16-2 7-4 12-7 23-10 40-6 28 1 1 6-10 6-9 7-9 5-6 5-5 8-7 1-3 4-1 5-8 7-12 9-11 5-7 11-9 11-8 14-8 16-7 14-4 6-1h10l10 3 7 5 5 8 2 8v17l-5 17-7 12-7 8-10 6-9 3-5 1h-28l-28-4-25-5-4 1-10 9-5 4-7 8-7 9-9 13-7 12 1 6 1 1h63v29l-1 1h-11l-1 16-4 40-8 71 1 5 1 1h19l6-1 6 1 114 1v1l-37 1-331 1h-54l3 11 6 28 4 21v5h-4l2 8v4l-5 1 7 2 3 11 4 4 8-10 10-8 9-3 9 1 5 3 2 4v11l-4 6-5 6-7 4-12 6-5 2h-3v2h2v3l-7 1v3h16l4 1-1 3h-4l1 2 15 2 1 3-9 2 2 1 16 1v-3l47 4 72 8 60 9 32 6 28 6 22 6 21 7 16 8 8 6 3 3v2h2v11l-6 7-15 9-17 7-24 7-30 7-32 6-44 7-72 9-32 3-45 4-50 4-81 5-95 5-20 2h-22l-7-1-96 2h-208l-102-2-80-3-61-3h-19l-2-1-46-3-66-5-72-7-51-6-49-7-28-5-40-8-32-9-12-5-13-6-13-8v-2h-2l-2-4v-8l4-6 4-2v-2l16-9 20-7 6-1 9-60 17-117 1-2h-26l-97-1v-1h123l7-50 10-69 1-5h55v-146l-9 1h-18l-14-1h-3l-23-6-12-5-14-1v-1l5-1-10-7-16-12-17-17-10-14-8-14-6-13-7-21-4-20-1-10v-25l3-21 6-21 7-16 10-16 11-14 12-12 9-7h2v-3l6-3 19-10 22-8 23-5 25-4 11-1 1-605 2-9-5-2-9-19-4-13-3-18v-20l2-16 6-22 10-19 8-11 5-6 8-7 5-6 12-7 16-8 7-3 22-5 7-1 23-1h15v2l11 1 12 3 14 5 19 10 14 11 6 7 5 5 7 10 5 8 7 16 5 19 2 5v12l-1 22h486l16 4 14 7 10 9 7 7 8 16 4 16 1 129 12-23 2-7 1-30 4-13 5-9 8-8 6-4 7-9 10-8 11-5 13-4 21-1 11 2 9 4 8 6 8 9 7 14 4 13 3 9 5 16 3 12 15 14 8 9 7 11 7 17 3 14v8l8 1v5l61 4h17l9-2 19-13 13-10 16-12 6-4 1-2-8-1-9-4-6-4-3-4v-7l7-6 8-2 16 1 11 1h9l11-4 4-6 5-5 9-8 7-3h8l8 4 2-6 4-6 8-5 8 1 5 4h3l2-5h2l1-3 5-3 8-1 9 4 5 1 9-6 2-1h8l5 4 2 5h2l3 9h4l1-3 16-9 13-9 5-2v-2l11-7 3-1-5-51-1-14h31zm-437 459 2 4 9 11 8 13 8 18 6 20h5l-3-14-5-14-7-13-8-10-5-7h-2v-3l-3-1-4-4zm-155 30-5 10v10h1l5-17zm143 10 3 23h8l-3-9-6-14zm24 13 1 8-2 1 5 2h3l-2-6zm-141 18-2 7v16l5-5 3-5-5-13zm-31 14v7l1 5h-1v54l2-2 7-16 11-22 3-5v-2l-16 1-5-15-1-5zm429 363-33 10-1 3-1 8-5 5-9 4-11 2-9 9-18 9v2l-5 2-8 3-14 2-6 3h-24l-20-4-9-2 3 11 12 35 17 51 3 10 3 9 15 50 10 37 5 26 2 21h35l20 3 32 7 14 5 10 6 10 8 9 9 9 13 8 16 6 18 3 13 13 19 7 11 1-3-22-66-3-8-6-17h-2l1-3-3-8-17-8-24-9-20-8-16-8-11-7-12-10-9-12-8-16-5-14-5-26h-2v-7h1v-26l2-18 4-15 8-16 6-8 2-4 4-2 11-7 13-4 5-1h23l18 4 16 8 5 2 4 5 7 6 5 5 2 4 6 9 8 17 5 15 4 18 2 17v22l-3 23-6 22-12 29-3 12v10l12 36 10 31 13 44 2-3 6-32 9-36 10-32-2-6-9-19-10-27-6-23-2-15v-20l3-12 7-16 9-15 12-14 9-9 13-10 19-11 18-7 16-5-1-3-2 1-18 6-14 2-19 3h-26l-17-3-15-5-15-8-12-9-11-11-10-14-8-16-4-10-4-18-1-7v-36l-2-2zm-429 179v256l5 2 19-19 7-8 15-15 7-8 1-1v-7l-13-58-14-55-19-70-5-17zm313 174-9 20-10 19-7 12-14 23-4 5-14 20-9 12 1 10 8 33 14 64 6 27 7 32 1 2h18l1-3 5 3 107 1h49l-1-13-5-61-3-30-1-12-1-1v-13l-1-4h-11l1-29h46l21-1v-6l-10-21-10-17-8-11-2-3-22-1h-30l-40 2h-22l-13-4-11-8-10-12-11-21-5-14zm-227 259-8 8v2h-2l-5 7-3 3h33l-1-5-12-14zm-22 24-3 3v2h-2v5l16 1 12 3 6 4 3 1 2 5 1 4-2 9-4 4-5 2h-9l-13-4-10-5-6-4h-2v3l-5 1 2 5 3 5 1 4-5-1-2-5-4-2 2 5h2l2 5 5 8-1 4h-3l2 6 3 5 1 4-4-2-3-3 5 28 5 27h1l1-5 1 1 57 2h19l1 3-1-10-2-13v-12l-3-15-3-13h-11l-2-14-9-50-2-1zm-12 15v2l-4 2v3l18 11 6 3 7 2h6l8-5 1-5-4-5-10-6-14-2zm278 65-10 5-11 11-6 8v7l2 3 20-8 10-6 5-6 1-3v-7l-3-4zm-1212 105v5h1v-5z" fill="#FAFAFA"/>
<path transform="translate(423,292)" d="m0 0h15v2l11 1 12 3 14 5 19 10 14 11 6 7 5 5 7 10 5 8 7 16 5 19 2 5v12l-1 22h486l16 4 14 7 10 9 7 7 8 16 4 16 1 129 12-23 2-7 1-30 4-13 5-9 8-8 6-4 7-9 10-8 11-5 13-4 21-1 11 2 9 4 8 6 8 9 7 14 3 9v5l-4-4-7-8-9-7v7l-4 11-6 9-8 8-6 4-4 4-4 2h-4l-1-3-9 3 1-12-6 9-6 7-8 6-3 13-2 1-10-6-8-2-5 2v10l6 11 6 7 7 4 6 1v34l-11 6-5 4-5 6h-2l-5-12-1 6-1 19-4 6-7 2-11 1-4-9-2-5 2 10-2-2-1 53-11 26-7 18-9 24-10 29-3 9h-1l-1-315-2-16-5-17-6-10-6-7-14-7-9-2-13-1h-120l-6 3-4 8-1 15-3 10-6 5-6 2h-292l-8-3-4-4-3-8-1-16-3-7-1-3-7-2h-121l-15 1-14 4-8 6-6 7-6 14-3 14-1 11-1 938 9-3 5-1h18l12 3 16 8 10 9 7 11 4 10 9 39v2h62l9 60 23 158 12 82v5l445-1 14-3 14-7 10-9 7-9 6-13 3-14v-38l-12-17-13-18-11-16-10-14-13-19-14-21-9-14-6-11 1-5 6-7 8-7 28-24 13-11 12-11 16-16 4-1 7 9 11 15 8 11 10 14 11 15 8 11 4 6 6-2 8 1 5 4 4 6 3 12v21l-3 15-1 2 14-2h22l12 3 6 4 5 5 2 6-2 9-5 5-5 2h-9l-13-4-10-5-8-5v3l-4 1 2 5 3 5v4l-5-1-4-6-2-1 2 5h2l8 13-1 5-3 1 5 9v4l-4-1-2-2 9 48h3l57 2 19 1-3-20v-12l-3-15-2-13h-11l-5-25-6-33v-6l-37-1 2-4h33l-2-5-12-14-7-9-9-10-9-11-10-11-9-11-9-10-7-8-12-14-9-10-9-11-10-11-8-10-7 6-9 10-4 4-1-486-14-49-5-14-5-21-1-9v-30l3-19 4-15 7-19 1-2 61 1 1 36 3 26 4 15 7 14 9 10 10 10 4 3 15 51 8 26 10 34 4 9 6 7 8 5 8 2h12l31-9 26-8 58-17 13-4 9 1 4 9 13 38 17 51 3 10 3 9 15 50 10 37 5 26 2 20h34l20 3 32 7 14 5 10 6 10 8 10 10 9 13 8 16 6 18 3 13 13 19 6 9-8-26-11-31-2-10-2-1-3-10-4-11v-3h-2l-2-11-6-2-21-9-27-10-22-10-12-8-13-11-9-12-8-16-5-14-4-20v-6h-2l-1-8h1v-25l2-18 4-15 8-16 6-8 5-5 8-6 8-4 15-4h23l18 4 16 8 5 2 7 7 8 9 3 1 1 4 6 9 8 17 5 15 4 18 2 17v22l-3 23-6 22-12 29-3 12v10l12 36 10 31 12 41h1l6-32 9-36 10-32-2-6-9-19-10-27-6-23-2-15v-20l3-12 7-16 9-15 12-14 10-10 13-10 19-11 18-7 13-4h3l-2-2-4 2-13 4-5 1-21 4-9 1h-26l-17-3-15-5-15-8-12-9-12-12-10-14-8-16-4-10-4-18-1-7v-36l-1-1h-7l-33 10-12-6-35-8-19-9-16-9-19-12-6-4 1-2 10-3 8 1 23 6 12 2h13l7-3 2-4-1-6-6-7-14-9-21-10-17-6-17-5-6-1h-38l-19 1-26-13-20-9-18-8-3-8-3 4-5-1-29-13-19-10-3-8-4-18v-5l8-3 50-15 6-4 3-6v-11l-13-43-4-5-6-3h-10l-30 9-4 1 1 11 1 12-8 2 3-3h2l-9-49-4-20-1-8 54-16 33-10 20-6h2l-1-10v-26h1l3 27v8l39-12 47-14 41-12 30-9 51-15 3 1v32l3 7 3 3h9l7-4 6-9 3-19v-21l-2-18-5-22-2-9 4 4 5 13 4 17 2 15v13l-3 16-2 6v7l3 9 5 4 7 1 8-4 4-5 4-11 2-7 2 3 3 9 8 4 8-1 4-3h2l2-5 4-11 2-11h-2l-3-28-5-25-5-19 1-3 7 16 6 20 2 13 1 29 3 5 2 1h6l5-4 1-2h2l1-5 3-9 1-25 6 2 5 3v2h2l5 6 4 13 10 33 15 51 13 43 14 48 20 67 16 54 5 18v11l-4 11-4 7 5 2 11 14 6 9 8 15 6 18 3 15 1 9v14l-10-2h-12l-11 4-8 6-6 9-3 12 1 11 4 10 7 8 9 5 6 2-3 5-11 11-6 5-7 4-6 2v5l13-2h16l11 2 14 7 7 6 7 10 5 12 3 13 1 9v20l-3 24-5 21-6 16-7 13-8 11-9 9-1 2-7 4-10 6-11 5-29 9-56 16-2 7-4 12-7 23-10 40-6 28 1 1 6-10 6-9 7-9 5-6 5-5 8-7 1-3 4-1 5-8 7-12 9-11 5-7 11-9 11-8 14-8 16-7 14-4 6-1h10l10 3 7 5 5 8 2 8v17l-5 17-7 12-7 8-10 6-9 3-5 1h-28l-28-4-25-5-4 1-10 9-5 4-7 8-7 9-9 13-7 12 1 6 1 1h63v29l-1 1h-11l-1 16-4 40-8 71 1 5 1 1h19l6-1 6 1 114 1v1l-37 1-331 1h-54l3 11 6 28 4 21v5h-4l2 8v4l-5 1 7 2 3 11 4 4 8-10 10-8 9-3 9 1 5 3 2 4v11l-4 6-5 6-7 4-12 6-5 2h-3v2h2v3l-7 1v3h16l4 1-1 3h-4l1 2 15 2 1 3-9 2 2 1 16 1v-3l47 4 72 8 60 9 32 6 28 6 22 6 21 7 16 8 8 6 3 3v2h2v11l-6 7-15 9-17 7-24 7-30 7-32 6-44 7-72 9-32 3-45 4-50 4-81 5-95 5-20 2h-22l-7-1-96 2h-208l-102-2-80-3-61-3h-19l-2-1-46-3-66-5-72-7-51-6-49-7-28-5-40-8-32-9-12-5-13-6-13-8v-2h-2l-2-4v-8l4-6 4-2v-2l16-9 20-7 6-1 9-60 17-117 1-2h-26l-97-1v-1h123l7-50 10-69 1-5h55v-146l-9 1h-18l-14-1h-3l-23-6-12-5-14-1v-1l5-1-10-7-16-12-17-17-10-14-8-14-6-13-7-21-4-20-1-10v-25l3-21 6-21 7-16 10-16 11-14 12-12 9-7h2v-3l6-3 19-10 22-8 23-5 25-4 11-1 1-605 2-9-5-2-9-19-4-13-3-18v-20l2-16 6-22 10-19 8-11 5-6 8-7 5-6 12-7 16-8 7-3 22-5 7-1zm671 325-5 10v10h1l5-17zm-5 597v256l5 2 19-19 7-8 15-15 7-8 1-1v-7l-13-58-14-55-19-70-5-17zm313 174-9 20-10 19-7 12-14 23-4 5-14 20-9 12 1 10 8 33 14 64 6 27 7 32 1 2h18l1-3 5 3 107 1h49l-1-13-5-61-3-30-1-12-1-1v-13l-1-4h-11l1-29h46l21-1v-6l-10-21-10-17-8-11-2-3-22-1h-30l-40 2h-22l-13-4-11-8-10-12-11-21-5-14zm-261 298v2l-4 2v3l18 11 6 3 7 2h6l8-5 1-5-4-5-10-6-14-2zm278 65-10 5-11 11-6 8v7l2 3 20-8 10-6 5-6 1-3v-7l-3-4zm-1212 105v5h1v-5z" fill="#FCC501"/>
<path transform="translate(1578,562)" d="m0 0 3 4 6 15 5 17 2 13 1 29 3 5 2 1h6l5-4 1-2h2l1-5 3-9 1-25 6 2 5 3v2h2l5 6 4 13 10 33 15 51 13 43 14 48 20 67 16 54 5 18v11l-4 11-4 7 5 2 11 14 6 9 8 15 6 18 3 15 1 9v14l-10-2h-12l-11 4-8 6-6 9-3 12 1 11 4 10 7 8 9 5 6 2-3 5-11 11-6 5-7 4-6 2v5l13-2h16l11 2 14 7 7 6 7 10 5 12 3 13 1 9v20l-3 24-5 21-6 16-7 13-8 11-9 9-1 2-7 4-10 6-11 5-29 9-56 16-2 7-4 12-7 23-10 40-6 28 1 1 6-10 6-9 7-9 5-6 5-5 8-7 1-3 4-1 5-8 7-12 9-11 5-7 11-9 11-8 14-8 16-7 14-4 6-1h10l10 3 7 5 5 8 2 8v17l-5 17-7 12-7 8-10 6-9 3-5 1h-28l-28-4-25-5-4 1-10 9-5 4-7 8-7 9-9 13-7 12v9l-10-1v-7h-2l-10-21-10-17-8-11-1-2-22-1h-30l-40 2h-22l-13-4-11-8-8-9-8-13-7-15-4-12 7-19 4-17 2-10 1-1h34l20 3 32 7 14 5 10 6 10 8 10 10 9 13 8 16 6 18 3 13 13 19 6 9-8-26-11-31-2-10-2-1-3-10-4-11v-3h-2l-2-11-6-2-21-9-27-10-22-10-12-8-13-11-9-12-8-16-5-14-4-20v-6h-2l-1-8h1v-25l2-18 4-15 8-16 6-8 5-5 8-6 8-4 15-4h23l18 4 16 8 5 2 7 7 8 9 3 1 1 4 6 9 8 17 5 15 4 18 2 17v22l-3 23-6 22-12 29-3 12v10l12 36 10 31 12 41h1l6-32 9-36 10-32-2-6-9-19-10-27-6-23-2-15v-20l3-12 7-16 9-15 12-14 10-10 13-10 19-11 18-7 13-4h3l-2-2-4 2-13 4-5 1-21 4-9 1h-26l-17-3-15-5-15-8-12-9-12-12-10-14-8-16-4-10-4-18-1-7v-36l-1-1h-7l-33 10-12-6-35-8-19-9-16-9-19-12-6-4 1-2 10-3 8 1 23 6 12 2h13l7-3 2-4-1-6-6-7-14-9-21-10-17-6-17-5-6-1h-38l-19 1-26-13-20-9-18-8-3-8-3 4-5-1-29-13-19-10-3-8-4-18v-5l8-3 50-15 6-4 3-6v-11l-13-43-4-5-6-3h-10l-30 9-4 1 1 11 1 12-8 2 3-3h2l-9-49-4-20-1-8 54-16 33-10 20-6h2l-1-10v-26h1l3 27v8l39-12 47-14 41-12 30-9 51-15 3 1v32l3 7 3 3h9l7-4 6-9 3-19v-21l-2-18-5-22-2-9 4 4 5 13 4 17 2 15v13l-3 16-2 6v7l3 9 5 4 7 1 8-4 4-5 4-11 2-7 2 3 3 9 8 4 8-1 4-3h2l2-5 4-11 2-11h-2l-3-28-5-25-5-19z" fill="#C08A00"/>
<path transform="translate(1037,878)" d="m0 0 61 1 1 36 3 26 4 15 7 14 9 10 10 10 4 3 15 51 8 26 10 34 4 9 6 7 8 5 8 2h12l31-9 26-8 58-17 13-4 9 1 4 9 13 38 17 51 3 10 3 9 15 50 10 37 5 26 1 6v17l-3 17-6 20-6 15-11 23-7 12-5 9-14 23-4 5-14 20-9 12 1 10 8 33 14 64 6 27 7 32v2l18-1 1-2 5 2 107 1 49 1-2-13-5-61-3-30v-12l-2-1v-17h-11v-30h68v-6h1v7h9l2-2 1 1h63v29l-1 1h-11l-1 16-4 40-8 71 1 5 1 1h19l6-1 6 1 114 1v1l-37 1-331 1h-54l3 11 6 28 4 21v5h-183l-5-25-6-33v-6l-37-1 2-4h33l-2-5-12-14-7-9-9-10-9-11-10-11-9-11-9-10-7-8-12-14-9-10-9-11-10-11-8-10-7 6-9 10-4 4-1-486-14-49-5-14-5-21-1-9v-30l3-19 4-15 7-19zm52 336v256l5 2 19-19 7-8 15-15 7-8 1-1v-7l-13-58-14-55-19-70-5-17z" fill="#2A444D"/>
<path transform="translate(423,292)" d="m0 0h15v2l11 1 12 3 14 5 19 10 14 11 6 7 5 5 7 10 5 8 7 16 5 19 2 5v12l-1 22h486l16 4 14 7 10 9 7 7 8 16 4 16 1 129 12-23 2-7 1-30 4-13 5-9 8-8 6-4 7-9 10-8 11-5 13-4 21-1 11 2 9 4 8 6 8 9 7 14 3 9v5l-4-4-7-8-9-7v7l-4 11-6 9-8 8-6 4-4 4-4 2h-4l-1-3-9 3 1-12-6 9-6 7-8 6-3 13-2 1-10-6-8-2-5 2v10l6 11 6 7 7 4 6 1v34l-11 6-5 4-5 6h-2l-5-12-1 6-1 19-4 6-7 2-11 1-4-9-2-5 2 10-2-2-1 53-11 26-7 18-9 24-10 29-3 9h-1l-1-315-2-16-5-17-6-10-6-7-14-7-9-2-13-1h-120l-6 3-4 8-1 15-3 10-6 5-6 2h-292l-8-3-4-4-3-8-1-16-3-7-1-3-7-2h-121l-15 1-14 4-8 6-6 7-6 14-3 14-1 11-1 938 9-3 5-1h18l12 3 16 8 10 9 7 11 4 10 10 43 2 7 6 4 3 6v8l-3 6-6 4h-11l-6-4-3-5v-10l3-5-1-9-8-37-4-12-7-9-7-6-11-5-9-2h-12l-13 4-4 1v62h-9l2 9 5 3 3 3 2 6-1 8-5 6-4 2h-11l-7-6-2-4v-8l4-8-1-11h-17v-146l-9 1h-18l-14-1h-3l-23-6-12-5-14-1v-1l5-1-10-7-16-12-17-17-10-14-8-14-6-13-7-21-4-20-1-10v-25l3-21 6-21 7-16 10-16 11-14 12-12 9-7h2v-3l6-3 19-10 22-8 23-5 25-4 11-1 1-605 2-9-5-2-9-19-4-13-3-18v-20l2-16 6-22 10-19 8-11 5-6 8-7 5-6 12-7 16-8 7-3 22-5 7-1zm671 325-5 10v10h1l5-17z" fill="#1A2E34"/>
<path transform="translate(1214,1736)" d="m0 0h168l2 8v4l-5 1 7 2 3 11 4 4 8-10 10-8 9-3 9 1 5 3 2 4v11l-4 6-5 6-7 4-12 6-5 2h-3v2h2v3l-7 1v3h16l4 1-1 3h-4l1 2 15 2 1 3-9 2 2 1 16 1v-3l47 4 72 8 60 9 32 6 28 6 22 6 21 7 16 8 8 6 3 3v2h2v11l-6 7-15 9-17 7-24 7-30 7-32 6-44 7-72 9-32 3-45 4-50 4-81 5-95 5-20 2h-22l-7-1-96 2h-208l-102-2-80-3-61-3h-19l-2-1-46-3-66-5-72-7-51-6-49-7-28-5-40-8-32-9-12-5-13-6-13-8v-2h-2l-2-4v-8l4-6 4-2v-2l16-9 20-7 6-1 1 2-3 21-3 20h824l16-4 14-7 10-9 6-7 6-10 5-16 2-26 5 5 10 13 8 11 8 10 1 1h7l8-7 6-9 4-11-1-15-1-7v-12l2 1 57 2 19 1-3-20v-12l-3-15zm205 15-10 5-11 11-6 8v7l2 3 20-8 10-6 5-6 1-3v-7l-3-4zm-1212 105v5h1v-5z" fill="#FBFAFA"/>
<path transform="translate(1686,128)" d="m0 0h4l1 184-1 50 9 2v1h-9l1 3v97l30 1v9l-5 51 2 6 11 7 10 7 17 12 13 9 18 12 18 13 5 3-1 5-8 17h-48l-7 1h-105l-4 1-2-6-3-3v-2h-2l-3-3-8-4v25l-5 14h-2l-2 4-4 3h-6l-5-5-1-2-1-29-3-17-8-24-3-5 8 32 4 28v12h2l-1 11-5 13-5 5-6 3-8-1-5-4-5-11-3 13-5 8-5 4-5 2-7-1-6-5-3-9v-7l4-14 1-8v-13l-4-25-5-15-4-8 6 25 2 12 1 11v21l-3 19-6 9-5 4-3 1h-9l-6-7-1-4v-32l-12 3-41 12-40 12-101 30-13 4h-3l-3-28v29l-18 6-84 25-7 1 4 16 10 54v7l-3 2 6-1-3-18v-5l9-3 26-8h10l8 5 3 4 13 43v11l-3 6-5 4-18 6-31 9-10 3 1 9 4 18 2 4 24 12 25 11h3l2-4h2l2 9 9 3 37 17 18 9 19-1h38l17 4 18 6 18 8 15 8 10 8 4 5 1 6-4 6-6 2h-13l-21-4-18-5-8 1-6 2 5 4 19 12 26 14 9 4 35 8 10 5 2 4-1 8-4 5-8 4-14 3-9 9-12 6-6 2v2l-10 5-17 3-6 3h-24l-20-4-13-4-9 1-81 24-44 13h-12l-9-3-9-6-6-7-8-24-8-27-6-21-14-47-10-9-11-11-6-10-5-13-3-15-2-20v-36h-50l-10-1 5-17 16-47 15-40 4-10 11-26 8-18 11-22 3-5v-3l3-1 5-9 8-10 5-6 10-7 5-2 1-34h-6l-9-6-7-9-4-8v-10l7-3 11 4 7 4 3-13 11-9 8-11 3-3-2 13 10-4v4l10-4 5-5 10-9 6-9 4-11 1-7 4 2 10 9 5 7h2l3 9 5 16 3 12 15 14 8 9 7 11 7 17 3 14v8l8 1v5l61 4h17l9-2 19-13 13-10 16-12 6-4 1-2-8-1-9-4-6-4-3-4v-7l7-6 8-2 16 1 11 1h9l11-4 4-6 5-5 9-8 7-3h8l8 4 2-6 4-6 8-5 8 1 5 4h3l2-5h2l1-3 5-3 8-1 9 4 5 1 9-6 2-1h8l5 4 2 5h2l3 9h4l1-3 16-9 13-9 5-2v-2l11-7 3-1-5-51-1-14h31zm-437 459 2 4 9 11 8 13 8 18 6 20h5l-3-14-5-14-7-13-8-10-5-7h-2v-3l-3-1-4-4zm-12 40 3 23h8l-3-9-6-14zm24 13 1 8-2 1 5 2h3l-2-6z" fill="#FCC501"/>
<path transform="translate(406,470)" d="m0 0h121l7 3 4 6 1 4 1 16 4 10 6 3 4 1h292l8-3 4-5 2-8 1-15 4-8 4-3 3-1h120l19 2 12 5 8 6 8 11 6 16 2 10 1 11v154l-696 1v-158l2-16 3-12 7-14 8-8 7-4 12-3z" fill="#FCC501"/>
<path transform="translate(1723,970)" d="m0 0h5l5 5 9 11 6 9 8 15 6 18 3 15 1 9v14l-10-2h-12l-11 4-8 6-6 9-3 12 1 11 4 10 7 8 9 5 6 2-3 5-11 11-6 5-7 4-6 2v5l13-2h16l11 2 14 7 7 6 7 10 5 12 3 13 1 9v20l-3 24-5 21-6 16-7 13-8 11-9 9-1 2-7 4-10 6-11 5-29 9-56 16-2 7-4 12-7 23-10 40-6 28 1 1 6-10 6-9 7-9 5-6 5-5 8-7 1-3 4-1 5-8 7-12 9-11 5-7 11-9 11-8 14-8 16-7 14-4 6-1h10l10 3 7 5 5 8 2 8v17l-5 17-7 12-7 8-10 6-9 3-5 1h-28l-28-4-25-5-4 1-10 9-5 4-7 8-7 9-9 13-7 12v9l-10-1v-7h-2l-10-21-10-17-8-11-1-2-22-1h-30l-40 2h-22l-13-4-11-8-8-9-8-13-7-15-4-12 7-19 4-17 2-10 1-1h34l20 3 32 7 14 5 10 6 10 8 10 10 9 13 8 16 6 18 3 13 13 19 6 9-8-26-11-31-2-10-2-1-3-10-4-11v-3h-2l-2-11-6-2-21-9-27-10-22-10-12-8-13-11-9-12-8-16-5-14-4-20v-6h-2l-1-8h1v-25l2-18 4-15 8-16 6-8 5-5 8-6 8-4 15-4h23l18 4 16 8 5 2 7 7 8 9 3 1 1 4 6 9 8 17 5 15 4 18 2 17v22l-3 23-6 22-12 29-3 12v10l12 36 10 31 12 41h1l6-32 9-36 10-32-2-6-9-19-10-27-6-23-2-15v-20l3-12 7-16 9-15 12-14 10-10 13-10 19-11 18-7 13-4h3l-2-2-4 2-13 4-5 1-21 4-9 1h-26l-17-3-15-5-15-8-12-9-12-12-10-14-8-16-4-10-4-18-1-7v-36l-4-3 10-3 13-4 14-4 11-3 9-3 14-4 15-5 13-3 9-3 13-4 17-5 11-3 16-5 26-8 5-1v-2l4-2z" fill="#25393F"/>
<path transform="translate(766,961)" d="m0 0h7l7 3 6 7 4 21 10 61 1 3 119 12 7 3 5 5 3 7-1 16-17 170-2 9-4 6-7 4-8 1-290-29-9-2-8-7-2-5v-16l2-15-78 13-9-1-7-4-4-6-4-21-14-85-13-79v-10l3-6 7-6 21-4 250-41z" fill="#365963"/>
<path transform="translate(1174,808)" d="m0 0h2l3 16 7 44 5 22 2 4 24 12 25 11h3l2-4h2l2 9 9 3 37 17 18 9 19-1h38l17 4 18 6 18 8 15 8 10 8 4 5 1 6-4 6-6 2h-13l-21-4-18-5-8 1-6 2 5 4 19 12 26 14 9 4 35 8 10 5 2 4-1 8-4 5-8 4-14 3-9 9-12 6-6 2v2l-10 5-17 3-6 3h-24l-20-4-13-4-9 1-81 24-44 13h-12l-9-3-9-6-6-7-8-24-8-27-6-21-14-47-10-9-11-11-6-10-5-13-3-15-2-20v-36l2-34 1-11 42-15z" fill="#FDABA1"/>
<path transform="translate(1045,1543)" d="m0 0 4 2 24 33 10 14 11 15 8 11 4 6 6-2 8 1 5 4 4 6 3 12v21l-3 15-1 2 14-2h22l12 3 6 4 5 5 2 6-2 9-5 5-5 2h-9l-13-4-10-5-8-5v3l-4 1 2 5 3 5v4l-5-1-4-6-2-1 2 5h2l8 13-1 5-3 1 5 9v4l-4-1-2-2 10 53 3 21v7l-4 11-6 9-7 7-2 1h-7l-8-9-14-19-9-12-2 25-5 16-9 14-11 11-14 8-13 4-6 1h-475l-1-1-6-43 445-1 14-3 14-7 10-9 7-9 6-13 3-14v-38l-12-17-13-18-11-16-10-14-13-19-14-21-9-14-6-11 1-5 6-7 8-7 28-24 13-11 12-11 16-16zm96 143v2l-4 2v3l18 11 6 3 7 2h6l8-5 1-5-4-5-10-6-14-2z" fill="#FBC501"/>
<path transform="translate(307,1090)" d="m0 0h4v308l-9 1h-18l-14-1h-3l-23-6-12-5-14-1v-1l5-1-10-7-16-12-17-17-10-14-8-14-6-13-7-21-4-20-1-10v-25l3-21 6-21 7-16 10-16 11-14 12-12 9-7h2v-3l6-3 19-10 22-8 23-5 25-4z" fill="#FBFBFB"/>
<path transform="translate(1335,1089)" d="m0 0 9 1 4 9 13 38 17 51 3 10 3 9 15 50 10 37 5 26 1 6v17l-3 17-6 20-6 15-11 23-7 12-5 9-14 23-4 5-14 20-9 12h-4l-4-25-4-22-7-36-8-35-4-17-7-24-7-25-7-24-9-30-16-50-11-34-12-36-6-19 1-2 40-12 54-16z" fill="#2B454E"/>
<path transform="translate(800,1057)" d="m0 0h11l109 11 7 3 5 5 3 7-1 16-17 170-2 9-4 6-7 4-8 1-290-29-9-2-8-7-2-5v-16l2-14 2-2 30-5 14-2 72-12 50-8 16 1 128 13 3-23-15-1-68-7-5-1v-13l-4-26-8-46-4-26z" fill="#2A444D"/>
<path transform="translate(1686,128)" d="m0 0h4l1 184-1 50 9 2v1h-9l1 3v97l30 1v9l-5 51 2 6 11 7 10 7 17 12 13 9 18 12 18 13 5 3-1 5-8 17h-48l-7 1h-105l-4 1-2-6-3-3v-2h-2l-3-3-8-4v25l-5 14h-2l-2 4-4 3h-6l-5-5-1-2-1-29-3-17-8-24-3-5 8 32 4 28v12h2l-1 11-5 13-5 5-6 3-8-1-5-4-5-11-3 13-5 8-5 4-5 2-7-1-6-5-3-9v-7l4-14 1-8v-13l-4-25-5-15-4-8 6 25 2 12 1 11v21l-3 19-6 9-5 4-3 1h-9l-6-7-1-4v-32l-12 3-41 12-40 12-98 29h-3l-2-31 61 4h17l9-2 19-13 13-10 16-12 6-4 1-2-8-1-9-4-6-4-3-4v-7l7-6 8-2 16 1 11 1h9l11-4 4-6 5-5 9-8 7-3h8l8 4 2-6 4-6 8-5 8 1 5 4h3l2-5h2l1-3 5-3 8-1 9 4 5 1 9-6 2-1h8l5 4 2 5h2l3 9h4l1-3 16-9 13-9 5-2v-2l11-7 3-1-5-51-1-14h31z" fill="#FDABA1"/>
<path transform="translate(1214,1736)" d="m0 0h168l2 8v4l-5 1 7 2 3 11 4 4 8-10 10-8 9-3 9 1 5 3 2 4v11l-4 6-5 6-7 4-12 6-5 2h-3v2h2v3l-7 1v3h16l4 1-1 3h-4l1 2 15 2 1 3-9 2 2 1 19 2v3l-6 1 28 13 23 11 19 10 4 3v2l3 1 5 9 3 8 1 5v9l-3 4-9 1h-184l-64-2-22-2-5-1-2-7-3-29-4-48-4-28v-12l-3-15zm205 15-10 5-11 11-6 8v7l2 3 20-8 10-6 5-6 1-3v-7l-3-4z" fill="#FCC501"/>
<path transform="translate(1723,970)" d="m0 0h5l5 5 9 11 6 9 8 15 6 18 3 15 1 9v14l-10-2h-12l-11 4-8 6-6 9-3 12 1 11 4 10 7 8 9 5 6 2-3 5-11 11-6 5-7 4-6 2v6l-6 1-2-2-4 2-13 4-5 1-21 4-9 1h-26l-17-3-15-5-15-8-12-9-12-12-10-14-8-16-4-10-4-18-1-7v-36l-4-3 10-3 13-4 14-4 11-3 9-3 14-4 15-5 13-3 9-3 13-4 17-5 11-3 16-5 26-8 5-1v-2l4-2z" fill="#FBFAFA"/>
<path transform="translate(423,292)" d="m0 0h15v2l11 1 12 3 14 5 19 10 14 11 6 7 5 5 7 10 5 8 7 16 5 19 2 5v12l-1 22-169 1-15 2-13 5-11 7-10 10-8 13-4 11-6-3-9-19-4-13-3-18v-20l2-16 6-22 10-19 8-11 5-6 8-7 5-6 12-7 16-8 7-3 22-5 7-1z" fill="#FBFBFB"/>
<path transform="translate(1723,1161)" d="m0 0h16l11 2 14 7 7 6 7 10 5 12 3 13 1 9v20l-3 24-5 21-6 16-7 13-8 11-9 9-1 2-7 4-10 6-11 5-29 9-56 16-1-2 10-28 9-22 6-12 30-10 32-12 17-9 4-3-30 12-30 10-17 6-4 1 4-10 16-33 13-25 4-3 19-7 16-9 5-4h2v-2h2v-2l-13 8-23 11-5 2-3-1 9-16v-2h-2l-10 15-16 27-9 17-2-1-2-19-1-28-1 12v21l2 18-1 7-15 32-7 17-2 1-7-24-5-25-2-18v22l3 22 4 17 4 12-1 9-9 25-3-3-10-21-10-27-6-23-2-15v-20l3-12 7-16 9-15 12-14 10-10 13-10 19-11 18-7 17-5z" fill="#FBC501"/>
<path transform="translate(1048,1756)" d="m0 0 4 4 12 17 14 19 11 15v20l-3 16-5 12-8 11-10 10-14 8-13 4-6 1h-475l-1-1-6-43 445-1 14-3 14-7 10-9 7-9 6-13 3-14z" fill="#1A2E34"/>
<path transform="translate(1484,1137)" d="m0 0h23l18 4 16 8 5 2 7 7 8 9 3 1 1 4 6 9 8 17 5 15 4 18 2 17v22l-3 23-6 22-12 29-3 12-1 9-2-2-14-38-10-25 2-24 4-20 9-31-1 1-6 14-7 20-4 17-1 9-3-3-16-36-9-18-1-14v-17l1-17-2 14-1 21v3h-2l-14-27-9-15 1 5 16 32 15 32 3 9-8-6-19-12-21-10-7-3v2l6 2 16 8 15 10 10 8 13 11 12 28 11 28h-3l-9-8-15-10-21-11-15-6-19-6v2l9 2 21 9 14 8 16 11 13 10 12 11 2 1 10 27v3l-6-2-21-9-27-10-22-10-12-8-13-11-9-12-8-16-5-14-4-20v-6h-2l-1-8h1v-25l2-18 4-15 8-16 6-8 5-5 8-6 8-4z" fill="#FBC401"/>
<path transform="translate(1425,128)" d="m0 0h6l-1 4v253l-1 12h31l-2 24-3 28v11l9 5 2 4 12 8 19 13 2 1v2l5 2 13 9 23 16 9 6-4 12h-2l-3 9-1 1h-213l-14-6-7-14 1-3 5-2v-2l9-5 18-13 29-20 16-11 14-10 3-1-6-57v-7l18-1 5-2v2h6l1-1z" fill="#FBFBFB"/>
<path transform="translate(1597,1498)" d="m0 0h1v7h9l2-2 1 1h63v29l-1 1h-11l-1 16-4 40-8 71 1 5 1 1h19l6-1 6 1 114 1v1l-37 1h-387l1-2h180l-2-13-5-61-3-30v-12l-2-1v-17h-11v-30h68z" fill="#395B65"/>
<path transform="translate(1686,128)" d="m0 0h4l1 184-1 50 9 2v1h-9l1 3v97l30 1v9l-5 51 2 6 11 7 10 7 17 12 13 9 18 12 18 13 5 3-1 5-8 17h-48l-7 1h-105l-4 1-2-6-3-3v-2h-2l-3-3-8-4-5-20-6-16 4-1 1-3 16-9 13-9 5-2v-2l11-7 3-1-5-51-1-14h31z" fill="#FBFAFA"/>
<path transform="translate(1048,1060)" d="m0 0 2 4 7 24 12 43 16 56 3 10 1 281-8 7-20 20h-2l-1 4 9 11-2 4-13 14-4 4z" fill="#1A2E34"/>
<path transform="translate(587,1589)" d="m0 0h222v62h-222z" fill="#FDC601"/>
<path transform="translate(1216,525)" d="m0 0 4 2 10 9 5 7h2l3 9 5 16 3 12 15 14 8 9 7 11 7 17 3 14v8l-2-2-5-19-8-17-9-12-5-6v-2h-2v-3l-4-1v-2h-3l9 10 10 16 8 18 4 14v6l-12-1-5-8-2-2v6l2 1v2h-13l-3-1-9-20v-3h-2l3 15v8l-33 1-12 1 1 8 1 24-2 8h-12l-10-4-13-9-5-5v-2h-2l-4-7-1-11v-33h-6l-9-6-7-9-4-8v-10l7-3 11 4 7 4 3-13 11-9 8-11 3-3-2 13 10-4v4l10-4 5-5 10-9 6-9 4-11z" fill="#FDACA2"/>
<path transform="translate(1416,1340)" d="m0 0h34l20 3 32 7 14 5 10 6 10 8 10 10 9 13 8 16 6 18 2 13-5-5-12-13-8-8-11-8-8-16-8-10-4-3v-2l-4-2-13-7 3 3 13 9 7 7 9 15-2 1-21-11-35-13-11-4-7-9-11-8-8-4 1 1 14 10 7 7-3 1-31-9v2l10 3 46 16 8 3-2 2-24 3h-28l10 2h19l24-3h11l17 8 14 9 10 8 6 5v1h-33l-25 2h-19l-17-3h-3l11 4 14 2h15l24-2h28l9 1 8 7 11 14v1h-52l-40 2h-22l-13-4-11-8-8-9-8-13-7-15-4-12 7-19 4-17 2-10z" fill="#FAC301"/>
<path transform="translate(1136,993)" d="m0 0 9 6 10 7 26 14 24 11 27 11 29 10 17 6 24 13 15 8 19 8 3 2-61 18-33 10-21 6-17 5h-12l-9-3-9-6-6-7-8-24-8-27-6-21-13-44z" fill="#BF8900"/>
<path transform="translate(1747,1362)" d="m0 0h10l10 3 7 5 5 8 2 8v17l-5 17-7 12-7 8-10 6-9 3-5 1h-28l-28-4-25-5-2-2 8-6 3-1h14l29 4h17l-19-2-22-4-14-1 4-4 18-10 4-2 24 3h11l17-2 8-2-23 2-22-1-8-1v-2l22-10 20-8h3v-2l-22 8h-3l2-4 9-10 4-4-9 7-8 10-3 4-24 10-14 7h-2l2-4 9-10 6-7 8-7h2v-2l-13 10-7 6-1 2h-2l-2 4-12 15-11 7-5 4-2-1 8-15 10-13 6-8 11-9 11-8 14-8 16-7 14-4z" fill="#F9C302"/>
<path transform="translate(800,1057)" d="m0 0h11l109 11 7 3 5 5 3 7-1 16-3 26-16-1-98-10-6-1-2 1-8-50z" fill="#2A444D"/>
<path transform="translate(1588,546)" d="m0 0h8l5 4 2 5h2l6 16 5 13 3 13v29l-5 14h-2l-2 4-4 3h-6l-5-5-1-2-1-29-3-17-8-24-3-5 8 32 4 28v12h2l-1 11-5 13-5 5-6 3-8-1-5-4-6-14v-24l-3-24-6-27-4-12-1-2 3-3 1-3h2l1-3 5-3 8-1 9 4 5 1 9-6z" fill="#FDABA1"/>
<path transform="translate(351,685)" d="m0 0h1v781l9-3 5-1h18l12 3 16 8 10 9 7 11 4 10 10 43 2 7 6 4 3 6v8l-3 6-6 4h-11l-6-4-3-5v-10l3-5-1-9-8-37-4-12-7-9-7-6-11-5-9-2h-12l-13 4-4 1v62h-9l2 9 5 3 3 3 2 6-1 8-5 6-4 2h-11l-7-6-2-4v-8l4-8-5-40v-11l4-16 7-11 8-7 6-3h2z" fill="#365963"/>
<path transform="translate(1214,1736)" d="m0 0h168l2 8v4l-5 1 7 2 3 11 3 4-2 5-8 15-5-4-7-8-10-8-12-7-6-2h-11l-6 2-4 10h-102l-1-9-2-11z" fill="#FBFBFB"/>
<path transform="translate(810,1112)" d="m0 0 65 7 50 5 6 1-1 15-3 26-2 1-106-11-3-2-6-36z" fill="#1A2E34"/>
<path transform="translate(369,1476)" d="m0 0h12l12 3 11 6 8 8 5 9 3 9 7 31v2h-75v-62l12-5z" fill="#FBFBFB"/>
<path transform="translate(1597,1498)" d="m0 0h1v7h9l2-2 1 1h63v29l-1 1h-11l-1-1h-119v5l-1-4h-11v-30h68z" fill="#3D5F68"/>
<path transform="translate(488,768)" d="m0 0h9l5 3 5 5 1 6h176l1-5 3-5 8-4h8l6 3 5 6 1 4h175l4-8 5-4 3-1h9l6 3 4 5 2 6-1 8-3 5-5 4-3 1h-9l-6-3-4-5-2-5h-174l-5 8-4 4-3 1h-10l-8-5-4-8h-174l-3 6-6 6-3 1h-10l-6-4-4-5-1-3v-8l3-6 6-5z" fill="#FDC601"/>
<path transform="translate(1047,883)" d="m0 0h2l-3 10-4 17-2 16v18l2 20 3 18 5 21 7 23 12 36 6 16 22 66 10 31 8 26 10 34 6 21 7 24 7 27 12 45 9 37 14 62 10 47 5 25 10 53 7 44 5 43v9h-1l-8-48-8-44-11-58-12-58-10-44-12-51-15-57-7-27-7-25-13-44-9-31-18-57-10-30-11-32-10-30-8-26-7-30-3-24v-32l3-19 6-20z" fill="#1A2E34"/>
<path transform="translate(1073,778)" d="m0 0h1l2 12 10 34 13 44v11h-51l-10-1 5-17 16-47 13-35z" fill="#FCC500"/>
<path transform="translate(815,1169)" d="m0 0 15 1 68 7 6 1-1 15-1 8-2 1-137-14-2-2 42-7 8-4z" fill="#F5F6F6"/>
<path transform="translate(1067,1521)" d="m0 0 5 5 10 11 9 11 11 12 9 11 12 13 9 11 9 10 9 11 10 11 9 11 7 8-6 7-3 4h-2l-2 4h-4l-12-16-26-36-14-19-11-15-10-14-11-15-13-18 2-4z" fill="#FDACA2"/>
<path transform="translate(1112,1622)" d="m0 0 8 1 5 4 4 6 3 12v21l-3 15-1 2 14-2h22l12 3 6 4 5 5 2 6-2 9-5 5-5 2h-9l-13-4-10-5-8-5v3l-4-1-7-8-9-9-2-1v-2l-4-2-15-12v-2l8 2 8 4-8-15-4-14v-9l3-7 4-4zm29 64v2l-4 2v3l18 11 6 3 7 2h6l8-5 1-5-4-5-10-6-14-2z" fill="#2F4248"/>
<path transform="translate(1420,1745)" d="m0 0 9 1 5 3 2 4v11l-4 6-5 6-7 4-12 6-5 2h-3v2h2v3l-30 5-19 5-4-1 10-7 4-2-18-3-11-4-6-4-6-7-1-8 4-8 6-3h11l12 5 11 8 12 11 4 5 10-17 11-13 11-8zm-1 6-10 5-11 11-6 8v7l2 3 20-8 10-6 5-6 1-3v-7l-3-4z" fill="#263B41"/>
<path transform="translate(527,1032)" d="m0 0h12l8 4 6 7 2 5v11l-4 8-7 6-10 3-12 2h-14l-10-6-5-10v-11l4-8 5-5 8-3z" fill="#FBC400"/>
<path transform="translate(1227,1121)" d="m0 0 4 1 12 36 10 32 12 36 17 54 8 27 7 25 8 30 10 40 8 38 6 34 4 27 1 10-2 1-8-40-9-39-8-33-11-43-7-25-6-21-14-47-8-26-11-37-15-47-6-20-4-12z" fill="#1A2E34"/>
<path transform="translate(1660,1532)" d="m0 0h1v9l-1 9h-118l-1-4v-13z" fill="#1B2F36"/>
<path transform="translate(1214,1736)" d="m0 0h168l2 8v4h-167l-3-9z" fill="#FDABA1"/>
<path transform="translate(1493,691)" d="m0 0h2l4 14-47 14-54 16-31 9h-3l-3-10v-4l78-23 28-8 16-5z" fill="#2A444D"/>
<path transform="translate(1102,748)" d="m0 0h5l-8 43-7 44v2l9-2v10l-2 23-2-4-10-33-13-44-1-11 5-12 7-8 8-5z" fill="#C08A00"/>
<path transform="translate(1145,1426)" d="m0 0 2 2 8 32 4 17 6 31 10 52 6 32 4 24 3 21v14h-1l-6-28-5-27v-4l-4-2-3-4v-2l-3-1-9-11v-2h-2l-11-14-9-10-11-14-7-8-8-10-10-13 1-2 6 5 9 11 10 11v2h2l8 10 12 14 5 6v2h2l8 10 3 4v2l3 1 4 5-1-9-8-39-6-30-7-36-3-18-1-2-10 10-7 8-10 10-2 3h-2v2h-2l-2 4-4 2 2-4 5-5 11-13 7-9h2l2-4 3-4h2l2-4 2-2-1-15z" fill="#1A2E34"/>
<path transform="translate(1248,588)" d="m0 0 6 5 9 12 8 14 6 14 4 14v6l-12-1-5-8-2-2v6l2 1v2h-13l-3-1-10-23 7-15 2-9z" fill="#1F333A"/>
<path transform="translate(660,1141)" d="m0 0h7v8l-8 2-141 23h-7l-1-7 5-2 128-21z" fill="#FBFBFB"/>
<path transform="translate(753,995)" d="m0 0 9 3 3 5 1 5-2 7-5 4-21 4-7 1h-10l-6-5-2-7 2-7 5-4 8-2z" fill="#FBFBFB"/>
<path transform="translate(635,1207)" d="m0 0 16 1 32 3 37 4 118 12 7 2-1 4-15-1-205-21v-2z" fill="#1A2E34"/>
<path transform="translate(611,1213)" d="m0 0 14 1 50 5 104 11 40 4v5l-16-1-80-8-107-11-6-2z" fill="#1A2E34"/>
<path transform="translate(620,1165)" d="m0 0h4l1 8-7 2-97 16h-7l-1-8 40-7z" fill="#FBFBFB"/>
<path transform="translate(610,1222)" d="m0 0 17 1 118 12 38 4 3 1-1 5-99-10-59-6-17-2z" fill="#1A2E34"/>
<path transform="translate(667,1202)" d="m0 0h13l156 16v5h-10l-166-17-5-1 4-2z" fill="#1A2E34"/>
<path transform="translate(1671,1666)" d="m0 0 10 1 114 1v1l-37 1h-387l1-2 297-1z" fill="#5A6A6E"/>
<path transform="translate(612,1496)" d="m0 0 3 1v3l6 1 5 3-1 5-6-1-4-2v11l9 3 3 4 1 7-3 5-6 4h-4v5l-4 1-1-6-8-2-5-4 1-4h5l8 4-1-11-9-4-3-6 1-7 6-5 5-1z" fill="#1C3138"/>
<path transform="translate(662,477)" d="m0 0h76l3 3-1 6-2 1h-76l-3-2v-6z" fill="#FBFBFB"/>
<path transform="translate(1333,1761)" d="m0 0 11 1 12 6 13 10 11 10v1l-15-1-20-3-9-3-6-4-3-6v-7l3-3z" fill="#F9C200"/>
<path transform="translate(1112,1627)" d="m0 0 6 1 5 6 4 10v30l-1 10h-2l-13-24-5-11-1-4v-9l4-7z" fill="#FAC300"/>
<path transform="translate(1460,940)" d="m0 0h3l4 13-8 3-33 10h-7l-17-7 1-2 44-13z" fill="#2A444D"/>
<path transform="translate(697,1500)" d="m0 0h8l6 4 3 4 1 4v8l-3 10-5 7-7 3h-5l-2-4 1-2 8-3 3-3h-7l-6-3-4-4-1-3v-9l4-6z" fill="#1C3238"/>
<path transform="translate(746,1500)" d="m0 0h8l7 4 3 6v13l-4 10-7 6-9 1-1-5 10-5 2-3-7 1-7-3-4-5-1-9 3-6 5-4z" fill="#1C3238"/>
<path transform="translate(783,1500)" d="m0 0h8l6 4 4 6v12l-3 9-5 6-6 3h-6l-1-5 10-5 1-2-10-1-6-5-2-5v-7l3-6z" fill="#1C3137"/>
<path transform="translate(338,1552)" d="m0 0 7 1 5 3 3 3 2 6-1 8-5 6-4 2h-11l-7-6-2-4v-8l4-7 5-3z" fill="#1A2E34"/>
<path transform="translate(437,1552)" d="m0 0 8 1 6 4 3 6v8l-3 6-6 4h-11l-6-4-3-5v-10l4-6z" fill="#1A2E34"/>
<path transform="translate(697 1e3)" d="m0 0h5l1 8-8 2-68 11h-2l-1-9z" fill="#FBFBFB"/>
<path transform="translate(958,495)" d="m0 0h37l1 4h3v9h-3v4h-38z" fill="#FBFBFB"/>
<path transform="translate(1154,627)" d="m0 0 7 6 11 7 11 4 6 1h11l15-3 12-6 9-8 2 2 2 12v8l-33 1-12 1v3l-8-2-16-8-12-10-5-6z" fill="#1E3339"/>
<path transform="translate(253,1610)" d="m0 0h1v49l-2 79-4 86-1 24-1 10h-1v-36l2-78 3-78z" fill="#FBFAFA"/>
<path transform="translate(1258,1880)" d="m0 0h227l26 1v1l-61 1h-139l-60-1v-1z" fill="#213940"/>
<path transform="translate(979,1640)" d="m0 0 5 5 10 13 42 57 26 36 8 11 26 36 24 34 3 4-1 2-14-18-14-19-13-18-10-13-10-14-14-19-10-14-14-19-13-18-24-34-7-10z" fill="#1C3137"/>
<path transform="translate(1455,851)" d="m0 0h7l2 1v2l4 2 4 10v8l-1 4h-2v2l-5 3-6-1v-2l-4-2-5-8v-11l2-5z" fill="#C38D00"/>
<path transform="translate(350,1484)" d="m0 0h1v60h-8l-3-24v-19l4-10z" fill="#1A2E34"/>
<path transform="translate(661,1500)" d="m0 0h8l6 4 3 4 1 9-4 7-10 9 13 1 1 4-1 2h-25l-1-5 7-7 11-9 1-2v-7l-4-3-6 1-4 3-4-2 1-5z" fill="#1C3138"/>
<path transform="translate(1227,1041)" d="m0 0 5 1 17 6 1 2-41 12h-2l-3-10v-4l19-6z" fill="#2A454E"/>
<path transform="translate(1259,1700)" d="m0 0h109l-4 2-56 2-58 1h-22l-17-1v-2l14-1z" fill="#1A2E34"/>
<path transform="translate(1374,875)" d="m0 0 6 2 2 4-1 5 5 2v2h2l2 8-4 7-4 2h-6l-5-3v-2h-2l-1-8 3-5-1-3h-2v-7z" fill="#FBF1F0"/>
<path transform="translate(627,1606)" d="m0 0 6 1 3 3 1 8h2v14l-1 1h-19v-15l2-1 2-8z" fill="#FBFBFB"/>
<path transform="translate(1323,890)" d="m0 0 3 1v2l-5 2-3 8 1 1 6-3 8 1v2l4 2 1 4-1 8h-2v2l-6 3-7-1v-2h-3l-3-7-1-11 2-7z" fill="#C38D00"/>
<path transform="translate(1427,859)" d="m0 0 9 1v2l4 2 2 7 1 7-3 9-5 4-3-1 3-1v-2l2-1 2-6v-4l-3 4-8 1-6-4-3-6 2-7 2-3z" fill="#C38D00"/>
<path transform="translate(1637,797)" d="m0 0h4v2l-7 5-1 7 6-3 8 1 5 6v7l-3 5-6 3-7-2-5-5-2-13 3-9z" fill="#C48E00"/>
<path transform="translate(122,309)" d="m0 0h57l3 2-1 1h-26v1h-32l-1 41h25l24 2v1l-34 1-1-1-17-1v-46z" fill="#FBFBFB"/>
<path transform="translate(726,615)" d="m0 0 7 1 5 5 1 2v7l-4 6-4 2h-6l-5-3-3-6 1-7 5-6z" fill="#FBFBFB"/>
<path transform="translate(1592,663)" d="m0 0 5 2 6 5 3 3v3h2l6 16v12l-4 13-1 2-4-2-1-3 3-10v-11l-3-10-2-5h-2l-6-7-5-4z" fill="#FBF8F7"/>
<path transform="translate(1515,574)" d="m0 0 4 4 5 13 4 17 2 15v13l-3 16-3 8h-1l1-16v-21l-2-18-5-22z" fill="#1F363D"/>
<path transform="translate(1545,562)" d="m0 0 3 4 7 17 5 19 2 17v12l-2 15-1 4h-2v-24l-3-24-6-27-3-10z" fill="#1F363D"/>
<path transform="translate(1587,813)" d="m0 0 3 1 4 12 1 8 4-1-1 3h-2l2 6-3 1-2-5-14 4-3-1 1-4 6-16z" fill="#FBF5F4"/>
<path transform="translate(640,1500)" d="m0 0 5 1 1 2v35l-2 2h-4l-1-2-1-28h-5l-1-4 5-4z" fill="#1D333A"/>
<path transform="translate(1088,1203)" d="m0 0 2 1 2 10h-3l1 256 3 3-3 4h-2z" fill="#4A6A73"/>
<path transform="translate(1247,580)" d="m0 0 8 6 12 12 9 13 6 12 5 16 1 6v8l-2-2-5-19-8-17-9-12-5-6v-2h-2v-3l-4-1v-2l-4-2-2-4z" fill="#3E5157"/>
<path transform="translate(1098,1696)" d="m0 0 9 2 10 6 12 10v2h2l8 13-1 5-23-23-14-11-3-2z" fill="#293E44"/>
<path transform="translate(1097,1682)" d="m0 0 7 1 11 6 9 7 9 11 5 8v4l-5-1-8-11-3-2v-2l-4-2-7-7-14-11z" fill="#2C4046"/>
<path transform="translate(1578,562)" d="m0 0 3 4 6 15 5 17 2 13v25l-3 1-3-28-5-25-5-19z" fill="#20383F"/>
<path transform="translate(1099,1711)" d="m0 0 8 1 11 6 10 9 5 6v2h2l5 9v4l-4-1-6-8-10-10-2-1v-2l-4-2-12-10z" fill="#273A40"/>
<path transform="translate(681,1457)" d="m0 0h7l5 5 1 7-3 5-3 2h-7l-5-5v-9z" fill="#1E353B"/>
<path transform="translate(738,1610)" d="m0 0 7 3 2 3v8l-4 5-7 1-5-3-2-4v-6l2-4z" fill="#FBFBFB"/>
<path transform="translate(1391,1797)" d="m0 0h20l4 1-1 3-27 4-23 6h-2l1-3 12-7z" fill="#1F343A"/>
<path transform="translate(1417,1812)" d="m0 0h15l7 1v3l-26 4-24 6h-2v-2l11-7 13-4z" fill="#1C3138"/>
<path transform="translate(961,498)" d="m0 0h24v11h-24z" fill="#FBFBFB"/>
<path transform="translate(1401,1805)" d="m0 0h25l1 3-2 1-22 3-21 5-7 1v-2l9-6 11-4z" fill="#1F343A"/>
<path transform="translate(1586,673)" d="m0 0 4 2 5 3 1 4h2l4 11v12l-2 6-1 2-6-2 2-6v-11l-3-8-4-5-4-2z" fill="#FBF8F7"/>
<path transform="translate(905,775)" d="m0 0 7 1 4 4v8l-4 4-7 1-6-5v-8z" fill="#FBFBFB"/>
<path transform="translate(1207,555)" d="m0 0 4 4 12 25 3 10-1 1h-5l2 9-5 5h-3l-3-2-6-1v-4h14l-4-10 6-2-13-29z" fill="#20383F"/>
<path transform="translate(1366,1040)" d="m0 0 9 3 20 9 18 6 25 5 19 3-1 2-18-1-21-4-27-9-23-12z" fill="#213940"/>
<path transform="translate(983,608)" d="m0 0 4 1 17 17-2 4-16 15h-3l-2-3 12-11 4-5-15-14v-3z" fill="#FBFBFB"/>
<path transform="translate(414,608)" d="m0 0 4 2-2 4-12 11v3l12 12 2 1-1 4h-3l-16-15-3-4 17-16z" fill="#FBFBFB"/>
<path transform="translate(245,1862)" d="m0 0 14 8 19 11 7 5-2 1-16-8-20-11-5 1-11 8-14 9-2-1 12-10 16-12z" fill="#FBFAFA"/>
<path transform="translate(1379,888)" d="m0 0 5 2 3 3v7l-3 4-8 1-5-5v-7l4-4z" fill="#C38D00"/>
<path transform="translate(1366,1769)" d="m0 0h24l-2 6-6 11-5-4-7-8-4-3z" fill="#F9C200"/>
<path transform="translate(1347,1066)" d="m0 0 6 1 21 7 24 5 25 3 9 1v1h-29l-22-4-21-7-13-6z" fill="#20383E"/>
<path transform="translate(1132,1661)" d="m0 0 5 5 8 11 2 4-13 2h-6z" fill="#F9C200"/>
<path transform="translate(1323,890)" d="m0 0 3 1v2l-5 2-3 8 1 1 6-3 8 1v2l4 2 1 4-1 8h-2v2l-6 3-7-1v-2h-3l-3-7-1-11 2-7zm4 13-5 2-3 3v7l6 5h6l4-4 1-6-2-4z" fill="#FBEFEE"/>
<path transform="translate(1427,859)" d="m0 0 9 1v2l4 2 2 7 1 7-3 9-5 4-3-1 3-1v-2l2-1 2-6v-4l-3 4-8 1-6-4-3-6 2-7 2-3zm-1 3v2l-3 1-1 2v6l5 5h7l4-3 1-7-1-3-5-3z" fill="#FBF1F0"/>
<path transform="translate(1173,739)" d="m0 0 2 3 3 10 1 1 2 14 4 21 2 12v6l-8 2 3-3h2l-9-49-2-12z" fill="#1F343A"/>
<path transform="translate(1637,797)" d="m0 0h4v2l-7 5-1 7 6-3 8 1 5 6v7l-3 5-6 3-7-2-5-5-2-13 3-9zm3 13-3 1v2l-3 1-1 7 3 5 7 1 5-2 2-5v-5l-6-5z" fill="#FBEDEC"/>
<path transform="translate(698,616)" d="m0 0 3 1 1 8 9-9 3 1-2 4-4 4 1 4 5 6-1 3-4-2-4-6-3 1-2 7-3-1v-19z" fill="#FBFBFB"/>
<path transform="translate(632,616)" d="m0 0h3v9h8v-7l1-2h3v21h-4v-8h-8v9h-3z" fill="#FBFBFB"/>
<path transform="translate(960,496)" d="m0 0h33l1 1v13h-34zm1 2v11h24v-11z" fill="#FDC601"/>
<path transform="translate(1074,1772)" d="m0 0 4 1 10 14 13 18 12 17 10 14-1 2-14-18-14-19-13-18-7-9z" fill="#1D3339"/>
<path transform="translate(1455,851)" d="m0 0h7l2 1v2l4 2 4 10v8l-1 4h-2v2l-5 3-6-1v-2l-4-2-5-8v-11l2-5zm1 2-4 4-1 4v7l4 8 3 3 8 1 3-4 1-8-3-9-5-5z" fill="#FBF3F2"/>
<path transform="translate(654,616)" d="m0 0h13l1 3h-10v6h7l2 1v2l-2 1h-7v6h10l-1 3h-12l-1-1z" fill="#FBFBFB"/>
<path transform="translate(699,1506)" d="m0 0 6 1 3 4v6l-4 4h-7l-4-5 1-6z" fill="#FBFBFB"/>
<path transform="translate(749,1506)" d="m0 0 6 2 3 4-1 6-3 3h-7l-4-4v-7l3-3z" fill="#FBFBFB"/>
<path transform="translate(785,1506)" d="m0 0 6 1 3 3v7l-4 4h-6l-4-3-1-5 3-5z" fill="#FBFBFB"/>
<path transform="translate(1614,804)" d="m0 0h3v2l-9 3-5 1 1 9 6-3 7 1 4 2 2 4v9l-1 2h-2v2l-5 2-8-1v-3l10 1v-2h2l1-9-3-3v-2l-9 1-3 3h-2l-3-12 1-3z" fill="#FBF2F1"/>
<path transform="translate(751,1611)" d="m0 0 3 1 5 11 4-8 3 2 2 5 2-2 3-8 3-1-1 7-6 12-3-3-2-4-5 7-3-3-5-12z" fill="#FBFBFB"/>
<path transform="translate(725,619)" d="m0 0h6l4 4v7l-4 4h-7l-3-5 1-7z" fill="#FDC601"/>
<path transform="translate(1766,1252)" d="m0 0h2v2l-13 8-11 5-18 5h-5l2-2 26-11z" fill="#1D3239"/>
<path transform="translate(620,1098)" d="m0 0 5 2v6h2l2 6-4 5-7-1-2-3v-5l1-3v-5z" fill="#E2E6E8"/>
<path transform="translate(616,615)" d="m0 0 9 2v4l-10-1-4 4v8l3 1h8 4l-2 4-9 1-5-3-3-3-1-8 4-6z" fill="#FBFBFB"/>
<path transform="translate(1112,1627)" d="m0 0 6 1 5 6 4 10v8l-5-5-10-14-1-3-2-1z" fill="#FBFBFB"/>
<path transform="translate(1333,1761)" d="m0 0 11 1 12 6v1h-29l1-6z" fill="#FBFBFB"/>
<path transform="translate(1559,820)" d="m0 0h3l-4 12 6 3 3 3 1 8-2 5h-2v2l-8 2-4-2v-2h8l4-4 1-5-2-4-4-2-6-1 3-10-10 2 1-3z" fill="#FBF0EF"/>
<path transform="translate(1172,789)" d="m0 0 3 1-15 6-35 12-17 5-3-1 26-10 37-12z" fill="#1E343B"/>
<path transform="translate(682,615)" d="m0 0 7 1 2 2v3l-4-1h-7l-3 1v9l3 3h7l4-1v4l-4 2h-7l-6-4-2-4 1-9 5-5z" fill="#FBFBFB"/>
<path transform="translate(1301,897)" d="m0 0v3l-10 3h-2l1 9 6-3h5l3 1v2h2v2h2l1 9-3 6-5 2h-6l-2-1v-2h10l1-3h2v-6l-2-5-6-2-6 2-1 2-3-1-2-14z" fill="#FBF1F0"/>
<path transform="translate(744,616)" d="m0 0h3l1 14 2 3h6l2-4 1-13h3v16l-4 5-2 1h-6l-5-4-1-2z" fill="#FBFBFB"/>
<path transform="translate(1499,838)" d="m0 0h8v2l4 1 2 6-1 6-5 9-3 5 9-2 4-1v3l-16 5h-2l1-5 2-4h2l1-4 2-4h2l1-8-2-4-5-2-5 1-4 4-2-1 4-5z" fill="#FBF5F4"/>
<path transform="translate(651,1093)" d="m0 0 6 1 2 2 1 8-2 6-3 2h-3v-2l4-1 1-4-6 1-4-3-1-4 3-5z" fill="#FBFBFB"/>
<path transform="translate(774,1073)" d="m0 0 2 2-5 2v3l4-1 5 3 1 1-1 7-2 2h-6l-4-4v-9l2-4z" fill="#FBFBFB"/>
<path transform="translate(1389,993)" d="m0 0 5 1 3 9v3l-5 1-14-9 1-2z" fill="#2A454D"/>
<path transform="translate(591,1103)" d="m0 0h2v2l-4 3v2l5-1 5 5-1 5-3 3-7-1-2-3v-10z" fill="#FBFBFB"/>
<path transform="translate(711,1611)" d="m0 0 4 2 6 9 1-10h3v17h-3l-7-9-2 10h-2z" fill="#FBFBFB"/>
<path transform="translate(1740,1378)" d="m0 0 2 1-13 12-5 7 23-8h2v2l-32 13-3 1 1-4 5-3 8-11 9-8z" fill="#1D3239"/>
<path transform="translate(658,1611)" d="m0 0h8l3 3-1 7-7 2-2 7-2-2v-16z" fill="#FBFBFB"/>
<path transform="translate(1188,576)" d="m0 0h5l3 3 1 9-2 2-6-1-2-5-6-1-1-4h6z" fill="#1E343A"/>
<path transform="translate(1580,683)" d="m0 0h3l7 9 1 10-2 5h-3l-3-3 1-8-5-7z" fill="#FBF6F5"/>
<path transform="translate(1587,818)" d="m0 0h2l4 15v2l-10 3-4-1 4-9z" fill="#C58F00"/>
<path transform="translate(717,1458)" d="m0 0 4 1 5 13v4h-3l-1-3-7-1-1 4h-3l3-10z" fill="#33474D"/>
<path transform="translate(1338,1080)" d="m0 0 11 3 25 6 31 4v1h-19l-20-3-27-9z" fill="#243D45"/>
<path transform="translate(1231,564)" d="m0 0h2l-1 5-2 3-1 6-6 2-3-4-1-7 2-3h9z" fill="#1D3339"/>
<path transform="translate(677,1611)" d="m0 0 3 3 5 13v2l-4-1v-3h-7l-2 5-2-1 1-5 5-12z" fill="#FBF6E3"/>
<path transform="translate(744,1078)" d="m0 0h2l2 8v5h2l-1 5h-2v-3l-8 2h-3l1-4z" fill="#FBFBFB"/>
<path transform="translate(735,1614)" d="m0 0h6l3 3v7l-4 3-5-1-3-4 1-6z" fill="#FDC601"/>
<path transform="translate(1639,1218)" d="m0 0h1l-1 13-1 22-1 10-2-2-1-6v-15l3-16z" fill="#1E353C"/>
<path transform="translate(683,1460)" d="m0 0 5 1 3 4-1 6-3 2h-5l-3-3v-7z" fill="#FBFBFB"/>
<path transform="translate(547,1111)" d="m0 0h2l1 12h2l-1 6h-2v-3l-10 1 1-5 6-10z" fill="#FBFBFB"/>
<path transform="translate(1354,881)" d="m0 0 3 1-1 15-2 18h-3l1-16 1-6v-8l-11 3-4-1 4-2z" fill="#FBF2F1"/>
<path transform="translate(767,616)" d="m0 0h16v3h-6v18l-3 1-1-18-6-1z" fill="#FBFBFB"/>
<path transform="translate(1157,1667)" d="m0 0h34l1 3h-36z" fill="#1A2E34"/>
<path transform="translate(667,1093)" d="m0 0h5l3 6-1 6-2 2-4-1-3-5 1-7z" fill="#365862"/>
<path transform="translate(666,1091)" d="m0 0h6l4 5 1 7-3 5-1 1-7-1-3-6 1-9zm1 2-2 4 1 7 3 3 4-1 2-4-1-6-2-3z" fill="#FBFBFB"/>
<path transform="translate(1129,594)" d="m0 0 7 1 6 4 7 8 2 7-4-2-4-3-5-1 1-2 4-1-5-5-7-4z" fill="#223A41"/>
<path transform="translate(577,1105)" d="m0 0 3 1-1 2-6 1-1 3h6l4 4-1 7-4 2-6-1v-2h8v-7h-6l-3 1v-9z" fill="#FBFBFB"/>
<path transform="translate(698,1457)" d="m0 0h11l2 3h-6v16h-3v-16h-6v-2z" fill="#1E353C"/>
<path transform="translate(660,1457)" d="m0 0h12l1 3h-5v15l-3 1-1-15-5-1z" fill="#233B43"/>
<path transform="translate(761,1075)" d="m0 0 1 3-7 1v3l7 1 2 3-1 7-3 2h-5l-1-3 7-1v-5l-5-1-4 1v-9z" fill="#FBFBFB"/>
<path transform="translate(1480,844)" d="m0 0h3l5 14 3 12v5l-2-2-5-16-2-9-5 4-1-2 1-2h2z" fill="#FBF2F1"/>
<path transform="translate(694,1086)" d="m0 0 6 2 1 7-5 7h6l1 2-12 2 2-5 5-7v-5l-6 1-3 1 2-4z" fill="#FBFBFB"/>
<path transform="translate(686,1611)" d="m0 0 5 5 2 1 4-5h2l-1 4-3 4-1 9h-3l-2-10-4-7z" fill="#FBFBFB"/>
<path transform="translate(511,1116)" d="m0 0 5 1 3 4-2 6-4 5h7v2l-11 2v-3l6-8 1-3-2-3-4 1-3 1 1-4z" fill="#FBFBFB"/>
<path transform="translate(529,1113)" d="m0 0h3l-1 5v2l3 3 1 4-3 5-5 1-3-1v-2l7-1v-6l-5-2 2-4-6-1 1-2z" fill="#FBFBFB"/>
<path transform="translate(1671,1666)" d="m0 0 10 1 38 1v1h-64v-1l14-1z" fill="#5E7A82"/>
<path transform="translate(730,1458)" d="m0 0h3v15h8v3h-11z" fill="#223A42"/>
<path transform="translate(1705,1185)" d="m0 0 2 2-8 23h-1v-10l3-10z" fill="#1D333A"/>
<path transform="translate(724,1081)" d="m0 0h6l-2 6 4 4-1 7-3 2-7-1 2-2h5l1-5-5-3 2-5h-6v-2z" fill="#FBFBFB"/>
<path transform="translate(1507,858)" d="m0 0 1 3-4 6 9-2 4-1v3l-16 5h-2l1-5 2-4h2v-3z" fill="#FBF3F2"/>
<path transform="translate(1586,818)" d="m0 0 1 3-5 13-2 3 5 1v2l-7 2-2-2 3-9 5-11z" fill="#FBF4F3"/>
<path transform="translate(1614,804)" d="m0 0h3v2l-9 3-5 1 1 9 4-1-2 4-3 1-3-12 1-3z" fill="#FBF5F5"/>
<path transform="translate(1454,1267)" d="m0 0 9 1 16 6 6 3-1 2-9-3-21-8z" fill="#1E343B"/>
<path transform="translate(627,1609)" d="m0 0 6 1 1 8h-9l-1-3 2-5z" fill="#FDC601"/>
<path transform="translate(1301,897)" d="m0 0v3l-10 3h-2l1 9 4-1v2l-3 3-3-1-2-14z" fill="#FBF6F6"/>
<path transform="translate(918,835)" d="m0 0h6l2 5-2 4-4 1-4-4 1-5z" fill="#20383E"/>
<path transform="translate(1278,660)" d="m0 0h1l2 19v17h-2l-1-10z" fill="#1C3138"/>
<path transform="translate(472,835)" d="m0 0h6l2 3-1 5-1 1h-6l-1-1v-7z" fill="#1E353C"/>
<path transform="translate(704,835)" d="m0 0h5l2 2-1 6-1 1h-6l-1-1v-6z" fill="#1E353C"/>
<path transform="translate(484,819)" d="m0 0h5l2 2v5l-5 3-4-3v-5z" fill="#1E353B"/>
<path transform="translate(672,835)" d="m0 0h5l2 2v5l-2 2h-5l-2-2v-5z" fill="#1E343A"/>
<path transform="translate(430,497)" d="m0 0 5 2 1 4-4 4-5-2-1-4z" fill="#FBFBFB"/>
<path transform="translate(1547,1203)" d="m0 0h2l-2 6-9 20-2 5-1-4 6-16z" fill="#1C3238"/>
<path transform="translate(1324,901)" d="m0 0 9 1v2l4 2 1 4-1 8h-2v2l-4 1 4-8-1-6-7-3-4-1z" fill="#FBF2F1"/>
<path transform="translate(1220,554)" d="m0 0 7 1 1 4-3 2h-6l-3-2 1-4z" fill="#21383F"/>
<path transform="translate(415,497)" d="m0 0 5 1 1 6-2 2h-5l-2-2 1-6z" fill="#FBFBFB"/>
<path transform="translate(1370,893)" d="m0 0h1l1 7 4 4 8-1 4-3-2 5-4 2h-6l-5-3v-2h-2l-1-8z" fill="#FBF1EF"/>
<path transform="translate(459,497)" d="m0 0 5 2 1 4-2 3h-6l-1-1v-6z" fill="#FBFBFB"/>
<path transform="translate(444,497)" d="m0 0 4 1 2 2-1 5-4 2-4-3 1-5z" fill="#FBFBFB"/>
<path transform="translate(402,497)" d="m0 0 4 2 1 3-2 4-7-1-1-4 2-3z" fill="#FBFBFB"/>
<path transform="translate(1372,878)" d="m0 0h5l2 3v4h-2v2l-6-1-1-4z" fill="#C79100"/>
<path transform="translate(1639,808)" d="m0 0 8 1 5 6v7l-3 5-4 1 4-7v-6l-5-4h-7z" fill="#FBF5F5"/>
<path transform="translate(491,493)" d="m0 0 9 1 6 4v2l-5-2-3-1h-9l-5 3h-2l2-4z" fill="#FBFBFB"/>
<path transform="translate(1207,541)" d="m0 0 1 2-6 9-5 6-5 4h-5l4-4 8-7z" fill="#FDB8AF"/>
<path transform="translate(592,1111)" d="m0 0 4 2 1 4-3 3-5-1-1-5 1-2z" fill="#365862"/>
<path transform="translate(609,1100)" d="m0 0h2l-1 9-3 11h-2l2-11 1-5h-8v-2z" fill="#FBFBFB"/>
<path transform="translate(652,1095)" d="m0 0 5 2v5l-2 2-5-1-1-1v-5z" fill="#365862"/>
<path transform="translate(774,1081)" d="m0 0 5 3-1 5-5 1-3-3 2-5z" fill="#365862"/>
<path transform="translate(670,819)" d="m0 0h5l2 2v5l-5 3-2-1z" fill="#5B6B6F"/>
<path transform="translate(620,1107)" d="m0 0h5l2 4-2 4h-5l-2-2 1-5z" fill="#365862"/>
<path transform="translate(928,835)" d="m0 0 6 1 1 5-2 3-5 1-1-4z" fill="#6D7C80"/>
<path transform="translate(726,1532)" d="m0 0 5 1 1 1v5l-1 1h-6l-1-6z" fill="#1C3137"/>
<path transform="translate(491,835)" d="m0 0 6 1 1 5-2 3h-5z" fill="#707E83"/>
<path transform="translate(1391,1776)" d="m0 0h1l1 10-10 3 5-9z" fill="#F2BD0A"/>
<path transform="translate(1645,1438)" d="m0 0 3 2h-2l-2 4-15 15-2-1 4-5 5-5 8-7z" fill="#95A0A4"/>
<path transform="translate(1740,1378)" d="m0 0 2 1-13 12-4 5v3h-2l-1-3 8-10z" fill="#22383C"/>
<path transform="translate(1379,991)" d="m0 0 10 1v2l-10 3h-3l-1-5z" fill="#C08A00"/>
<path transform="translate(1247,580)" d="m0 0 8 6 4 5-5 1-1-3-4-2-2-4z" fill="#374C52"/>
<path transform="translate(1127,1686)" d="m0 0h14v2l-5 4-5-2z" fill="#F6BF00"/>
<path transform="translate(1391,1664)" d="m0 0 5 2 9 1v1h-34l1-3v2l18-1z" fill="#708890"/>
<path transform="translate(615,1524)" d="m0 0 5 2 1 5-3 3h-3z" fill="#FBFBFB"/>
<path transform="translate(482,835)" d="m0 0h5l1 1 1 8-3-1v-2h-2v3h-2z" fill="#35484E"/>
<path transform="translate(716,819)" d="m0 0h5l1 1v8l-2-1v-2h-2v3h-2z" fill="#304349"/>
<path transform="translate(503,819)" d="m0 0h5l1 1 1 8h-2l-3-3v3h-2z" fill="#384A50"/>
<path transform="translate(608,1506)" d="m0 0h3v9l-5-1-1-5z" fill="#FBFBFB"/>
<path transform="translate(500,1118)" d="m0 0h2l3 15v3h-2l-3-14h-3z" fill="#FBFBFB"/>
<path transform="translate(683,1088)" d="m0 0 2 1 2 12v6l-2-1-2-14-3 1v-3z" fill="#FBFBFB"/>
<path transform="translate(902,819)" d="m0 0 5 3 1-3h2v9h-2l-1-3-3-1-1 4-2-1v-7z" fill="#1D343A"/>
<path transform="translate(1483,1362)" d="m0 0 5 1 9 6 3 4-5-2-11-7z" fill="#1D3339"/>
<path transform="translate(881,835)" d="m0 0 5 3 1-3h2v9h-2l-1-3-3-1-2 4z" fill="#1C3137"/>
<path transform="translate(920,819)" d="m0 0h2l2 5h2l-1-4 2-1v10l-4-4-1 3h-2z" fill="#1E343A"/>
<path transform="translate(492,498)" d="m0 0 7 1 3 2-1 3-3-2h-8l-5 1 4-4z" fill="#FBFBFB"/>
<path transform="translate(1767,1401)" d="m0 0 2 1-8 4-4 1h-10l2-2 15-3z" fill="#1C3137"/>
<path transform="translate(508,835)" d="m0 0 5 1 1 8h-2v-3h-3v3l-2-1z" fill="#405359"/>
<path transform="translate(879,819)" d="m0 0h5l1 5-4 1v3h-2z" fill="#31444A"/>
<path transform="translate(682,835)" d="m0 0h5l1 4-2 2h-3v3l-2-1v-6z" fill="#43575D"/>
<path transform="translate(708,819)" d="m0 0h6v2h-4v2l4 1-3 1-1 2 4 1-5 1-1-1z" fill="#1E353B"/>
<path transform="translate(1405,1801)" d="m0 0h5l1 2 7 1v1h-14l-3-3z" fill="#FBFBFB"/>
<path transform="translate(713,835)" d="m0 0h2l2 5h2l-1-3 2-2v9h-2l-2-5-1 5h-2z" fill="#1D3239"/>
<path transform="translate(888,819)" d="m0 0h2l3 9h-2v-2l-6 2z" fill="#263D44"/>
<path transform="translate(679,819)" d="m0 0h6l-1 2h-3v2l3 1h-3v3l4 1-5 1-1-1z" fill="#1D3239"/>
<path transform="translate(1283,636)" d="m0 0 1 2 3 1 1 6v8l-2-2-3-12z" fill="#5B6E74"/>
<path transform="translate(912,819)" d="m0 0h6v2h-4v2l3 1h-3v3l4 1-5 1-1-1z" fill="#1B3036"/>
<path transform="translate(660,1614)" d="m0 0h5l1 5-5 1-1-1z" fill="#FDC601"/>
<path transform="translate(1747,1390)" d="m0 0h2v2l-16 6 2-4z" fill="#213940"/>
<path transform="translate(744,1083)" d="m0 0 2 4v4l-7 1z" fill="#375A64"/>
<path transform="translate(891,835)" d="m0 0h6l-4 4 4 1-3 1-1 2 4 1h-6z" fill="#1D333A"/>
<path transform="translate(724,835)" d="m0 0h5l1 2-5-1v2l5 2-1 4h-5l-1-2h5l-4-2-1-4z" fill="#1B3037"/>
<path transform="translate(546,1116)" d="m0 0 2 1v7h-6z" fill="#355761"/>
<path transform="translate(1347,1066)" d="m0 0 6 1 11 4-1 3-16-7z" fill="#253F46"/>
<path transform="translate(1176,1719)" d="m0 0 2 1v8l-6 2z" fill="#FBFBFB"/>
<path transform="translate(1585,837)" d="m0 0m-7 0h6l1 3-7 2-2-2v-2z" fill="#FBEDEB"/>
<path transform="translate(921,836)" d="m0 0 3 2-1 4h-4l-1-4z" fill="#FBFBFB"/>
<path transform="translate(475,836)" d="m0 0 3 2-1 4h-4l-1-4z" fill="#FBFBFB"/>
<path transform="translate(698,819)" d="m0 0 3 3v2h2l2-5 1 3-3 6h-2z" fill="#1E343A"/>
<path transform="translate(1130,1726)" d="m0 0 7 6-3 3-4-4z" fill="#FBFBFB"/>
<path transform="translate(908,835)" d="m0 0 1 4 3-2 2-2v9l-2-2-3-1-1 3z" fill="#1F353C"/>
<path transform="translate(706,836)" d="m0 0 3 2-1 4h-4l-1-3z" fill="#FBFBFB"/>
<path transform="translate(929,819)" d="m0 0h8l-1 2h-2v7h-2v-7l-3-1z" fill="#1C3137"/>
<path transform="translate(1011,1684)" d="m0 0 4 2 2 3-1 4-4-4-2-4z" fill="#1D333A"/>
<path transform="translate(1246,913)" d="m0 0h3l2 8-6-2z" fill="#FBF2F1"/>
<path transform="translate(674,836)" d="m0 0 3 1v5l-3 1-2-1v-5z" fill="#FBFBFB"/>
<path transform="translate(486,820)" d="m0 0 3 1v5l-3 1-2-1v-5z" fill="#FBFBFB"/>
<path transform="translate(475,819)" d="m0 0 3 2 4-2-3 9h-2z" fill="#1F363C"/>
<path transform="translate(1129,1698)" d="m0 0 5 5-3 3-3-4z" fill="#FBFBFB"/>
<path transform="translate(492,503)" d="m0 0 6 1 1 3h-9v-3z" fill="#FBFBFB"/>
<path transform="translate(1212,1742)" d="m0 0 2 1v6h-1z" fill="#FBFBFB"/>
<path transform="translate(72,764)" d="m0 0 2 1v2l-3 1z" fill="#FBFBFB"/>
<path transform="translate(171,355)" d="m0 0h7v1h-7z" fill="#FBFBFB"/>
<path transform="translate(1430,1184)" d="m0 0 2 1-2 2z" fill="#FBFBFB"/>
<path transform="translate(1148,128)" d="m0 0 3 1h-3z" fill="#FBFBFB"/>
<path transform="translate(231,1704)" d="m0 0" fill="#FBFBFB"/>
<path transform="translate(1686,1386)" d="m0 0 2 1-2 1z" fill="#FBFBFB"/>
<path transform="translate(1786,1272)" d="m0 0" fill="#FBFBFB"/>
<path transform="translate(1707,366)" d="m0 0 3 1z" fill="#FBFBFB"/>
<path transform="translate(1142,1784)" d="m0 0" fill="#FBFBFB"/>
<path transform="translate(219,1784)" d="m0 0" fill="#FBFBFB"/>
<path transform="translate(1141,1776)" d="m0 0" fill="#FBFBFB"/>
<path transform="translate(221,1768)" d="m0 0" fill="#FBFBFB"/>
<path transform="translate(1138,1760)" d="m0 0" fill="#FBFBFB"/>
<path transform="translate(223,1758)" d="m0 0" fill="#FBFBFB"/>
<path transform="translate(228,1720)" d="m0 0" fill="#FBFBFB"/>
<path transform="translate(1180,1661)" d="m0 0" fill="#FBFBFB"/>
<path transform="translate(1383,1622)" d="m0 0 2 1z" fill="#FBFBFB"/>
<path transform="translate(1652,1428)" d="m0 0 2 1z" fill="#FBFBFB"/>
<path transform="translate(1776,1420)" d="m0 0" fill="#FBFBFB"/>
<path transform="translate(1781,1406)" d="m0 0" fill="#FBFBFB"/>
<path transform="translate(1782,1398)" d="m0 0" fill="#FBFBFB"/>
<path transform="translate(219,1383)" d="m0 0 2 1z" fill="#FBFBFB"/>
<path transform="translate(1709,1372)" d="m0 0 2 1z" fill="#FBFBFB"/>
<path transform="translate(1566,1358)" d="m0 0" fill="#FBFBFB"/>
<path transform="translate(1615,1354)" d="m0 0" fill="#FBFBFB"/>
<path transform="translate(1489,1345)" d="m0 0 2 1z" fill="#FBFBFB"/>
<path transform="translate(1611,1342)" d="m0 0" fill="#FBFBFB"/>
<path transform="translate(1457,1339)" d="m0 0 2 1z" fill="#FBFBFB"/>
<path transform="translate(1459,1337)" d="m0 0 2 1z" fill="#FBFBFB"/>
<path transform="translate(1475,1330)" d="m0 0" fill="#FBFBFB"/>
<path transform="translate(1465,1324)" d="m0 0 2 1z" fill="#FBFBFB"/>
<path transform="translate(1600,1310)" d="m0 0" fill="#FBFBFB"/>
<path transform="translate(1776,1303)" d="m0 0 2 1z" fill="#FBFBFB"/>
<path transform="translate(1589,1286)" d="m0 0" fill="#FBFBFB"/>
<path transform="translate(1432,1270)" d="m0 0" fill="#FBFBFB"/>
<path transform="translate(1430,1262)" d="m0 0" fill="#FBFBFB"/>
<path transform="translate(1603,1235)" d="m0 0" fill="#FBFBFB"/>
<path transform="translate(1577,1190)" d="m0 0" fill="#FBFBFB"/>
<path transform="translate(1651,1184)" d="m0 0 2 1z" fill="#FBFBFB"/>
<path transform="translate(1451,1149)" d="m0 0" fill="#FBFBFB"/>
<path transform="translate(1543,1148)" d="m0 0 2 1z" fill="#FBFBFB"/>
<path transform="translate(1473,1138)" d="m0 0 2 1z" fill="#FBFBFB"/>
<path transform="translate(1092,689)" d="m0 0" fill="#FBFBFB"/>
<path transform="translate(124,1981)" d="m0 0" fill="#FBFBFB"/>
<path transform="translate(220,1759)" d="m0 0" fill="#FBFBFB"/>
<path transform="translate(1138,1749)" d="m0 0" fill="#FBFBFB"/>
<path transform="translate(1135,1747)" d="m0 0" fill="#FBFBFB"/>
<path transform="translate(1197,1723)" d="m0 0" fill="#FBFBFB"/>
<path transform="translate(1135,1722)" d="m0 0" fill="#FBFBFB"/>
<path transform="translate(1134,1719)" d="m0 0" fill="#FBFBFB"/>
<path transform="translate(1133,1706)" d="m0 0" fill="#FBFBFB"/>
<path transform="translate(1146,1687)" d="m0 0" fill="#FBFBFB"/>
<path transform="translate(1177,1681)" d="m0 0" fill="#FBFBFB"/>
<path transform="translate(1174,1681)" d="m0 0" fill="#FBFBFB"/>
<path transform="translate(1170,1655)" d="m0 0" fill="#FBFBFB"/>
<path transform="translate(1368,1634)" d="m0 0" fill="#FBFBFB"/>
<path transform="translate(1619,1466)" d="m0 0" fill="#FBFBFB"/>
<path transform="translate(1619,1458)" d="m0 0" fill="#FBFBFB"/>
<path transform="translate(1699,1454)" d="m0 0" fill="#FBFBFB"/>
<path transform="translate(1628,1454)" d="m0 0" fill="#FBFBFB"/>
<path transform="translate(1571,1454)" d="m0 0" fill="#FBFBFB"/>
<path transform="translate(1569,1451)" d="m0 0" fill="#FBFBFB"/>
<path transform="translate(1631,1450)" d="m0 0" fill="#FBFBFB"/>
<path transform="translate(1634,1448)" d="m0 0" fill="#FBFBFB"/>
<path transform="translate(1566,1448)" d="m0 0" fill="#FBFBFB"/>
<path transform="translate(1565,1447)" d="m0 0" fill="#FBFBFB"/>
<path transform="translate(1563,1447)" d="m0 0" fill="#FBFBFB"/>
<path transform="translate(1442,1446)" d="m0 0" fill="#FBFBFB"/>
<path transform="translate(1439,1445)" d="m0 0" fill="#FBFBFB"/>
<path transform="translate(1637,1444)" d="m0 0" fill="#FBFBFB"/>
<path transform="translate(1435,1443)" d="m0 0" fill="#FBFBFB"/>
<path transform="translate(1647,1437)" d="m0 0" fill="#FBFBFB"/>
<path transform="translate(1651,1431)" d="m0 0" fill="#FBFBFB"/>
<path transform="translate(1774,1424)" d="m0 0" fill="#FBFBFB"/>
<path transform="translate(1569,1423)" d="m0 0" fill="#FBFBFB"/>
<path transform="translate(1658,1419)" d="m0 0" fill="#FBFBFB"/>
<path transform="translate(1411,1413)" d="m0 0" fill="#FBFBFB"/>
<path transform="translate(1666,1408)" d="m0 0" fill="#FBFBFB"/>
<path transform="translate(1565,1408)" d="m0 0" fill="#FBFBFB"/>
<path transform="translate(1671,1401)" d="m0 0" fill="#FBFBFB"/>
<path transform="translate(1682,1392)" d="m0 0" fill="#FBFBFB"/>
<path transform="translate(1683,1390)" d="m0 0" fill="#FBFBFB"/>
<path transform="translate(217,1383)" d="m0 0" fill="#FBFBFB"/>
<path transform="translate(1695,1380)" d="m0 0" fill="#FBFBFB"/>
<path transform="translate(1778,1375)" d="m0 0" fill="#FBFBFB"/>
<path transform="translate(1544,1375)" d="m0 0" fill="#FBFBFB"/>
<path transform="translate(1623,1371)" d="m0 0" fill="#FBFBFB"/>
<path transform="translate(1714,1370)" d="m0 0" fill="#FBFBFB"/>
<path transform="translate(1539,1370)" d="m0 0" fill="#FBFBFB"/>
<path transform="translate(1538,1368)" d="m0 0" fill="#FBFBFB"/>
<path transform="translate(1732,1363)" d="m0 0" fill="#FBFBFB"/>
<path transform="translate(1547,1362)" d="m0 0" fill="#FBFBFB"/>
<path transform="translate(1527,1360)" d="m0 0" fill="#FBFBFB"/>
<path transform="translate(1542,1359)" d="m0 0" fill="#FBFBFB"/>
<path transform="translate(1531,1359)" d="m0 0" fill="#FBFBFB"/>
<path transform="translate(1522,1356)" d="m0 0" fill="#FBFBFB"/>
<path transform="translate(1531,1354)" d="m0 0" fill="#FBFBFB"/>
<path transform="translate(1498,1342)" d="m0 0" fill="#FBFBFB"/>
<path transform="translate(1459,1340)" d="m0 0" fill="#FBFBFB"/>
<path transform="translate(1608,1335)" d="m0 0" fill="#FBFBFB"/>
<path transform="translate(1483,1335)" d="m0 0" fill="#FBFBFB"/>
<path transform="translate(1574,1333)" d="m0 0" fill="#FBFBFB"/>
<path transform="translate(1606,1330)" d="m0 0" fill="#FBFBFB"/>
<path transform="translate(1605,1327)" d="m0 0" fill="#FBFBFB"/>
<path transform="translate(1577,1327)" d="m0 0" fill="#FBFBFB"/>
<path transform="translate(1470,1327)" d="m0 0" fill="#FBFBFB"/>
<path transform="translate(1758,1326)" d="m0 0" fill="#FBFBFB"/>
<path transform="translate(1762,1325)" d="m0 0" fill="#FBFBFB"/>
<path transform="translate(1603,1319)" d="m0 0" fill="#FBFBFB"/>
<path transform="translate(1459,1319)" d="m0 0" fill="#FBFBFB"/>
<path transform="translate(1451,1319)" d="m0 0" fill="#FBFBFB"/>
<path transform="translate(1455,1316)" d="m0 0" fill="#FBFBFB"/>
<path transform="translate(1428,1264)" d="m0 0" fill="#FBFBFB"/>
<path transform="translate(1786,1255)" d="m0 0" fill="#FBFBFB"/>
<path transform="translate(1603,1240)" d="m0 0" fill="#FBFBFB"/>
<path transform="translate(1619,1210)" d="m0 0" fill="#FBFBFB"/>
<path transform="translate(1623,1209)" d="m0 0" fill="#FBFBFB"/>
<path transform="translate(1784,1200)" d="m0 0" fill="#FBFBFB"/>
<path transform="translate(1646,1188)" d="m0 0" fill="#FBFBFB"/>
<path transform="translate(1667,1176)" d="m0 0" fill="#FBFBFB"/>
<path transform="translate(1663,1176)" d="m0 0" fill="#FBFBFB"/>
<path transform="translate(1675,1172)" d="m0 0" fill="#FBFBFB"/>
<path transform="translate(1538,1145)" d="m0 0" fill="#FBFBFB"/>
<path transform="translate(1459,1144)" d="m0 0" fill="#FBFBFB"/>
<path transform="translate(1730,964)" d="m0 0" fill="#FBFBFB"/>
<path transform="translate(1093,691)" d="m0 0" fill="#FBFBFB"/>
<path transform="translate(1609,562)" d="m0 0" fill="#FBFBFB"/>
</svg>
